<mxfile host="app.diagrams.net" modified="2023-07-03T11:54:11.525Z" agent="Mozilla/5.0 (Windows NT 10.0; Win64; x64) AppleWebKit/537.36 (KHTML, like Gecko) Chrome/114.0.0.0 Safari/537.36 Edg/114.0.1823.67" etag="U4Og0rnvL3ICs-4JYPAP" version="21.5.2" type="github" pages="3">
  <diagram name="总体" id="dKMGler52tXQYkUQm4DK">
    <mxGraphModel dx="1826" dy="1180" grid="0" gridSize="10" guides="1" tooltips="1" connect="1" arrows="1" fold="1" page="0" pageScale="1" pageWidth="827" pageHeight="1169" math="0" shadow="0">
      <root>
        <mxCell id="0" />
        <mxCell id="1" parent="0" />
        <mxCell id="PZcMeMh3Sl7zUGsd2KVH-1" value="标准规范体系" style="rounded=0;whiteSpace=wrap;html=1;fontSize=18;fillColor=#14446a;strokeColor=#B3B3B3;fontColor=#FFFFFF;" vertex="1" parent="1">
          <mxGeometry x="-105" y="-177" width="36" height="763" as="geometry" />
        </mxCell>
        <mxCell id="PZcMeMh3Sl7zUGsd2KVH-3" value="东湖高新区 低空无人机平台总体建设方案" style="shape=trapezoid;perimeter=trapezoidPerimeter;whiteSpace=wrap;html=1;fixedSize=1;strokeColor=#B3B3B3;rounded=0;fillColor=#14446a;fontColor=#FFFFFF;fontSize=18;" vertex="1" parent="1">
          <mxGeometry x="-105" y="-241" width="1060" height="60" as="geometry" />
        </mxCell>
        <mxCell id="PZcMeMh3Sl7zUGsd2KVH-4" value="安全保障体系" style="rounded=0;whiteSpace=wrap;html=1;fontSize=18;fillColor=#14446a;strokeColor=#B3B3B3;fontColor=#FFFFFF;" vertex="1" parent="1">
          <mxGeometry x="875" y="-178" width="36" height="763" as="geometry" />
        </mxCell>
        <mxCell id="PZcMeMh3Sl7zUGsd2KVH-5" value="运营管理体系" style="rounded=0;whiteSpace=wrap;html=1;fontSize=18;fillColor=#14446a;strokeColor=#B3B3B3;fontColor=#FFFFFF;" vertex="1" parent="1">
          <mxGeometry x="919" y="-178" width="36" height="762" as="geometry" />
        </mxCell>
        <mxCell id="PZcMeMh3Sl7zUGsd2KVH-6" value="感&lt;br style=&quot;font-size: 16px;&quot;&gt;知&lt;br style=&quot;font-size: 16px;&quot;&gt;层" style="rounded=0;whiteSpace=wrap;html=1;strokeColor=#B3B3B3;fontFamily=Helvetica;fontSize=16;fillColor=#ded38c;align=left;fillStyle=auto;spacingLeft=4;fontColor=#FFFFFF;" vertex="1" parent="1">
          <mxGeometry x="-63" y="496" width="929" height="89" as="geometry" />
        </mxCell>
        <mxCell id="PZcMeMh3Sl7zUGsd2KVH-7" value="无人机" style="rounded=0;whiteSpace=wrap;html=1;strokeColor=#B3B3B3;fontFamily=Helvetica;fontSize=16;fillColor=#89beb2;fontColor=#FFFFFF;" vertex="1" parent="1">
          <mxGeometry x="-30" y="505" width="280" height="60" as="geometry" />
        </mxCell>
        <mxCell id="PZcMeMh3Sl7zUGsd2KVH-8" value="无人机挂载" style="rounded=0;whiteSpace=wrap;html=1;strokeColor=#B3B3B3;fontFamily=Helvetica;fontSize=16;fillColor=#89beb2;fontColor=#FFFFFF;glass=0;shadow=0;" vertex="1" parent="1">
          <mxGeometry x="579" y="507" width="280" height="60" as="geometry" />
        </mxCell>
        <mxCell id="PZcMeMh3Sl7zUGsd2KVH-9" value="机巢" style="rounded=0;whiteSpace=wrap;html=1;strokeColor=#B3B3B3;fontFamily=Helvetica;fontSize=16;fillColor=#89beb2;fontColor=#FFFFFF;glass=0;shadow=0;" vertex="1" parent="1">
          <mxGeometry x="275" y="506" width="280" height="60" as="geometry" />
        </mxCell>
        <mxCell id="PZcMeMh3Sl7zUGsd2KVH-10" value="传&lt;br&gt;输&lt;br&gt;层" style="rounded=0;whiteSpace=wrap;html=1;strokeColor=#B3B3B3;fontFamily=Helvetica;fontSize=16;fillColor=#ded38c;align=left;fillStyle=auto;spacingLeft=4;fontColor=#FFFFFF;" vertex="1" parent="1">
          <mxGeometry x="-63" y="402" width="929" height="89" as="geometry" />
        </mxCell>
        <mxCell id="PZcMeMh3Sl7zUGsd2KVH-12" value="" style="shape=image;verticalLabelPosition=bottom;labelBackgroundColor=default;verticalAlign=top;aspect=fixed;imageAspect=0;image=data:image/png,iVBORw0KGgoAAAANSUhEUgAAAmgAAADCCAYAAAD99z7oAAAgAElEQVR4nOy9a7MkR3rf93sysy59O5c558wNg+suQS52ScqWSK1k0boGKUsKSQ5R9gtH6I2/iD+BI/wN5JAdDlumIyRZImlJpCh5ZUkUJXJFLrm7wC6AATDXc+9bVWXm4xdZ3efMYGYAzOxizgD5m+jJ093V1dWVlZn/fJ4nnxKNQcGwRsCjKBCR9curLayCUUB5euQT3n+WfX+a/T8rz/jb1UAgPdJ5TudXAAu41f77Ug10/XYARb/dUxOf9QR/yZG+JnTVKh664OTBl5TIqvYiENX9mA8w8yTMM/YPomelylOU0qEEBIMSc/m5lkKkeHIf/oTrw6AY7Xtu7bf9zKU+5edy+WUo7+1PKcoSay39SNEPOOsLc3X1ngm30JdRwIqsN78gv+mFKs+d8cez2lDSttrXwTOOLZkfEQoPVsa5Dv/hOpJzG5n+hSeND5kfL89y7oXUB6JJ6EU+YylgtCBKgdHV81x+niWahPLTEBFU0rD5VPVP+m4FJJe5fER5HkkWNB4YVWKMrKwEa0Gx/rDB4NZWn1x+thLOrF8r4fWABW2lxFYn3qQG7Q34/iUHyBOGGfkkGaefKA8zTyA+YEE7Z33uq0SEdXsyBB6saRDsA9bpzItFal/mE7d7JE+rDDI/MuLHquDhvvTh/vH8c4Ngn3mCnsk8jsP7B+csaA9crDHNDGMEffBSskISbaKo0bWgeJoSVVZj2KMeRuRC7/9ZSlEgKOjqnJ4//aYfx891/hHEmOT2NBBkZc18fEf/SUNAlKccXDKc76w/NtauRdmDL5lenEnv6rT4vovPPB+eo0gSA1qQZl4m9am5/BxLf27StOJhQaaPeR3AoGpQTBZomR87otpb0HpxRlTwMVlZYv/6euuYrrJnjWGST7Lw/Jj3/0nvfxLxGSxQytnIfl41KqkDifBAhJmQlJxJL3tjaIzDP4tAe+qDz5ydvQi4R3a4KzGe/g4IAYNHiDgCjjZbMZ8nz9r+e6H99Db0VQzi0w7xuXy2clV/53nc80e08K4fK5/2EJDnfwpyeWHLe8fjMwtassbEFD4ZFHzkv//rf5MqRFyMyeXWX6TBgGjEanLQPO9Yghe1XD2C9FpNzfp8ioKJkuZn1uBFmQWPDEpmseMXf/mXcS9fZ2Esqoo+JGZF5GOvZX6ErFz/EkEdax80K3dnTMHgBBwRIwFig9FIXVompWHYzihi9xx/ROaTeFS7EhHEKMt2znBUMh5vUFUFqkKMHjAYA6rC4wWaBwkgnothUfqSlRhEbd924WPCTOJDfagivaCPMVJ0LQff+y7Od2iIqCSn52oRSESffvFILnMp8PJf+x/Wl+N6wSAoqIJGqhCpfaQKiotnA1Ly3UfKqIjGCxHT9aKVQVI8WTCkuZwAmLU4E8CEfkBQQydKjAGCEGKH044o0Li008iDFbz6siddAJln4UFriK5eW6/oTGIbDUR6NzZgiXgrfXhAg6P5fA8785nQhywnsv4XcZziqHCAo0JRYj/QG8zHPvvgjjxIQxJpAmguP89SDaIVZ1ZMWK/KXte1PlCHK4NrlEjFklE8oArNUwm0TOaz4FaXZnLLRIjJclYFpfaRMiZzsAp0RoFkQTMrS8EFUJwvUmkFnEZCPBNLKiaJM01WNBMFFUFwGFG62EEQOu2wGvES8aYA9GMdQsohoFmg/dhILWYdaKyc68qTSBONmGjWHb8YQJUgERXFSIPNAu1C8ySBZmWOFY8VwUpKSiR9XRv5BIFGJEWRZgvac7OgpcDeh+rkXF3Lqv7juu5TGbG0FCxw2qEa0X6PykMCrX/+cJnJfBbcgzE16WE1Wc7KXqyBEkxyd6pEkEikt6AJufwMJfQiDO1D+QSVuBZnogYTI2oENBJQjEa0F8YrsRxJYksVWIkFSX/quecPl1mgPSNrUQ0oxH56rRikfzEN0iFZQ4mInF+zGUECho6LYdPN5aNKJTzwXFAEi0qH4Hux1pGWG6XsWunySM+fiLIWC2nTXH5uJWDWWSh7HmtB0/75qvVGkO6s7109OOtXVzWv8ujyge+5AAaDXF688jxrO2+EswSOvQijX+2isnr0rjmBiLkA3eiLV4pGXASjvZpadx4rDMnVLKAGFSWKQcUQxKRzf75j4CHkEa89gizUnoGHzp1iHhDgD1eA0TT7Fujn2vEsVQe5vIilPvRcJMUirape+zapvcXsvDX8iRY0Fc7iny5Cj/QlK8UT5eFVnA/ycD6qMxdnauudKcGYZEETeFoX5/MWArm8mOXo3DXiDOfmEsL6KjoTZEmceRtpLb2p1gDmgnSlL1aZYlQioRdnD+Tk0SR6g1EQ6UWZ9sIsCbQgaYk39BXKgxXMZ1Doz/tCfNHLRyOsunfDSpSnGDTTu8hg9fmLcEXm8lGlPvy6CCtLSxBD7CV3XEvu1QXxpAyFcOZay+XzKg2RB12cKwG3QnoLKqnOV1ZykQdSFJ2J8nOlPub1c+VKqH3Sdrn8cpbnWVvQFHqBBkEiUZRu7daE1kLXX5uVN7jzuboyn4lIsoSpsBZoRgExfeeeBFo0khLUqqBG6LAEsUByp60EmtFe/Clo/3p86PXz5YpVR5HLz1KatchKz87O7fntbEzvWcD0C2pM5GwlL7n9XGQeF4OGUaI4IuX6cX6RAHzSIoFIWijwRBmX+XGhgqrpjQxw5t48Sx8uyHoSnHJqpk46agRdYmgptEnPgfOJwT/NCvrzfUUm8yScXVvCDEkYcHa5SYp9Wq04hGQ9MzEFtRs1RIm5/AxlEFDTizMA4gMNdpWCQ/p6sAouGkI0RLS3vD0tZzPFiyF2XsxydRaTa9OwTpNCWt1s13Vp6URx0WG1w6rHakhC+gJYAL+s5afhY+NnP3mV9ZOVfRQ+boF5ErG/mD7t9pkfKZIGs7Pr4OGJUhoH1yJ7bUHT9aTaaIoL5hEC7dPk8MziLPNpcaIGI6AUREn5kW2EMqyC0ledm6HySZwZQCXNGXP52coH4pcEbIyUMVlXVDzBQGdSzqVawQXBdJGmiJwUkWj6WAjR9OijZZLgSyOI9pa41e251iW9he6hoNjMp0eUPg+goTGWQJHqURUXW6QPLvcGvKkwWJyNSOiwLHCaEtauhV4uP/fyU/HQdrJ6KIjqOQdnhHOua3ngww+1s1W705XAyzwPVnf0WNeBmofeN6wDf5TktJaI4AElSkq2Etd1Luc++/EL7GFBpg9fF5nMY3C9N42AYPuZoVXWbppgVhdycmuuLrY0m1gJuFx+2nKV9yyxSvjbW136oFOVZEKzAWyIaFhP1giy6mBs6ufPzQa1n+Gv+oOz0qzfT3+YLNKegXV3rA41qzZxdseAFDlg6EQQ45DoiCIIAat+7fKEixCR8+Urn/XKPxNqSWizKiU+WaCtrSsruZd5PjxcP08Sy0qqq35biaTFW+asP+1j1ERT9KL5hEnAp7XiZjJ5GpfJZDKZTCZzwcgCLZPJZDKZTOaCkQVaJpPJZDKZzAUjC7RMJpPJZDKZC0YWaJlMJpPJZDIXjCzQMplMJpPJZC4YWaBlMplMJpPJXDCyQMtkMplMJpO5YGSBlslkMplMJnPByAItk8lkMplM5oKRBVomk8lkMpnMBSMLtEwmk8lkMpkLRhZomUwmk8lkMheMLNAymUwmk8lkLhgPCDRVBdXndSyZTCaTyWQyGbIFLZPJZDKZTObCkQVaJpPJZDKZzAUjC7RMJpPJZDKZC0YWaJlMJpPJZDIXjCzQMplMJpPJZC4YWaBlMplMJpPJXDCyQMtkMplMJpO5YBgUFBDAGvu8jyeTyWQymUzmS0+2oGUymUwmk8lcMLJAy2QymUwmk7lgZIGWyWQymUwmc8HIAi2TyWQymUzmgpEFWiaTyWQymcwFIwu0TCaTyWQymQtGFmiZTCaTyWQyF4ws0DKZTCaTyWQuGFmgZTKZTCaTyVwwskDLZDKZTCaTuWBkgZbJZDKZTCZzwcgCLZPJZDKZTOaCkQVaJpPJZDKZzAUjC7RMJpPJZDKZC0YWaJlMJpPJZDIXjCzQMplMJpPJZC4YWaBlMplMJpPJXDCyQMtkMplMJpO5YGSBlslkMplMJnPByAItk8lkMplM5oKRBVomk8lkMpnMBSMLtEwmk8lkMpkLhnveB5D5bIg++Lc+cqOYSl3p7/jo9zOZTCaTyVxIskB7ATEkcSaAPqDQNL3WyzY1jxZioo+UdZ8BecbPP+v3PyvPevzPGX3BDd/POkF41t//gk9Q9BkvX3nezS/zXHn2q//Z2p/5ERzBl4Us0F5QDEnmGJ7U4HJPnMlkMpnMi8gLPhXPZDKZTCaT+eKRBVomk8lkMpnMBSMLtEwmk8lkMpkLRhZomUwmk8lkMheMLNAymUwmk8lkLhhZoGUymUwmk8lcMAzS59MCokaQFzxHVCaTyWQymcwLTragZTKZTCaTyVwwskDLZDKZTCaTuWBkgZbJZDKZTCZzwcgCLZPJZDKZTOaCkQVaJpPJZDKZzAUjC7RMJpPJZDKZC4b77B8xqERin43D6Nk7Qvz45vqgBlSBKPGBz8q5v1f71V47xoeyfpx9X0TUgMT0HX2pEgFDlIhR88B2q+er9x/eHszZMZ37XfoCZR7RPmfKk475k37P+d/+mb73R7QvecLxP+nYn+a7vpDIg+0wnc/Yl3171IfnZg+f2FVDOL+v2O9v9dmz9sSj2v5jyNX0KB53Vj5+wa/ah6j2JedKSWXKoIT2e1jV/3mMpv41lfqx2ux7z4e2+6TPnd++74fRVa+b+nM1j/xdDx/XReSp+sbVZ5+4jye3n8e0TtJ4/ElHcFb3aVvD2f9xPW6v9hkf0Uestk21eP4LNY2Z8vHjP3vF9FsKklv/Z2It0ASQT5kDLYhZdwhJCCVxZjRVibOWtm2x1iIIi2aJtZa6HtKpx9aOZTMnBmVYVkgXaBYLRCzD8ZjGezoNeI1gBDEOY0zqeFTxzZLCGZwxoIrGgFgQK6gxNCFSDUoWsyW+XbIxmBC7gF8smYwGtDHi1WPLCltXNF1gNptijGM0GCIhoj5AVMQaEAdG6GIghEBh7I+lMj4ton1nfO61dSOVj3f1D3cITfRY5xARYoxYY3DOEWOkaRrqojzbr+rHO5R49oLKSnSfa+AxXQfWGAprISrRBwCccwRRQgioKsYYCpvqN/qA9x5nLbHfd4wRH88+awtH5z0hhPU1KyKoKlYk7SeuhMSjf/+LJLgfxer3qqYfZtbPAzFGnDPpvBjt6y8SNKTtxILa/qSYtA8V9NxJKYqCGD1RAzF4kIgIiGjqI6IAqe2J6S9Eievjcc7h+zqy1uKcwRhDCIGu6xBbnB27MRjjUFW6rsN7T1UNnvj79RGDwYvHeVGrDwxwCuvzs6oXEcEYi6Gv6xjSwCqKs/2eAvhgsFIQcQ8KKePX/XMIARGLCDhjMAYioW/XihWTBtLYD6mB1K+oAYGiKAnqUQ0QW1TBWIMzBRiLbyLGCKIG0YCqB+MRozjj6DSCpqFn1TYNrBum6JmEOJuwn/FIQ8DnzKoPho+Lp8eJy7VxIUSsCNLvIAqohnWbLqxZf8f5z/aXBCF4bOEQYwkoPiShbk2BOEvTNDjnMERC6BBi6lNjpG071NRYazESMaJYAqohjXXG4TWi4ogqtK0ntg0GYVA4XFXgY8GyU9BA6QSRQNe1GFGKIrX9oipBDI0PxBAxtiQiqO9w1mAuQB2+CDyFBW1F6mDOrqF+UETxvkM1Ym2Jcw6xQ0SELgSOZieEJuCcoTaOrmuoomVU1qgq7XKJ2n4AEVkLAHPue0ajEacnR6hERuMBgciyXWCsQiG03hOWgShQVFUaJKSkDEkEFNbQRWU2O6VbQFlXbGxtoqrE1mNJA5yuOinRM01yARL5nhce4dzr2icdfpR1c7W9ShpATVlglDQohrQXEcFaS+M7LEn4iHL2m/uTYPvnj2piUcCWBU4MGiO+84hC4RyiStO2mNKhRpAI0QeWnccgFNZSWNsPIAL98Tjn0nWgun6vKIpkGeg7NWMMEnUtzr7IeO/XA3gSYmYtdOg75RgjEgKgYJJ4VQ1ojIiVfnYcWQ0vK9EH0HUNxhisFYqiAkkdeFRPDEpVVmhI4iHG/lhUMSJA7OvS4IwlRk/oPP7c8Vpr1/V2vk6rqmIwGNC2/nM/p58vT4osiRhr0JjEs4hBeouGRsGrUjiHFYhRQT3ex/5cgkYLrujb/sojEDGx9zKIUpY1MUY0RIL3GAGxaUJlLfg2EEkTMzEGMQIrcSjQNB1iI9YIzjqESETx3hMJOFODCEYskMSkor0IiUDRW/TSRN8+YiL1KCv66vmLailfiWW7snLGmPpsSQLLGINIeh1AzrVNIb0PYG2ahPrOJ4ulcYgxabzUfhJFP2GKSe2KCNYJBQVBCqIYonYQIxrbNInrFBWhiYIUFbYYUA1G2HqAiYEY0gQqqEFI7bso0t9GUt0aC7HzBE8yrKgitsA4g3aBxnucLR9zhjIP8wwC7UFUzszcCgSNzNsG2gbEMhyOsc4gzZx6OGAwrCgidNMFPkJZVnjvWZxOqSajfq8xzRyln2HGfjAuHFKUOFcjxrFsZmAs1WBEqx0bwwmLdoEhKfXZsqUQqFyBbxushclkQqnK0XzKsu1Q67DWEkLshclqBpsGn9Xs5dNaGS8yMUbEByIQQ7IKSohYa7EiFK7o9bGcmcZVMfZMED0Oo0CIqE3Wua7rcMYiLnUyIQQKKSmcTQIzBLqmRUMgkG5tYcUQNBJDQIMgNnXk3nu891hrKcvUyINPg3lRFKDgO49zD87Ov2gUZbLgajwTVVEVXQudUW/B6oCYrMup5yeGeM5FydlEhJAGh5XYlSTeYozJkhYDIURiVLRLoiyNIxERizFp4DDWcDqdU5SWwlWIdake6a2lzrFourXlM+0z1aFzbl13X0Z6myLRKzGmhyBYmyaMIdK3CY+VgLEGIU1mVxY2oSCGR+y8F2dAP8gKBCWIYkn9m+svC7PyEKgSNLXJEBSjSkCxYlHTXzfGIir9XWgMUaFpPViDE0FNOi7EpmvNCMQc+gxxPemMIkmIm1TPsZ9Zh7VVwPRSLY1nzhlC1+Fjh4rBGunFmxJiwIpiOGdyox+bxSLOga1RTdeTUSicSVY2DUQVNBo8Ft8lq7Y1IBrpBwzqQjDqiap0bbL+hd7SbqJQlHU6fk39hbURqx4kEI1m69ln4Kl6wwdmOqs/+niuAIzGY1zXERS6EAle6UTBCrGwtEHRRYt0gTBvGBpHXVS4omQwHq2rb2VFWX2nRCWiHJ1OiQpqHaeLJQenp2xsjBm4gtnpFL9sWbQLxuMN6tKxjB1iLcPBgE4ji2ZBbQyUyWXmA7QasD4SNWLFpFll/+NCjGkW289yzrv4XkQkapo5J+MKxtjerZH8lCauhGlMv31lWl/twPROBvOgWDWSIgxCSK4201tFDELQJLDLsmQ+nyfLWD8QGAAxmKDEmARW7AeG2M8CxQiFdbj+WKuiSuKhTWLBuvTdGpIg+SKzEjdibC+UeuEUFUVom5CsKWqIqnifBBikPruqLMm9GUgCa+VSS38b07uWfThzF4tgTY2zabAGWZ/nVTtVI8mNYSwqBWosxhSY3v0pkiwxqu36N6xc6yGEtQAv+w7+i8tjYnX75lQUBV0betGTRJexfUiCRKJvEDFp4DRJFKkqgn3MBDKuH1EgqkWswzpDYZPLMKhHewG+8lxAcoOiqW/QqAiGoiyJBDS2vQtNQQzWFRgp6DQixqY+0yTLbYpbEjR+yWMQJSbX5sqKZvoQDTF0Sm9pTO1IeoNEjGfWZtHI2BYESYraiJw5dTQg0SerVUxmUWstEaXrbRxehGUUfFCsVypVoig2xSsRouIGNYKl0xRvFlRRAmIthVGcNWj0eA3JeiskoW5LsEDfpjUEVFuCbyEYjBEGpSXEeBYLm3kiTz1dXYu0h/qDiHDr3j1EhMFojHEOL7H3kRtMXVNULlVaFOpxgYtCG9NMrihrFr7tO4g0qJg09IJEYlDK4ZjpYs4iBKq6ZnvvMkVhaUJg3nbYwQDKEjsYYJzFz1uWMSJdR9t1bEw2WDQNftnghjVF4QiahEhhLcvjKaggyNoZoaoXwr35rIhCVZT4mNxdrrccrqxZxEjhDLE/H1EF08d2GZNmefOuAThnTj+zLEr/iCFQFiWDwYDQeWazGURlMBgw6t2YGgIGobQFrnK9iwxOT0+x1ia3qDFptr5yb4hgECqxBEDFEkRxJIFQ9a7P80Pgix5z9jDLZS9wXZksKKuz3nd6PoC1DudqksszoIS12zL0Lm3EoiSRhsQ+lDvSrdyWkgZyIy7FP/WxoOacS/y8azTGFPIw2dgm9JbZzp/FGq4mN2UfY7a6fpLrpf/8J1hov3g8/FuFqhxgRBETiEFSDGwsEAzWJDeScRFspLdp4YMnhJYYDGV5PoYv9vFtqzg3gysrEJfc3pKkk1lZ4gj4tgOTLNmIRYxgSK7OSAr3WH0KSW713nCOohRlBWIxIgT1BO+JJHe3imKfcwzv8yYKWBR6j4VHkjFDlRgFV9Wg5ixYP65aeLJ0zboGZ0qKovcueU8MLUZTTFnUiBGDGIhiiRF8iETAW0scDNEoYC0aWjQ0KCmUxxrDYu4xRZFcm9b1cW4hLQ7E0y3nlAQKa7FFgTeGaAzJNqYczxepTYvDFoDvIAZsBFM4Qk4e8al5KoGWgk8fXN21DuYU2LtymdP5jOgsWMeyW9LNpxTVAOMcR/M5EpVKDc46uqjE4LGiuPJcl2Xs2j+/WiAQUapBhZ/Pmc9O2d7aYmNjwulsynR6Aq5gcmmL+XLJ3LfMmkgkUtQ1RT1gOB4R2wYbA1EEHwMnRzNOZicMqopLW9u00VOKpRRzFoDNapb64iOaLE0aIookg2A/OIpCu1imDmFdEdKv3BVCiuZNoue8dbN3iUYB9Un8efG0bZtiXUJAQ1qEsLO9TbNYsvALQtfRiCcYux7snabZevQBsUr0ShfPLCxWwUpa2JCEikViioESV+D7uJovqiHd2jQzFhFiiHivBK+9q9HSLDucU4rCgjVpNR0GAmhMVuCVMEvnPIKEdfB1Wgxg+zg1RwwW3xlC8Pje5Zni2pKAdtaexRyJ4JtA5z2+j2901lKUlrIXeN1yimpcC7LVb1q5OLuue34n93PlwdD39JJjPm+JaogBYhS6Nlm4IFlL6sISWw/SYWxMFnAriNhzqyQf942GtgsEVYieQEyWGqMpbtQIpa36wHWTtvORLnRpEYLCsKpRA4UtUvwjkS4Goo/46JEQwToslige0YjatL11QvBfJgH+aM4WPyTrWbJsGjzCYunT5ElYt+kUh2axkiS52ORRQDuU5JqUfqHUA2s8TVoxG6KmzAhFxbSNqBTUOEQUJxFLpHQOsQWxDTQqzOeeJrZ4UdQabGEZCmizTOFKhcUrtMHQeGHRtSy7FmctLhqGlWXoCgqxhHZB9G0aY1z15baifgY+s0BbibN1F6A8IM5UYNF5jmdzXFWzuTOicpbFdEYXPVaF8aVdaldg2o7l0SlN2zCwFleU6zQcSa0nv7lJ6ozQC7RF57n++mtMD4+5d+cOJ8enGGeZbG3xyhuv8513vocPgXm/evTS5iYS4f7JMbFtGZc1XdfQiVAMSzZ3d9m6uof6QPQhWfMMYC2IQaLvTc+PMRu+YHjvISrOpNiG0HUQlWFVMxmPWczmGGNw0sdE+EDbtvi2pQseGVZAL+DOBe72c2pEoS4rVJXFbE5VlOxe2iGEwGI243D/ACeG0jqKqk4u5d6CF0JgZ/cSp7Mps9kMHwL1cMC4GveCJKBtGgRsUTAajYgop/MZTdemYNlHcN6K9mLHpkWKwq6FVQiKjyC2oKpGlMUQV3T9tSrYIrmSfexoFkuadsF4XJNW5QGE5IZaW1oiZVkTfBpIg4+gFmtLqqJiaC1ROoJ2hC7gY8CHeGZxMbCYL9LCm81LWOdAlc57NEY6H5gvPaNBwXA4IsbIYrGgbbsUc/UlcH2Yh4aneE6cgWG+aKnKEXU1RGyFqsGHNEAbCRSmo+mUpkntuCihcEUK0LZK8OZMpK2u+5VpWyFoCuB2RUXZr8fysUuLOYJPR9QHnVvnMM5iU8AUUYXSFUQCMTSEkMIiMA5bpPADKyWxD0r2sXeNGkmxE+bM3f5lRWS1OMYTxBCsQ22JFBXOFsQoKAJSpFXX/cRnZR4wYgkEltFjQ6o/a1YWzRSyElTW7tIUkVBgy4pyvMk0FIgpKUKDLKYslw1d52lNoCigGozxIblJq6JgNBwipaHzHpanqHUEgRBgEZXgDLaeMJiUFBoZDYcsZlO65ZSF9yRXuQP5ctf70/CMLs64HvjOp1uYzqaUg5qf+bmf45f+yl/lyhtfSY07BjCO5XyOBOXDt3/Ib/+rf8Xb3/kjwmLJ0gfm8ymjyZjQ7y9ZbAyYQDSGEJXdy3v85b/6Vzk5POIf/J//F0cHB3z11df54z/3c/yJP/UnGW9vwbAG78E5cI73v/37/NN//Ku8/Z0/Yndnjzu3PqJZLnnt1Tf5r/7GX+crP/117r77Hr/zb/8Nv/oP/lGaQa5ifSTFA6zXrb7grk5RpeytFaLQ0WGtsL21xZW9y1ze2U2xXtYiqrTLhtPTU06PTzhtFrx/9xbhoRVVq/5/Jc7G4zFt23J8fEw9qXnllVeIMfLRBx+wf/suWzs73Lhxg6uXrzAeDIG0ojOEwNHREbdv36ZdNhRGuLy7x0sv32Brc4sCR7ec0yyWaTVnVXJ8esq777/HYn9BxGOsJUgSi+HFrqpHslwue5eyQaPFuQGj4RbbW3tMJlts7V0lNC1t22KspSwsre84PNzn5PiIo6P7CJpiz9aD5VnaB1XF+5Bi2WLJoBqzvXWZ3d0rjMZjyoFhsTzl5OSE46NTptMpTdMk12kwDEeb7FLQOmMAACAASURBVO7ucvXqdeq6ZjqdcvfuXfb391ksGupqwM7ONru7u6gGDg4OODw8JIRwLk3KC62inwJDkm6GQT1iNLnE9tYe1WAMVP2CW5NifJoTjk/vcnR4j0UzI4ZIJ4qGiI9KYYqH8qGlTGSiBkVSbO5gwmQyoR5UoMpiOePk5IT5fMq9e/coy5rhsGBQTxiNRgwGo7QwxzqO9vdZLhdMZx3NcoFqpKoq6tGQqhqwd/UVtOtYzBums2Nm82PabkYXOroQKL4EIvyTWE2uOolELFJYbFlDUfOf/dyfBHoLtgopA0o/o4qBP/q93yEu5yybDgmByqRFOoJF8SltTfAplk0hYFFrcPWQcjThT/70zxPFIvMT5vduMf3oJovDA6QLGGs5mc0x9Zgr165y5dXX4epliIGj2x+x/8EPoJtiNNIGJZqCanOXvRuvsX35GgxHtCcn3P7wfe7e/CHt/BQ1MBCHdYoxQjagfnqewcX5yHdSSiRjuHd0wGy54Mo3vg5NC+NJiikXx/DSDnr/gK/+2T/LV3/2Z/l7/+P/xP/7G7/BtctXMHWNGw7p2gVd8GxtbXK4f0DhTPKjG4srS976z/84p3fu8ff//q/QBcUWFa9/5auMr1xLKmE8gRhgOIS245W3vs7uf/w9vvWt/49ROeRkPufP/+Iv8ef+8l/k0htvAIHLP//z/NnxGFHDP/3Hv0pEmc5nDKoaEUtVphwzL7gBLQWO9svsO+9xYgjeM5/OuP6Nq2wVE46XxwxdxaJZMB6OGA2GvHL9Jd5+94e8f/cW7XJJURTUdf1AjNFyuWQymTA9OaGqKqL3RO955eoNAoH3332Xoiho25bCOiaD0XphxsiNWNolL125RtM03Lx5k+l8xu7uLlVR4nAYDBv1BktXsFgs2B1sMRgMePvtt/u8e/rYoX21zP1FpyiTuJ4vO8q6JgbLctkymmywdfkq1BOsLBkUdWqPhaOqK66OJqjcZDo9YTqbIgJllTpxax2uz2EUVbCuhDb9Pdnc4rU3vkIx2YblEkplUGwy2L3MzumMg4MDPvzwQ27fvs3Ozh6bm5tcv3GD0e5V/Mkx2zt7jDe2ODz+D6jOscYxnS/56s4eMXS8d/NDlq3HGINvm34VaTL3PJAygCQe7YveAJ+IECMsly3VeAPE0Zw2VJuXAIc2p8hog82BxfuWk/lpn7qkYLUSN0QlRChMkdLVxUgXFWcEV1Zsbe8wmWxBUULowFkGRY0xhqZpqKoB4/GY7a0dtrYuYaoBSRkGiLC5sc3W9jbHRxUffnQT71suXdph7+p1kDrF7zrDcGPAcFRzeGi5v98Qo6GqS2LbPN9T/Jwx/YpmLVO8YGsKjmYNGhv2ru+BqWDrEsxbsA7EIfMFUpRgDW998xc4+MH3eO+H30/jkTNppXv0oCnXnCkqxFhOF0tOF3N2r17njbe+DtdeAYaYsoK6ZHL9KmMiHyxm7B/cZnNji82tSwwv7bDx2ldhZxdiWqyydeNVtvZ2OPlPws3vf5d5hFd/4k0u/8TXYHsPbAVtR7k74pW9qxixvPuH32ZzMKQqoDm536+vywL90/LUFjTTu7f6NCsPWCqG4xHDGFBjIQR+9z/8Lt/6t/+Ow+MjympAVZZo6/nj3/gGv/CXfpH/+m//Mk3T8M7336YJAdM0zLuW+XJBdIZlCAw3NjG2ZdG1KdGh97S+o6pSDrO7d+/yK7/yK5h/9A9ZhI7ty7t8/Wd/hl/4pV9ifvcuv/Pb/57vvvM29XhEEyLYijfe/Ekuvf4Gb3/nD/gnv/ar/PTXv8Gf/5t/gzffeovf/e3fYXl0gi0KiqqkWSzpuviFSLPxMKtftBIvx8tj3vn+22lG7j2T0Yiqqrhx/SV2L+3w2quvcmf/PsvZHL9okqXGGIqiIHQdx80BMUZGZU1tC4o++Yr2onC1cu+jmx9w64MP8W3H1atXee2VV7DWcuveLY4ODnDOMR6OmE6nfO9730u59LqOcVGxtbGJMYbheMStW7eSm2yxJFqhKB+fZyfKWd6lF5XzsVsp8D65QTQCarn7zrvc3b9P03R9bJIwHA+4fGWPy1evUTrho1uO05OD5KLsIpGOwqXVthpSIH9ZDLCDIRuTLYy1zPcP+ej2h7Rxwfb2hGsvv4orirOEx7ZgOBxy7epLoIb5/fvcunWL8XjMlSvXeen6y9wGmuYkxSTGiJ5LkptSgaTcWV8aNC3u0POD1iqvlUK7bLhzb5/yZAFYum7J9mbBeGvA1qU9Gt+xWJz2K6cNRmzqd73SBTCaFhlYA2VtGdQTYoS28SyPpxyfHDIaDbl05SpVOcBaS1VVFK7CGEfbttB2NE3DYp7a+vXr1/tYJ4OzZe+uUxanc4xpOT6aEoIyHo+ZbE6o6yEgdF2grJIb94sbIfrpSMmGI60PBONQTFqpW9SAYXnngHffv4kPSlXUeB8Yj8eMyopLV7YpBwMGk60UikJAiXShgdgxbzq8X6ZFREXBxqUNLu3sgS3g+JQf3v2Q/eMpl4clr1y9hGxvMxyNWG5uoFa4e3iPb7z2Gmxt0n70IW/fvMlka5vrL1/HEti4eh394bvEThltboMpuPfuTQ5PF4hLfcBLr9xg9/J17n30AfPFCdIFUIczhqhf9DyHPzqeLs0GfCyb9/nEgicnU6CPdRqN6LqO3/tP3+bkdMZwMkZ94NZHH/G97/wBr1x7iVdfeY1yOOLg+ISN7Q2iSx1JcJZ5Fzg8mVIOR2iITJdLbjiLmpRodrmcUxWO5XLOD37wNtEKp82Cv/aTf4OvfPV1UM8/+81/xq//k1+lmS0YVTX7xyf8xJs/yR/75jeZ7R/wj3/t1/mnv/HPuX33Dn/6T3+TN976GtdvvMT3D48RY9NsRxX1vbj4gg8gR0dHvPfee0xPTvFty2Q0ZjQaMSprxjvbSZQtlviuw1rLoKwoioLCWFpSxnispXIpYW0MgdC1aEx3nbC9pW15OsM5x7UrV7l27RqjesTB8QE3b95cu7zquma5XHI8TYNQ27aMXMnop77GZDKh6zr29/exhcOWBYWzKTXHF5jYhxKs4oxWCYrBgcLt23e5c/8egmU4HjBfTAn7AXGGzd1txDnmTct01lAOHc4NAJdW60lKNdN6Qb2HbsH+4RFLDyeHJ9z88EOKClRvcO36DZBk8em6gGCpqyEb25e49cEHHOwfcefOHba2tri8d529vSsc7t9jMT8hxLNVf6tl+pgUz7S2ga785pyTbF+Qqk3ux4cme5rcnMgqdQk0nefg6JioJ6CWEFuapuaN0TVsNcAVFc3JIW27pCxr6uEoxaat7hRByjUXukjTehYLZXtriO+Uw8ND7u/fZXd3h0u7u2AMGoW28RhZYsyU5XKJ94HFvGG5bPHec+XKtXVqF+ccSrpDxPHxMd4rR4dTvE8uvMnWBnVdr/tQkXyznxUxpjvWxDLd4UNMmVbFFgOO7t3m7XfeYzpfMCgHdF3HxsYGG6Mh33z1FyiqAWIsTYBlUOyqPwiO4XBEaFu8BmJUmmXDvf0DpsuGRbTcPOm4d/8I98oVroxLqr0N2tDgtaVpFFNV3Lp/iw2Fu4cnvPvOD7FViTPCta++xuLmlGo0InRw9/4BzFuO5x139g+5v3/IN7/5TYieqi5wztGEQLBp9W5UZX1rxswn8hQC7ew2OuvUBw9tMRgMGFQVbePh+JSm83RdoGlajqe32djaYLKxwSuvv8b1V1+GqmK6XKDWsHftOn/hL/1F9q5fphqNqeuS+/fvEzvPv/7Wt/gXv/Vb+BiR3k3XdR1V5aiKgo2NDXavXUGqgl/8xV9k+5UbMBzy+uuv89Zbb3HzvfeZHZ4i1vDVN9+ErW3+zT/8F3z7D77D9s4udw8O+ee/9Vv8lb/137J35WqKjWu7tYXoi8qqw1y5ra21jMdjCutol0vqsqKua8qypHSO+XSGJcWG3bh2ne3NrRSfsg74bpnNZkSgnS2SZSfqeiFBjMkSaauSvUs7vPrqq+xOdvu4KGE8HnN8fJwEghG0D1ooqpKiKBi4kr0rl5lMJiyahsPj4zSTLAuscyx6F8qjuoAvgovzzAVIv9Iv5ZxDLBgHxjEYjqmqimpY4fE03ZKgka5tU5Z4LJOtbW7cuM729iZiVvFnAWsLDg4OuHtnn9lswdHpCYfHp6jCZGPEYFhS1zVd29J1HdPpNN3Cqc9rBnB4eMj+/kFaGLJomM1mDIfjZB1aJVWVZCVKqUKgt8U/8bd/EVKmPGmRShLemm5zR8qJVg8GeAWNBhcsg0Gd7hoRPG3b4buINRWj4YRLl/YY1BM0pjtLiCjLZsbxyT7T6TFd13FyPMW5Et8lD0TpirQAqF0ml5kqbdsS/WmKLQ5pcYAVi6vrFCuq6Q4RkPIVtm1Lu+xou0jpSoxJ0W+h9cTQ4ZyjsO4FX6Dz7EhKB/Bg/jLAGEdQoe1SnHZZDdiYbFIPJzhbspjNGAxGDAbpLg0pLYdByiGXNjfSBHdrkmKuQwdtQ2wX3Lt9iw8+vMnB0RH1cok3Bd3SsbO5wZWdXaphDUcHnMyOWPgZZVGzsbPBR7c/5O0PPsRVY8ajmtF4QmUNNA137txZx5HdvXebJlpMNaCylvHAceXSBkxPuH/7I7rFHGcsZWmQDmJoXvQQ7s+VH0va7tPTUyZVlSwpgwF/5r/8L7ny0g3KquZ4NuVkfkrlLK9cvkaxc4lv/+a/5PvvvM3W3g5f/ak3+RN/4c/BxiQFRdY1W20LwIf39in+3W+nIGJnqauSQVVSOkvTeLpmyWI2pZkr/8+v/xonsyl/6s/8F/z0L/wZ3vrJn+R//rt/l9/89d/k5b0buLKGk1Pu7u/TqbK5s8udWx/x/XfeAY3sXt6jHNRM5wuWbUtdlohauq7DuBf7ClulrXzcYLezs8Obb77JsB4Quo7COizC1d0rTLsFVgQnhoEr2RpPuLSxSUmJEqldSV3W3Nu/x2wxp+wtI7Ut8DGsO+i6rin6HDvvf3CTW7dusb25yeXLl/mpn/oprLW8/8EHeO/XtwcSY7DWcP2llxhvbOCk4N7+h9w7OqCs0/Vmn3Crpy+COAOwxiEYYuzSytdoENvHa1nLm2++yaJpU5yxRC7Nt3GlZWd3i6KuWX60JKjiiorxZJvx9h4QU6xJjFAPGTVCPWhpO+Xk5ITlcpliy66/xGhYE0KyXJ6cnHB6OkM1JSEuyzKt2mzTfSE2NraIEabTOaPhBoPBiHlR4ZzBOkcMfr0Q5xNZ5fPSFzyP1uNmtsAqbx39HTLq0YDLV3YxrgZNQeDbkwE4ZXF6gI9QDUc456iHE6rBBDeYpBWhUgDCsKxofaT1EaFhdjqnqiKT0YjLl3cZVCXz6YzpyRHLxYLN8YQ2eGKXkhU7sVR1zage4cqS6JPgb5cLYggQIkEVowaDcGVvDx/BIpwcHRP8HKJSFQWxy+6tVcyutQ5MkQL2Reh8ZLFoICiXLu3y1lvfoBqMqFyVFltVBaPKrffRBSVgcaMtRpeuwNZWWsCmHnyHWU6p5w327j26pkU04NRxfXeH7Z1dNgYO2gUfvft9VAKusoy3hnRhmdLbacSYyI3rN3j19a+AGm7/4R+mXGwnxwQxDCZb0AVCN+PG9Zf5+Z/9GqW23PvgJnc/+ADxS4aVYDQQo08ZGTKfmh+LQKvKAYKlcmVKnDMY88rLr1INRzAowSThxuEJ99+7yds/eIcmeGaLOf/yX3+Lk7alnow4mp4yXyyZz+dcv36dd77/A96/dYuf+dm3Urpzkhu1CWkF03yx5OD4iONmzr2jA+7cv8fv/f5/4m/du8ef/4t/iddee42NzTGz+QJXFlCWlIMhi+WSuhumLOia1g+PNiZY0996pr/pc8q0HVNSxy8ID9/oHGBkBmxubrIxmmARhlim3ZKT6Qnf/cHbxBiZT2eEpsVE5U59K6XsEEFDWtF1cJRclMeHRwxGQ0TTjHp1j0/vfcqFtljgJLk8N8YTYox87Y2vcWl3l9v37zE/OqIaDtJq067DDQZcf/lGWuZNx+17d4koIUaMtR/7LV8WFOktoIZ6a5M6KjgBK1zqb+VEWHL7g/e5e/8+x73V8YObtzg6PAVWdw/wlGXJ8fEx09kJ3ncYY5hsjNjZ3ebSzgah85yczJjPk0BLuZoMhUuubmK6BkSmaSDpPPP5PIm4PiO+yOr2P/1dOta5u9apoT//k/i8OHcXAaDPvt+bm3HUw7Q60to+AW2YMT855P79ezRNg7WO4GMKLdGSGKbreDRrLVEDi8WUxTLdUs1aS106NjbGTDY26LqGo6MDTk9PMX0+Q6OAMQyLguFgxGg06o+h4PAwuVSbtoHg1xnui6JiVNYMh0O6NjCfz5nNj/FhAdKBQIj+C+2N+DSsFroYhMCDCZ+7NlnQqIfs7BhkMIJ6xN5okJpEaOlu3WJ/f5/T0ynzpkXdAS0O5Bbz+ZyNzVESaLFldnSP6WyBI+WODChf+8obqFju3X6Pw/aQ2x+9z8akwBbgpaNpOqIEdnZ2uXb9FTYn27TTKQf373P7/XcZlEpZuLQwISwY2ILNnR1eurKFGxhufv+PON6/T7dcMKoKSpR2McfEQFGX+NB9mVr3M/GMAi0+chZojGE2S/FFxMj+u+/y2//xPxJV+Lk//fPYoePS3i7f+he/wa/9w/+bo7sHqMDWpV22dncoyoqr167zyniIimV/f5/RaMRi6bn20c30Jb4FTbFNCx/YnGywsTlm//iIemNIXZW8+RNf4Q+/+0f87//b/8of+5lv8NWvvsGrr77Kd/7DdxHjYFCztbVF13XM53OGoxGTzQ3QuF7BKcZQ9B1K6Du3F511SpTHvN8SuXnzJlYMO9vbXNu9zPHxMXdv3+EP/uAP2L1+FWcMdVkxrAfUZZnyqvV5sObTGWHZptuYaBLP0Yf1tRJCQEy636ZEYTgZY4xhOp3yg3ffZe/KFeq6pqrS/VkHxqxvd7KxscHGcJP9031EhP3DA8aTSR+kbmmDXyX4eoBH3Xz5RcX7dDssY1wKBA5FHwuWFs98+OFNFm1HUTk2N0eMN0ZEE3j33R/wnd//Nld3LyfXWTWkLGuMKfv79AlGOjQqw+EGXZfc+5PJhJduXGMyGeC9587dW0yPTwheiV1LUVRYLISYbpTcdmyMx+zf3Wd+OsXagrooMUXBcrnsDXVxnRz5/I3f4ZHV96XCudSOYgwIC45PjijckuHIMxxUTE9PuX/vPodHB5SVpSgqlsspqpbxSCmKKt2sWlIMkGqgcx3WtMSobGxPGA9riqJgenrKyekxs9kUEaGuS+bzFENclnVqb5NNiqJguWyZTqfMZqd0XUPUgDGpvzc2WcUnk02WyznT6Zz5fJ7usyqRqB5jzxYIfZkxKcs3MZJye9rk5jd9vHNvcubmzQ8xxrG3s0vpCgDmpwd89/e/zXI+ZbFscNWYerzBYGMH60rMcIn3LWVVUkpNs5xji5LaWPb2dhiNNnHWcu/uPfbvfES3PMRY6LoGr4FuPgVToUa5tLPJzvWrLPdP+O53vsvi+JRxXbI4PaUeOExh8F1gsjni5Wu7EBt++Lt/yHw6pV3MGRSOgRhi22BCm8ZR73P82WfgqQSayspJdpZyw2jfsYpBUObTabrYOs93f//3+T/+3v/C8emU0CxYxIb/5m//MqWxnB6c0M2X6eavxZIrO7v8d3/n78BokG4RMRikpf0hcHz/HsvplIP7+zBvqOoh9XDE4mRKORiyc+UyUlV0ovybf//b/NRPf52Xrr+Mc46NyRahixydTClHAw5PDumOjtjb22Fra4uT6QmT8Zi9vT2IkflsydHJMVv1EFdUKdgnROqypA3tcx3sz+eeM3omtFaJYx/nylvdkWH1eNxaqpPFCd97+/t0i4af+MpX2OhdHq3vCBo5nU0JAlu7O7z+E19hs9pIeZZIue6ssRyfHNN0LUGg6dL58n3sWdd17O7toTGymM37+JWGrmloXMqTt7Ozw3g4Oou1ihFEmGxs4AncuXsX5xz7BwdcvXo1JdLVFANXDc7u5fhFtKivJgoiirWSkliqIDElDz09PebO/XuE2HH56h5X9Sp17TCk69e3C+rKsbe7zbVre4xHW8igBltC16YEze2Sd95W7t2/Q1EYyromBOW9925ydHBI7DyDQbKqGGMIIdL5hsVigaoymYwoK/f/s/dmX7Id15nfL4Yz5FTjvbiFC4AgAU6mREmURKlbXl6y3S1L3e1l+8HDcvvBf4Uf7H/F7267l3vw8iCvHt2WTQ3URLMptsRBBEAAd6whxzNExPZDxDl5sqruBXBJSqoCNtZFVmVlnsxz4kTE3t/+9rd77tnh4SGURa+X5p1K1ai9vDFIbNIuXSm+dAFg4qaJRsnNF7uUwQQNfWMyndbV2FFBVGyNVG0qTp88QJEx2z8g7O+BtPhQoyRQliOm45IQHIUtODm5h7JlbEiuIh8RV2HOHK5Zsm4Ch4fHFEV0lh88fsDZ2VPyPGM2m5GXGesqBgB5OWY0mZKPxlSbhgePTnn06BF7e1Ocb6OQdSKPow15NqIcz3jw7gOenl3g25rxrKTIctZNDcExymPRj0qIqZLu7AeZ32cEUzdrLndndXmF3WoNhuBiX0pbYJQh05pMK/xqyfnFiu/8m2/jvefzb36WV16+T1YUhKamXq1RBPYmOeU456X9gntHY+zkEFBx3xwXQMPF9z1nD96mdopycofJpz7Ne9/7AW+99RauXoI47t17icXFY2xREkSo6sDJ/de5d/81XFXzzrvvsVhtyMsSlWWM8n3Oz56S5TmvfOp17p2cgM15/513+MFbP+TkzjHW5hilcU2LNC2l1eRasanWqKK4NcHyT9o+soMWFJCU/k2690zQEZERjQkxEp5MRqyWCxjH3osTBcYa/uk/+AeMJjPePDrhq7/xt3CPF/yjv/8/Q1aynq/4k9//Or/9v/9vKGuwWYbJLN57Hj19wtt/9m842ZvwmfufYr1quThfY4sptap4+TOf5b/8r/4u3/7TPyUg5LNDvv71r3Ny/2X+0//8v8CM9nj3wXdYbiqK2YSv/39/wL//t3+Nn/nKz/LVr3yFf/l//ys+9+k3+LW/8TchL/it3/otZrMZVmlW6zV39w/ZNIGmrmPq6C/ROgRsiBP3i5fEf8MJcFlFXwehNBmrZUQ5J9Mx881F37TaOxdJ4G3L2WLO9976AZ/73OcopxO++/47XDQbdJ7xaH5G86d/wqgosUpHFXFjkNQR4Hw+52w15+joiEYJTjwqtwhQFAWffv11rCj+/Hvf5+Fixb3ju3zm9dd58+6rfPe9t7h4ekqR5bFiVAn37t3j3v2XaXBsmpr33/oBB8dHrOuKgKBFYmotXQt9eZgGzuxNXiCsVgTXktsc5xvapo3cYFehRzlttaCwwmbT8vDdd/Buw2c/9xnu37uL2yx4+OCHuLrm0cM1wS+ZTfejNANRKmW9qWnblodPHjOajnnt059hNN7jvXff5f2HTxllObPZjLqOryvLEtfGK7teb7BFQSnCwcEB3nvuv3yCtZqzt39Alse2RKvlEm0LXLWmrRtGRUnrGmziJYYQq0klJI29Dl27BfSCnTZ5MtzENRphvVqwt3+Ib9aIh0wH6naJCgW+Vewf76PUPlY1LFZzquWccjzCGnjy+IeQ2voUeU5eFFSbDU9PT2mbirwoIhd4Puf09JRN5djbP6YsS0IIzOdrNpXnzp1Djo5PyGzO2dma09NzVsuWLJ+gTckoH8UuJCEAOePxjCwfU9eG995/ymx/ymh/Ru1WrKoFOotI23K9JlMadWkCBugRdk1XsLS9Tjdjug4EllXqCn8FLQooq6Ngb1Zgs5yVc7RtoCxKDiYFplQUS8fUCpu2ZXX6mPW4YP/ll5lNx/z8l3+Wb33rD5gvHjIxSzaP5jxdP2Q2fQnvFFkxYlOtUNbz4NG7XCwWvPbqZ9l7+UvgDX/0J3/G/sGUYnxMU214PA+Mp68TCKyWa7Is49NvfAU9nvLtb3yDH77/lNF4imQZ86bl0Bzg8WiVM95/DSYnvP2DP+fthxv2Tj7PRbVmZEcE5Qm+IlcBG1qMbxgbTUVg0IvoE3uOvRiClh475EylJ7XEv1ljyIqSvekMEHKjOZ7NaIwls7G681u/98eczI75+Z/6OR7/tXf5na/9Nkd7M5qm4R/+D3+P1juapiYg2CLH5hlNU7FYbTi9/4TxbJ/yfBF1epTh6dkpT88u+Plf/AWUzZnszfjpn/4Z7rx0zM9/9Zfwdc0Pf/gebetZL1c41/L7X/89fv0//Dv8rd/4DV7/1Kt86QtfZDQZ862vfY3HTx7GVFLqg9a1IbKZxf0VblWi0hg8KwoVBcEHtFWxGblS+NbhvSc3lqIoWDmHyTKUMWzqigdPHjE73Ofo4JBPvfEZfvj0Eau6YllvqE5bCh3TFr6JpHWVmqJvmprz83N0keEloLPonGE0bYjXc2//gM++8QZ3D48YZTnHx8csmzXL+byvDBSEsiyZ7seS/ffee4+zs7NUwVv0aecYlYb+9+si7tvQo7MXGhZBvCOE1DRZecChtIfQAA6tAs16yfzslIPDPe69dITbXLBYBNq2Zn7xhM16QdPGXqeio7ZVQFGtVxSjCePxmOlsxsm9lwGwoihzC6JpXU1dRYmFpmnYbNY8efiQ6XTKSy/dYTKZMJvNCOJYLC+4uDhDSaxOZNBT1HufCkKSA9ZtcLfWOoRlEGylczZGYY3CGE1OIDNCVdfU9QItFdORIrOK2d4Y5yNq2dQbtBKsjx0knHMYY8iy2Ju2riustYzKHJsZivGEWRBGbkKWWWymqasWj5B7hcmK2AvZZuTlmIMjy95B/G6+3ZBlhs2m5uzsAgTKYspkukcIgZP7rzAe52Q5tC5nvdFU9ZLWeYL3ZPb5Tvb1Iug3yDqnrHfOtiuOsnChrQAAIABJREFUcHVdVhKwURAFQgW+RvsK7WukWbM+P+UsM+wXOWgoDvZ59eQe74czXHXGavOU5vwx5zwg+ChsW/uKcmpZ+Zoyt0yme1DsgYfPfvHLGOspbIZGsVmvOTs7Y3kxp2kMx8eHiB+BGnN0eB+tJ+RlgWiFr2ts3cKywkymFAd34fged8iQ6RFaCVoatK8Iy3M2pw9pXI3SYFMz9Rs/vn+B9kIOWi/HcMkL7lJs68USaht7PFY1GRppHdVyDWNF1Tp+52u/jQTHf/3f/nf823/9V/jdr/02mbGcL88YFRmZsegCggg2M+RlwbgsmExmtFUNRwcU775HaGrEtbz1/e/xjT/4fV770ueR+ZIvffUX+dKv/rughfDgEf/kN/8P/tU//79wdcX+JLYW+t3/9//hr/3yV3njq1/ljTc/DYdHvP07X+O3/uW/YH5+zthkiHisUXjf0rqYVnV/df2zD2Vd83djLSJC49qIQGUWUSo2TC4LsiqncY7l06dM9/Y4PDzkzTff5KLZUHvHYrUCwNs8Ev/rpieZ68xSakVRFH0TbKV13wz74uKCp6en7O3tce/4ZU6OT4CAwfD07DGn5+d9arRxjnGxx9HREYUqefLkCavVKla7deeTKqM+DtaTioNHRKO1wpj4D0LcRH2LJqCMZlOtePzoAaPScnj3DvPTR7h2g2tr6rpOTegDrg2xRVApBDSZsexNpuxNxmAse4cHjMsMrRRaYrUnTcX7777PcjUn1I6z86eMRiOm0wn7L5+wHwS8Z3V+zsXFGfP5BYf7E3KT09UTG5PkBSBpZT3v5APPawZ+c0w/8zyM1bFhPQ6tFdoIShz1ZkFTwXhsOZhNOdyb0VYb6vUKcQHfKEIbK95D29BWnjYFK0YpJmXBbDaFPGeS50wmZbyeqQtBtVpjrLDZbPqKWWs1djpiPB6jjImvbRegFfrpGWenLYhiPMpQoxGm3fDqK/fjzmIFwoRyoXn6NMp46JsMXf+4TBSiJOr9JW04pRRKfBw/71DisFqweOr1gqePHAeTnL3pDD0e89Kdl6hX7/P0yRyIXFDfrtGqoHUbNq7CiUIXhv3pmKOjCYwMNIov/MqvwmYZJTmKEh495nvf/CbVWY1Slk+dfAazdw8OD7hXHHBPomoCzoFveO87f4JcPCXbn5LfOYCjPcb7Y15//QTqTURsmjWL999m2czZNHOcMgSlCL7dFWX+xJ5rP5YqzmGgq4Aiz6lcC62H1YZcG3QAnGeURRTt8foJj959Hy7mHN+5w92jQ6rNhsJoxAeyPKPMM5wEvDiq1TqRlh1ffPPzsFqyWcw5nE3JbcZiccFb3/suF3/+ffb2DuIXcS3g0RIITU27XmEkcPH4MScnJ2QinD98yP7Bfiw6ODzEiPDW979PYTRlkUHjyIyNfAHf9oTmG21a4STs8Lt0Iu2fLy5iux8FOrN47QmNsFgtWWzW7B0cRC6bUn17J1vk5MYiRQEhyi2MRqN4rbRiPB5T1am9i4mfs1yvePjkMdPplPJ+wZRRbADcrpMUyxIXAmJ1LPlXRGdDNrjgU5m66SsPRaR3BNu2/Uu8uD95iw6pBwxKC0YpjNX40CLrZUQJgwflKbKMqqo5O3vK3v6Yg6MpRmmsNb1mWZYZ8jzH++joWhN7OSKayTiP6JyLPFBb5pEb1oaU6rd4X+N9DQSapmJTLWjaNaU+jCBRE3sybjZrBJ+avQvtck7Txuhaa1LXA0lOWMrVd+hDB4fegul3rfWoSySR++BomgoAoUXpKDoqwbFZLphNCkxqkG40sVm9Bhcck9EYbYj8n8Q71daQWY3pxtLY6ECx7dyglI/XH0dEYiXtEAYlIY57qCDT4BuCNFirsFbhQ03m1hG5LbKoxUWc/9bafr2wJv/YV4F01dZA2k9UbHYePG1Tw2aJq9dYFZiWOd45pF6xnp9jg2dK7Mk6zjPm1jDKLNYU+LqgyKdUdUvegOQNogN5oSlUiGNjbHS0Wg8+Ecg3Fe1qw2aZgt7GwfkF8WZU0ZFrXOptHTnoXjt0qQi06PU55CWURSJAezAFqijw1tIohUl7hfeerD/7T+yD7AVTnLEsfDvPdP9/EShshtKa5cU5f/Qv/jnv/OAdmuWSUhuMEzDCwf6M+cUZ/+x//Hsc7O+jCMzPTilsRp7nGJvU+5sGCUJhM8ZFiVKKJw8f8rv/6B/zg7ffodlsyEQxKQoev/8e//Q3f5PlYsXP/cLPcXhwxOnFGe+880P+8I//kGa55LX79+HoDk8ePeI777zD//I//X2++su/xEsv32P+O7/LP/sn/ye+rpiWBRZovUNbjZKA1qSN8WabMQYXPCR+j7IGGzKatuWH776LUorlekXdNtHpKXJq1/Lug/d5dH5KXafUc55HvkgINL5BEXkmddvEClilUvVXxTvvxOrbqqoYTSY4F2VV3nv4ANe2jIqS0DraumGxWLCsNihryIoc1dY0ruXBo0eEBw9omiamTK1BWxMLOCQ2shcJN5pf9mFMxMeIOynvexHatubi7DQ5qy0SGrRSZJmidUJVbTh/+pRHuaatN4hv0V27KBECHgkucsmsJFV/TVOtOXv6EHth8U4oRzkheOq6ZjweIyJczM/woSUvNFNKNpsVT548oq7rJLPRMp/Pcb6iLC0QcL7hwcN3E3WgBQLaBLx3KUWdCpFUVyjQLTa3YHB75Gz3XCItIfYpaesVy1WiILgaowVjwHtFtVmyWhRk1lJvNiCB3Baxi0bj8a6FEDA6qvYrRWwrVFeEcMqmbtHWorVKjlN0FDabDavViiLTEFqq9RzxNYhNraRApGU0MqxWCxaLFdp4jBUu5k+oqlVf0elcg9IRHa2bWAgEYEyGd81f6OX+q2YyQNBCCCgURilEHKHZsHz8gPVyA82akc3AaJpNQ70842y9pF6smM5yfF2hvEPpgASNrwOtVwQfMMohvsYFT6gVi9P32ZcMVGzn1WccBDbLJZMMXj6Oldu0a9qLJ2TtOnr/WuObWNyTTwrWF0+RpqLdrHj8/g+pnKDzgtneXiwSCg6LZ33xNFZtK4UojVfyCXr2EU2JF/E66ndntKiq5r/59b/DtGnJg8PrQGs0AU3uNUrA6bhwmhD7GirRPefJK2iAbFxS1TWZtczP5igv3D08omlbJLOYMuf89IKqWvPKycsE5zl9+pSDg/2ojZVnaK1pvcPjMQkd0Vozv7jgYLbHfBXLwZWKqbTFconJM9q2ZTydsNlsaJ1jf38fj7CaL0CE/fE0lZSXLNYrFqtl346kbWum4wm5tYS6xbeO0hoskauVZRntjyDZEHW6UlGFCtgAhe8KLgKtgZWNC+fU5Rgv1G2gmeW8XXj++t/9z9Cf+hQrk/WpvSGnSinVt6J6ViWU1QaXFsxs0EtRo3r+1nLZldrnsT1T4gvVrkUSCgZRRZwQ8K3DEHltEMWKtdaMJ5P4XdJm0LiWbFRGJ6t1ZMbERuhKIy7ykAA2dcV4PCYblaw2a0QpbJ6xXq9TdVATO1aMYhuULt3Ztm2PDF17/eNVeOHxUyLk0uCVplYTnDYoASOeImzQOMDSoGlMidJQtBvG/oKX9II7tiVzG+wLO/oBpR195V/QuKBjqlPlaG0ZjSecnZ31HSGqakPVbiKyWVikbXFtHYOPlHZWGLz3tCEkuRSLcxFZHY1GsWdn48nyHKWF1jdkWZyj63UVF+88xxjDxfmCyWSCUpoQorSCc4nnaC1aSZQCSMeq6zqleWK5f57nBHFJjiHsdE6QJIj6o8TgH4aDeBkp79NQWqibNeNxyXQ6piiKnvuICn1Lo+s/6TJylM6puxeT4xbSxj0ajcBoqs12rgbn8HWbrm90lJwLjEYFxmRR/iKtJVGfDpQyiPjoGKDxykSZIdX1dA09utE0TdKwUyA2tXSKX1ArizZCWSjWm/i5eVZgTIHvun1kOd47hIjGaQ0+NMlhEzJtkOD+kisyLzn7srteRN5rNz99arsV78eyqZl/+7uUTdvLhWxFltP1vKYwoDOd9svUMh2vFKINQWlEGdAGk2WIwGq+YDwaYbHU1TrKqWwa8mzCeJQTwhnrzRlGC1ZlhKZEMIgoTAGYikZagjYYM0PUHkFitinPbcxAeI/4gEGlnqoxcC/Ho3T2gjKaumli671JiTYxo1JMJhSTKctVjVcamwrLNEKmFco3hHqFdTWFFjIVMCIQ/Cdu2nNs+h//92RpLX3hFOf1nnB8rsgseZYTWsdyvsACe7Mpe+MRi6UgeRZFEIscaWs2y+ggHR8cUI5yqvUSiyUzGqszvEQ1et86Gu/ZH49RwTMyJumjVYzLkraKKveEgPGeg/EYFzxttUGU4s7+HpPRmM18iYSAX6+xrWNmM2xqEmwmo6TfMyC0ShRCzQuLD4lod4NNKYVP3IdAjK67HnmrzRog9rbsyfdxorZtQ9XUYA2iiB0GrEUbg1EaLfTpjNF43Kch27YlJAHM1vsobqmiEkDtHa2PE1a5rVCqKXIcQlNXeAWihLauUnpzu1l3/f06oUfv/XMdtNtgni1PS7REsCsovK9pmipqUykwWtG6CsFTZBatYLVcYHUkJmemQ74lvUdjJC7aWWZQ4qnrik2IY+Rqh2jBZDFdsVnFjT3LMpR42jpgRyMyq5HgaFPqmVD0RTZkmqapk6OzwRgNdOOmB5vdJbtFKU555jl2bfSE4FvaRqGNQXyDMQatwEtMPbqmQkLkLVmlEN8iAlaD8wGlJbZOQ1CiUBqCF5y0qMR9EgkpIArJSYfMKiS0OO/xjhT4xDltdIY2geAalBJya1DiCC4WN0hQVO2mpxughbb1kcebeHXe+6vV1R8jC2obWnhJPLQkWhukxbmWejVnNBphpQWnEGWxypFhqF1FCJpls6AsGsaFxTU1Wgt5YdI9o8kycBL151DQtktWqw1eIMtD7NIqumMpkJvUikspXNuidMO62tCG2A+5yISWFtUYCrEUogjrJVKtmQSNQ+MXCxRdX9BApgKFUZgg0NRkSpHlhuYWaVL+pO0j72Rbx+z6OFQLLFcrLhZzsizj+PCIcV6wOp9zfnoWEbFGUafo/eV7L1Gva1YX50ynU06fPGVaxsgxOI/zDi+CyeINZHXUeSlGIywZVoGvK1qrwTuOj48Q2WO5XKIkMC5LaqMjYlNXnK9WHE5mqaR8zng8xhaxoXuR2dh3M0Q9L41ilBexf2HwaJ3ROhd7Ht5QiwK1KbWVSPUdB020ji2ArGU8ie1jqqpKqJTBKEuRxfSoS6nEqLkYWw0FH/qNuOvL6CTgEYoyCmOG9ZqmbVE28p601lgdHTwSn6xDdZbrNetVRFNtkWNsxnQ6BReoN5u+I0HXDqp734e5BjfZpOdnCUrFljFaWaJOradpqoReaHwbA41ilGO0pq4C5bjE6LihdsiW93VEWJKTm+c5RsdqwSLPmGQjgvMRJSeQFfHeEBGm0zFV1bBer1GqZDotsdbivUUkjstm42hdg3MKHxrKvEwbuSYEaJpYwWmsGlRwDvlnN3zQPrRJCkDiGhR7pscKXfHgXU1uSxQKZcAqu63oJWoQahMAhYjHu4BSPqGOIITYx9MIKkDQASWC0p5MG3yU+0drQ5kZMBarTCweCQrBsalWjCdjtIqVnCHE7jEiiqqKa0VZRmS+rjcIkeogEhFy83H20IjoWdh5JgpTigSUj0T83IzQWew1YIIHDeNc4XNNkeUs1zVGQ5FnrJoN4j02gzY4lM0I3tG0awINZTGjyC2Zjsiozhp8qFAJORUfaNsNPiiKLGcyLSOw4Wq098wmJdZmrDcO1bbktaM0BS54vDcUkz3Qhk3dIGgyq6nrCh1gZGLf0KZtUQSybPwjZaA+bvYjQA3xJlNwRZlofzajlYBzDevVgmo+x6LI0LFSMDMUpgCgqdYoFJNRgWsqcqtRBCREpRSrY37ei8e3ET62SlFXa7TAxjUUuUXahmlZsFpcRFQFwHlq1xIGJ6qtoV6vMFqzNx5FXb+6IjjHfLOi9Z7xeBzdUNG0KRWoM0vT+h5pusnmvcdk8Yp4CaBVSqt4siI6TZu6ImxCn64JqeUPWiUEJ27mTdP0orfxeDEdqqB34kxmaZyjSc3Ps7wgiBBEEO8j7yF1Cuh4cbQNSivG0yhWK2lR3zQ1vmpixBkCvk3fK6GBWeo+cNutc9JEAsHXQJtSZJrMJPFX8ZEXaBSubQgCZW5p64ZW7W4RXYoRVOyR2tQoIDca8Y4muCRKHahDQ+1Uj1yu1gsUhtGoIKRNuGlTUUhaiZWC0agAJVhT9FxO5+NY2UyntJjaSW3GYyS+621y1ERfkwpLgROKUZn3z+WZiSK24iny2D4vsL3H+8skHjcoMY+tWbfpt/haHTmKPn6c1VEqV4LHBx+ru3VqQhQCwTla0YTUekSUx2aGut6kD4lVxK3bABqbQfCezWaV/h4/t3v9h+q5esstCnabfj0FkNAiEtBKuHO0nzqvdLqUMcNR+0BpMrw4xqMSZE61qciMQkKkCmhtUcHjcWQ2Br+hqQh4VEpVi67RqkEFQVKbRCOCkpixcG2kt2QKMgv16pyaiP5lATIMqmkxkeBCc1FFSRaiZE6oISOidL4KKAKjPGrfeVejtflEB+1D2k8kFxRCdLCgq/ZTcW2V6Natm4agY8Nto3VsE6N1Gu5oHadNA0G2msw6rdGdGPdQNT+kiiWjryJcXTUTRGcjkl5Dv8nkJnLcSrXln1xeSjp5kZvuoH2QDbkVSm35WoHoVOlOZ4yOU8GOkzYUyr0sDCsq8sQE0On4xsQ2Q91ntnUTD67iQ0iPApCacivZpjg7DlA3brddbiNqhSUnLD4DKQpHuou/e5fqTmfrQ3/IUM4iDOZZIM9tRE+H119ShbPowfXX14jRdWHd877PM57/GIfdarDehR+pb1lAdatph84BKnEaFakCOD3bKf5rpbeReCpm6Fdllbo+pGOYHSHv7ueBNuEtKLT6cZio7rpDnGPRCXdt7HFKAJ2K07RWGEWfqt528wkEJR2bcXD07d/jOh2rcAMacd0cjO8yxIC6n5YSj9R3d5Dt3qoIMYGkfETgJCbS4wIRHc++lZcERMeK7JAKfkRpwg3OQP1F2ws6aGnSSucg7S6ozjW9M6N0bN/Sb6hA8I6AImiNCrE1lFJqqxbek2wvbbQfIF7ZbyL+6gI/dNC01Yn8Gje0Lh1nbYYxhqrqyttv70Z/HUm3d6o6x9UkZIU4Ji4pu5tBGlEUUUJFDat6n+/Cdryx/net0n2yJU1HKY/0j+09oSU5YGH7GX2K52OihxavU1rkRPULq043eVc2sh3jDmKJG2oc58E1GizMMNC1f4YDZZXGp2rDOJ99cgxTmkan++NZt4HiA5zFDxq/mz++osKVAFB1u6EiOrrAsMvA0H40sc+wO/8HrfsgBWgyRFWJKVVlUseYS4W1A9FdCNGZe5apT/wz6YPPuHB2Y6FSu7yIXkckQqkYyGoNPcqhOmdnOwRxzUxBm+qKaLbFNJ0Dp0XTNrE4RyA2bVfbdV6pmOIOanf6qv6fpzEVSkedPC8CRNqPqMh53OmUoSRKtHTPye0HOH6c9uNB0HbalcQUWtDbDT5Wm0mEyPFkRbbtQiAqevZBEIkVUB+mIXn3/suPsEWArrwnPdoihxB1hWJLGUGCRzvVv/fZRRA3W4e+Q7vg6tl0gfmO83RZs0hFDTXY7SLxrOP2yFl/QK7wxERkJy3ZVXx2/y5b27bx89QWdRu+9lZo1T3PXhA9ifMk8V86hExt0bFhEPNMU4G29QQtz7n+H/D18R9tle7SgbdAoPaDh06l6yexT+ng/h860N1YfdTHwTdJBx06Z4OqxB6l275OhsH4lbHonDQZIHDxfK6e4cfbtkVN2+su4jGKWNbhPaiIc8YMhiIojRbBk/YrBKVkO77xwERMVNMj7DIIzvq+txZERV6ikvg7Cf1WEquAdUJUJaJecfPWBF3h0Ei6mQTVxxRBBKXCbizRD3Zaa0LKttzyJfrHZS/moO2sMkO0K3reXgSUQvqyc9LvPlYaWYsntgSK8z1GBiI+uemXj78d8S7dBbr38oePEPliz7YQ9bKUiveM0hAUQQTv4mIVHcTd+HV7jpcpnjfP+sSY9BSI/oyURNQTuj57g/cZHTWaugX4UiTdbwDPiaCDAptG0CM7yNcHIWAqJAS2S8HS6TjpHQch+NscomtC8Nc7U730SQxwLi+CWwqXTgv61Xt8yN/uQMrL93sIcQ5117yPwNP19364+XN1M//IjpZO99jND5A+jMVxS+lF2Z5vf/ZK0vjxkR/j2wfh5xUkjZRCj0hMTFsTKSsSiwriTXLdGMb37wbIV19nPuYprj6wESLqPJjIKkW60deK3NpuzQuiCRJimlNFtC0QETa0QXr5mZQLTe+PplNqO9KKou+tUEgHfsfq4fQ7noET1rVnEjwarCGQOJJpTdneM8O9O4Ed3bqsNEapqI/8iX0o+8gO2vXxkPTpDkkOVkjBX0DQKhLL40IhqODSDRLTMSrdNEO5hM56qHUwqB1a1sO7lx6fhaB1r3G+hQ6l0SqybIMQkdjoEO4ui0OfVCdO3M3eKHpYvduEB45aKtNAybbic4iW6H6CD94/+FnSzt69ZshjQMAPIuzuuj4LLetflwo/rkNYO8fu42AxntmS53v7CPyymA7RabzSWKa01zBZdf2bNcYQVea7p65c/+c7YB80VmqwqVw95u130qSHnXuPOv2qo5CtUmxn5rPXwesed2fY9dcxXn+5goSKCMqrPvjePfrWrgZYlx30az/242k9gikMCzkgoWdpUxVRBCE6aKlqpqOCBIlOUExB615nDUxfvdujZ6LQNgpTK4moVyyIS2t2op8MMx9BDfY/FVA6R0vXM7eDS7pUqhrsv6lLhSKCNR0CewuQ8L8oe+EU5/NSId0GHlIk4BN8GyQOlk+ERSXDpUOjlEGpD06RwAdwMK7hoEHnSqb7I0UoSkcYWOlEWtfEiqX+m13O0d18G0LM113HEEKf6jQMRF2DxDHVEcaMgPruP+jc9WfbkIOmhT6lOfz84e+6j/CI830A88hgYenP75ZXiill+uu/3WTNNnjtL0VaNIeId7qGvR5TP5EHKHXvtCdEZGdBDem+SIfrEJad67/7+ZftKr55+XXq0uPQbs9E7AHn/pkhV3Br+tJ4xkzFi21yWq5y3y7bdoPdfkYMZhPiKsPvPHDUBsHWrg3GTPQtGsEXs97xgiS8LBHskvQ3tmtanF6qd9ojUhWig6y6edyBBlFQXg/4Z9v7JD4flICqCCpWZTOcv/0Nqbbjq3ZBMaU0OmSokMUngorBuTL99+9Em9MLki+wDbpuOrjxF2kv5qANRCO3wnsxvRlUiAPcecziU458Oy2Nijde6CJviXBqbMJMynmnvUS2KFqE6WNrjM6u43TYazhsfdECgSyp8Pcf0uFGMb+XKlC7G1v6D/lQHJ0bYKlifud32D7nJV7jrgxcEdOR+Mh/UAl1UYM53UtzPce6jaarsr02U06MwkiTfWdtHzhjl8fitjtlncXKqhg2RD/1mvOWLqWQnNudCxX/6We8dWg9q6h3/HSKcsIgioqR+e7lvyalOeS87Ryd7Tpy6fHqDXXzF/ZhAWZ/yeSyY7Z1xHZtgOt/pHWoQx071PQZFICuk0Ho1kPfOwSqC14VEEKPxu3MwzS+27X1Ou7gVRzv1tml+/1qABK5ekPbFgqkQ4ikfUglnbqociBEHcLuDTrYwTGjxT04OmQiWTp+Er5QEPCIctu0dyDu2Vcjhr6gYfsnQbk4/WPgHBCJhYDxeIrrpq4Z3Pe3ffh/nPZCDlrXMy4oQIU03bt8c9Iw06BVks5QoEJIg+n7xV2znbuBCLv2f+B6JEaJSlWDISnMbx04RbxpvKRMvGydEQG8jn/PvB8Qo6X//O1nyq7zcDlavcFOmihwItdOku6cszzHe4/zPqqSp3JK3TlMAbIh5yvxU+ie69Bv2ElNdhaSPppOIqad9SToPkU6QGWg10LrYPdnYQi3wYl+toX+/qdPZXQ2SGeki+DTHO3e2zVqft41CnRjq3sEWTpeqShMzyJ8xvsvybQgKqHjkRfTuk3//TvU3KCi464VwXl6nGUgJ7D1bi6f982yjguodhyz7Tltg424e8pg/BTEdjkC1zrC19rA8VMB0Spu0r0sTdcxJHFAbbY9ZApQ47roQGJGhE46aUB9iI92hyO6TVc8H7W/HTZwvLrxuTLPdOKKASiMaBSxm0NsmZharam43klXIR8CKghegzE6OmmiiIutRmNRuJ4lHSU1MiDrPxelEO1BG3zC2jplBYVJslaRj92ZpP8NT0OpKPnRnQNIyoYlH6BPd0CHoF1iun6kq/pxthdMcW6dMWBnA4CY4lQI2kd/vxtLQ0KoBi6dEr3jDF1GxIbVmZ2ptEkFfT2C1jlnWjpSLX1JclAgLmnOECdCxIsCkthXaBNRgiuRbIxEb/zt9Qwl7+5atsETkoCtVbZPbUQh2dg3NAVWcUFnC8t/GOvSpx0SuuXDbR132Kba+o4F3fNq9/HjVhGkCYMVc+uodcmrLoUiquvVKj1nTA1kOK7YNRt8RybedZXjovysUkGtzMCZGqCeEkD5rZAuKqGh0v/cLymiBg56hxhEZOAmB0jRJN3z1zP+tsFMB0v7nahDXbfo0R2Pa445SDd9mG93hWMy4IxCmnAS10m6tTWtA5d4c7s/PwsZvI12GQ3tbLvm6Z3Xbq9JrGjvpC90SiFqlFVoBQ1uu38Rd6QIpgeUxPcKGi06VX+mtbKbQ5e/TY+Mp0B84Ej3mmhK+rv1uhTlMJgW1d0v4dLj5WvziX2QvZCDFm+nwUWX3b9orREikhbBmk4QNioNt0F2j9bPab0rFt4jYdvPMtI1aI+PxIxqv0f0oqmyRdSiqGZ8nQmzxvyeAAAgAElEQVRglNqSHIWt/lrH6umKzy6vg7ccne8npk9OtdF9P01I8imdpILsIpw7EheDXplbOtG2+EO0Sr9vnbz0hisaaZftOoe9/w4fsPv0mflbNoZhMF+AeP0FJHVnkEQqjtWuGhU6SZNnIMPS0Qg66Wjp/7gd8+QsXfOoTSzbj9Vh8fmuWTcSMLnp/35ZcKlLX+9aRASeVx18Y2wnmNVpYep+HgRC/WtD2vxC/x6tTLqJX8TRScE1est1oqOUpP8+YB5ps0Xcdo4cuiDggxzIj7ddXqdEdUBFqtTsswMKlMarWIHZZRAue9l68FxijfbL7nAf7F4h4lB4tISU4dAkVxAlpj+YkQEQI1udYsUWYb1q1wUBHyfH/MdrL+CgPfsidzpLSiRhUgkpkchj6HglVwZ4mxWLN2egr/gb3swdMmbSVzDpb73udXLouptym0rYvUmVKIZU1c5f7OL9LQH6WWcfbvQm/0F8rf7vIaEbSbhQBUEFidA4kv5On6bs0ZrBdQu7Bx4+9O/pnbQPcNAup0au13f6ONhuxH3Z0dpNMZrecZIwQL1f9JOFOEF7BOjqo/RKpLLzvEpVHp3jtp1flp1Ia2hddA8MJSdutrl083ZO59BRY/eGHjpnvVD3c2QqVELcnvn3/n9sV7yP9thV2g8r7iWt+R8UYH1icZzjXjREnQCik2ayuD9KUDH/lPRB47QKaHNNoJIoAxoPPbHs8joBSGxeL4TEIVNA6tUqae0f3ot0osaD7/pMikF3/z7v/G9BkPUXaC9cxXkditEjVmmDiGRwSYGh7nW1njeBo1yDJOfr6ocY6ciMunfIuiVs6Jh136UnOrN1rnwIO86X3pYpRodD9fHLJYuRib/h688HOTSZiTyS2A7L4VBbzokIyqier9KnKVVMEkuQ9HO06xzZK8BkXyzywXIZQzmPy48fN7vsrnSLvPc+FXhotInbeQixtVnwQma6hftySqxDV7pRDT2PaKemhuc7ekMOS89N6tPqmta1gxRodNx6vtpzgaFnpY1umA3TtfhLjppmQPBJr93lGV7xU3cmQLj683CsRBN5SV3aYUBmTylpreyl5y8/DlDPy4+f2Afa5b0zEYPiL4pUJBcRMy/Q6dFJEgHNuF5GXV2Zz9c56jE92tMcZIiUp2xXTzobUAvS3idowjNS5du1fvcG3QbW+trz/8SebR/ZQeucnr4S6VLaT0FSFE5P6jj4nhCHXiQ5bt1ghcF7uw0Cnl2MvcW4ugxJp9PSOWlD3a3uNV6nvyuNymyfw79cPaOBTqbruk4FN905g6upicumtd6W2ieUTAVihEXnhG+dKUNMWXbbuu+OnzblvoJ2ICRrSGk40jHjC+Lr0hh2bkSvtZa+3/D38DGc7LvMpWFhwDXVYjJ8V3elf7IXre9leykQ2ykqoRvu3QrQToPrqt1wp+xFTbYb95ZzpJ5xNQZO9xWdshSeKuKFjz+kCdjdJx160v1+/WPCzBL6MhjrT9CzD7QIInRXcGtdsRti8T4WhihsTGuKBaPQGDQBcdU1R77qmKvrikbUFg8d6E0NUDEVpTjo9sSQUp/095RIklsaZDB2mk58cgv82OxH1kEb5r97S734QkLbe6E7HfWbQvpYNXB8+rdKx1sbLtRdLjx+otfRk/cqOkxOb28UHTNvPdIi6TX9PyKyJyly6F433Pw7kmPniA4fb7P1VZTOQ4gT0GrToxvqUgqyd4YH1lX7dT8PBW77JIlEpA0V2Q+9cxYidnM5CLj8/YZj9Yx6h3geL3gdboKFwfTo9tb4i0aljg+ISot9eoEyGBPDpeutu7LdgbcVeNHihwYuPX3ZTMdp2k2MdDCcsrsUh05XS3oW6KUFRYaI9s2mFwBbZ7qvSIUtB22Lg+wUbQx+VnRBz6U7/PJ12SGF76IronRcA1VKWamY7hIlUQeyJ/ZefZSea7brAGy5vLe5k8ePy0LaC+NYpPgXrxVeTKIH2XjdlUlrpYnQRKIRdcfZGYVrkO3h/ho/J3YdCEon1qGl6zKw1WELiZUW1ReU6n7rUDTdB9Ba7TDSr4YP3ef/iPSKj6P9SFWcz4ppY3un2OfSd1RUpWKaTBm86O3mOkhDbtflrsNAV8m1zaX7FPj5FPw5Qy+30RUImMsOmt46aABL1/T8tc6p04P3GGN2cIZeVXmA1t1keyaClp7u+mIqpciM2XLMfIjl3YPjdOnhWJ5N+nmAfKmtIzdE3zpAR6WIPjrJyZljkJ5O13qIlPWOmmy3nZ1Ijt3v8fGwLcnc2pwQAs65KDpMjI2stWgd8M5fmruXF9TrHLPhzwMH7poUWJcik6DiZi2xclsSlJpleUySdCjsAB3qOInPPc+bPKqiQVl2qsT76x2r7yR1M9k6ZQOxaAStfHLj+pnGh0VF46t0RGWQ9H26z4oTKDr3XRHV5cdU3JPW+M5JU6ncTymFBP3JZvxcGzSr7500he8KAoxFK42X5DSje9FaG4RRx9kESClHze7apyCR+3UK5rZBU8D0WGtAIcoiytAtyHEOJjdMHJqAwUfeqIIogqP6/dRfRu7VLg/5E3tx66+s8JyN+zob6BNF/ZZtiwnXBozNmR0cYrOCJgitwPlyxdOLc84Xc5ZVxflyyflyReM8jXPUrSOgsXmJE9DGoIwFbRBjqX0Aa6mBhXec1hvmTcPpZs3pes1FU/Pn77/He0+e0CjFoq5plOJsuWJ8cMCD01NWbcvCO37w9DEyKgllwVoCejTCaY0qClqBBhXTokYRjBCM4Kzg9c1feOJGrcmyDK01bd2gUUzHY8o8p95sIARGRYESWC2W1JsK37TMzy8wxpBlGVkWBX+bpsE5h0aR24zcZrimwTUNwXlym1Gt1uxNpmgUVhvGZcm4LFnOF1hRhKYFEVxqhN7UNZnSFNrS1g2ZMexNp2igWq1ZXsxpmwardNTQSuXk9aa6Ulhy20ySU9u4ltY78jzHWhvlUZQm+NhXVmlDXpQYY6k2DYvlmrpuaRpHCGBMhrV5dKhEozBoZVEqcs68D2htqOsWpQxHR3dwLnBxsSAvRkxmewiaxnk2VUPVtKAM2mY4L4nNoml9QJuMvBwRUCxXFecXS1abCm0zlLHUbbyHRqMRQYUkthn/RV7Mdr256aaDQYes/4dkIBbBxsdgaRpoWkCVGDNBGONDiYSc4DU+QBAV/yF4CfgQm6hoa9DWRCdKReFpn2RzjLFUVYP30bHzPtA0bURaE8hpbUZRlOR50d8LWhuszTAmj/PfFmS26AsFQoAQtsHdtZpsXQT9cTYVQDyC3wmiIkpmCGI4W6xogyIbTamcMF9XeJXRBkMTNErb2G7JZLFiWhu8pHaKxoKJHXJaF3DBo2xGG4SqdaisoA0ZlbdUIWcjOSHfI9u7wzJkhGKPi0ZR6xKXjalUydrBslXUQVMFDVmBGU2oRVjUNR6DzsqIyiodM2japKzToMeyJDrMJ/ah7YVTnHA1PdlZ28Zel60EFtWaYlTyxuc/xxe++CVee+01tLY0Tcuj9x7wp9/+Nt//7nfZLJYYBb5pGWuD0pZWhLptATCZRjJLrUDKjM9/9rN84ae+xMlrr9AJpBpjWF3M2Vws+PPvfZ93fvAWzjkWbcUv/vIv8bf/k/+I0WxK1TZk2uDbQL1a8v0/+w7f/MM/phHPeDSl9W4nNu2oGkDPabsNRMeeQzaU0QiByWTCbDLl3r17TEdjqqqibVvqquLs/Jwmva5rbK606lFT7zy2KMiM7ZE3DeTacDjbY3804fTRI3wbW40UNuOlu3cp84L96QylFOv1modPHlNVFdoYJuUI1zjON2e4uuHf+uIXyfOcUVESEC4uLuL3ahoO8pymaXaQtRuOuVyxKJchaB0dK5G4MXovaAWzgxmT2ZSyHBOCi1G4eJbrFYv5GXUVeYXexX3UoMAYCAoXBKM0XiIC5sVgdEY5njKb7rNcV2zaBsEkJzBjNp0wmowZFSWjyZhHDx4SBHwKuLxz1HjK3JIXY5T2vHx8zN7elLZtOT89o20czrWcnp5SlvngbIdI0W1wt1Nac9g1oEMQU8rT2EQBUYYsn5DnBTNbUJYlRak5P3sXL2va2tH6BoJHdOgP0zYN6CgsLcpEWY4EkAUUmS2wpiDLCkajgvF4itawWKy4uDijrjx5riiKEXlWIqJisZALOFdjrMFaizEG50ycb+ISFWKI7nxi11vHwYyOlGhNdNkUXikm0wNMMWIyPeTuvU8xGk3I8xzXBqw4fvCtP2JTbRDfkpUZ1sYUqA9t1K/0AWstKssJaJy2hExTTguO75xwvqg4W6wRgbyccOf+faazfWabmr29PfI8IrzNesXi9CGrizNctUJcTXCOeRPw9YbMFJy8/gr37txlOV/w8P13qesNRsfbzWqN1p1Opo/ahld08j6x59lHXvG6FJ9c/n2Q+jNZHlGwIDGSNhZTlJjxmBpoCZwtL1hslqzqDReLOV7B/vExs/296BhlOWIsJi+gLAhFDmVJawxn1QafZYyPj5A8Z942LL2jEUFlOSevvsb5fMGjp6fMV2tOz+eMxlNefuU1Gh94dH7OWgIXmzXl3h7FbMbT+RzRhoPD4yvnJOye3023LqIJzvcp3Q4JEx9wTYtVmulozMH+PkeHh+zNZuQ2Q0Kgqirquu6jZZvQqy5CEucxSmO1ibnJ2lFgOBzPeOXuPSZ5ibSOzXIFPjAtRkxHcYMflyNGRUmuDJv5ks18SWEzCpsxKUpefeUVFhdzCEJhs/49wXtWy2UMDq6x27C1D61rWq+UwkmgTU6z1pqzi3ly1ixBFNpkTKZ75FnJal2hTUYQaFxIUfaWVxJQKJOhbRbROFHYomQ622fv8IjZ3gGCZbXxnJ2vuVjUBMkYTQ45OLzH/uE97p18itHkEB8sjdMYO0ZUQes0Lmjeff8RrYdiNENUhgtCVpSUozHadm0ohohZuPT7DbedzgFd9ebWcWubQNt66lZom4B3CsGizQibjclHY5TJCKJoXMD56EgLFi8awRAwoDKUKdCmAJ2BsngxrKuWKjnP+WjMeLZPOZ2hbU7jA60XGh8QZRhNZ+wfHjOe7YG2NAl5K4oR0+keZTnGmKx3OK82SofLbMRPDEASohk5vkFUQkUNi1XFetPStEI53mM83UeUBQwSDHfunJAXYxoHrevmbpSED8rSdE6ZzXDaUHlNIxY72md69xVOXnkDm8/YOMPGgS5mhHyCKvfQkwPWwdCqArElrSpZNYFVHWiDQRUj7GjGRjQrJ+higpnso4oSXU7YO7hD68CHlITXUUvTKv0JgPoC9sIIWociKXZj2wCMJhMcgbPzOcV0zE9/5Sv8jV//D3jpyz8NTQPHx3z6fA7Ar3z3e/yv//Af86+/+U0WqxXr9ZrJqCC2hHHkoxJRsG5qbJ7RSMBOJrz65qf56q/+O3B0CMsllGV0BtYVVA0vff33eeett8myjFfv3+fLX/4yx7/w89xfXMDBPriWSGYT1ss1WVGw2Wx49OjRVq6DLpe/vbFuw/3VIWfee4yJ0bBvW4IP5GXJS8d3uHPnDneOj+PfteFgb5/92R7KaM6/851IWk2Tr4ewtaYsCuq6RouglaB8wGpLnhccTGeMyxHfbR3tusIqzfHxHd58/dNYa8lMvB39/gGHsz2KLOPhw4dUixWNa8myjMlxyRtvvMF0OsVg0GjuHh2jlOL7TcumrrBZ1lfeXual3QaLKaUYiQ5TTMYYRqMJr772OkfHxzAq43wzBoqS/bv3ODo64s++822UsQTnU5oMCF3rHosPEXkRhCAaqzPK0ZTReEaWnzOa7JHnOY1qKLTmzksvc3LvhKIswVruFhPqNjC/WKFCS1aUeO9p2xajDb/wC7/CyckJRW5Zr+qBw+JTP9xhNWJHdO+e7+y2uNxXkcEsy9CZIs/GTGcHjEd7mKyMiKkOTGf7aONxrWCDx/so1dGGeF/keZmO7FFBRcq+JHmhYNjfnzEZ7zOb7TEajyDLAeHg4JA8z3n06DFt29C2DmtyJtMZZmNYLSuCB++ELMsZjcaICKvVihDYkVK5FY70T8h6qTElyaFV0aER0MZy994R9195nYO7J3B4BwKY9QaKEUhDOTJocTFtjYCOe2VQCpNlkedtcrwXnAjBJ/GMbAyTfWwmNC7+y7KSuyevwXTKzAsc7FPO5zAuwDVYa6k2K+ZNhYhCZwVPz+aUe/ucvHSPk9dfg3JMuJizrltCW6cioOiUS9cmrNdW63bQ2zJ/f7L2Qg7asNXO0EmDuBm23lH5FtGGL/zUT/Pv/dqv8dLP/Ay0Dd/8+u/y6P0H7I1HfOVnf47x4R6HLx2hrELEcPjSnbjBa03VNFHyQSvWwTO2IzyR1JrlBQi896+/xTe+8Q2MMRTGMtIZ1gUeP3jEar4kM5Z1teEPvvZ7HH/n+0iZceFbxGj+5q/9OnjH22+/TZbl6BD5UV1VmU7E9u6eui2thTqkpXOsMmNwTQMiTCYTPve5zzFKDu/Tx08Q5zk5OWFvPGVvOqMsSxyCSQ6Ca9u4+ZrUpbGNnQgMkQ+VZ5oiK5gVI8qipNDRGdubTnn15GXulvs8XV/w5OIpbduyv7/P/cN7ZJ+zSOt58Oghygdme2MO9w84nh6xrJecLhaYzHK4f8hrr72Gc4633nkb5293FVkbPFpDEI1Ozey11uTFmP3DA47u3CG4QHV63iOdSil0ZsmyDJPnqGAQ7amdw7cO70NEP5WhdS06s5HT5APGELktNkd0RtMEbJZRjkbMZjPuvvQqxWTGaj5nsTjl7t27zPbucHhUc3FxEYt5fIPNco6Pj3nzC19is1rx4OEjHj85Z7mucX5DbqNzQid02ztnccPXHeH5ppsKfQud7XPQOaGt85isZDQq2N/fx472wAnrdUWzWnFwXFCEESMXhaHbtsW5luA9QQQfdKIrxGNGGkKs2pSg2Z/NonM2mdHWG9bnC5QS9vYOmN15mbp2nJ4+oWnifUFWkHsfkTJUj85aW6B11WsmarXVy7vebkua+sdgKgCmF3KP0hUaYyxNK8z2jyCfwPmcxeNT2rbl6OQ+BAdOobOSvJziQk0bHLVPe3BQeBJdQQSvLBiDIkOKKYz2QOpYAJaXlOUYZvvgHKenF3A+Z7NZUeQGE1rWF6c45zA6wzdrNss108M7vPLmZ7l7dMz/z96bPVuSXed9vz1k5hnvWHN1VQ8AMQgARWIiQJmmbUm0FEGJlocX+x9whGU/2I7w36EH2xH2u0xbliMkhsIRtAgCHMSgIIIEGmiAjUYPVdV1q+585hz24Ie9czinblU3upsAq7pWRNW5Z8o8mXta+1vf+lZelszePeDo6IylDfSIvtYIZ/HeYK3BeYcSvpEXeW7v3z4wglajEptDLjhtIXNz/9IlvvzVr3Dt+nW+/0d/yL/+5jf4nd/5HV64fhVbVrxy+0Vu3XyBk4eHTOYzUpWi0oSDw4ds7+0yWSyY2worYFGUVEpzNjnn05/+BVSacH56yu/+7u/y27/921RVxUAl7I+32c4GyMqSCMX1y1e4d+8ef/TNb3Hn3l3UqM+5M/zSV77E1774ZU4OHvKD771KMV8yTDKcMSgnkSKI5YoaRiOiMc8AIlOjXW2x5PC3Vor9nV1GgyFn52ccvHufe/fuYYqSS5cukSUph2cnJP0eVVlgIgLXlHkyFisNaZKgCAibzUuoLEiLMA4qSxKd6WF/wLA/oMTw5us/5p133qEoCrZHY37xl3+J/f199nd3OTs7I01Tbly7zq2bN3n77pu88847HB0dodOU27dv88onP8H+/j4HBwdYa5/pqaDO6KothDsFg8GAvb09EIrj40MOj04oy5KyCiHpbNBnf3+fqrRYV2GNj2RxGfhKcSSrVJNlfQpRUJYlRRU1r0QIZS2WBVoP0CpwmbyTTE4mvPHGG9y9e5evf/3rbG9vs7d7meWiYLlc4qxgZ3uHV17+BU6Pz7l37x6HB/cxtkCKWGtSK7J+RrFc0CjtA22IE4iaTE/vGPSxdJ1rqTii5aN5NJUr0TJFJRKLoZpPODufc3Y2JS9mXFkM8G4ZHbNAMg8c3JQkCc5ZPHAIL2kdwmjOYZ1nPl8ghGa5zJnNZkynU7IswznYuRSceCEU1ppOJYo6Q1jjbBnGvJR4J3CuJYI7Jzo6WBchacEx+fiaQ0iPsz4IuougG2kdiESj04ybN19CXb4G53Pu37nHnbfepswrbp1MKRYzhpmjWE3I8wLjDZ4qSKPIhMrJgCzoBOEFCoWxOiBmPgGZgV3ivSdNEqxxUJY8PDzkrTv3OJtOmM+nCFshbUlPeXazhHEmcVJSFQUv3n6Jqy+8jKkKXn/9xzy4dxfpDP1EkuoUpA9IeJ0v4j0hACtiOPdpHr8/W/tADpoXUUjvkUydoL+U9vrMpxPGgwEvvfIJnIA//fa/5e67B3zqs5+hXM4p8yU/fvPHHB4+YNgbotOEoqhYnp3yy1/6Ml/+6lfIjaX0lhKHVxqpFd/+9rd5/bUfMDufsXPlOr/2a79OrzdgkPU4fXDIajLj/OCQk3cf4I0lFQnaK1I0O/0thvt7TA8P+OqXvsqg1+PP33qb1XxFP0nZHo5C6pQH6VsnrRVajSyYZ6CD1fylbqmWJEnY3d0lJeXo6Ih3330XW4asyrOTU1Ktcc6i+jERxDpGoxG7OzuBxxY5bYM0QwkJ1vHw4UPKosBUFa4yoBNWswVVUaKEZNjvo1G4mDSwNRxRrHKWszk3rl5jd3sHCSyWqxCSM5YsCZlkvV6PvCw5Ojri9ksvsrW19RgOzLNldZJAnRyDD6HmLMsYb21xfHTI3Xfv8fDBUVi40ySEGG3QpatiuNE56PV67OzsMBgMwEuMMSRJQpr2mE6nnJ6ehiy/IMwEUjIa7tDrDZBS41yQApBSkySBeG6MQ6kEawPq471gOByzs7NHtr2P1EuuXHUMBgO8r7BVznR6RLGaslis0GuhzNqR6b72lC/wdTHpjnRGeB4ct8Gwx/bWiN29LZCK87MFk+kJZWlIEsXp6SlKhNWvTtbRWpP0ErIsi85WdLwjDcE13NESgWKxDMhXVVX0+kNGoxFSJeSLFau8pDIOrVPSrA/owCX2gjTtUaxCQW5o+axNJYjn9p4WcGEbtMSa6ilBgirRGXs3bkBlefP1Nzh6cMRsMseUlsn5jNOjA164uoOzDmMspTVk/YTd3X36WyOEVngkMs3AK4rScXI2Z3U2ozABtq2WS2xRINMe3hroZ1y9fIUk7TNbzDGmxJoCu5hSzM+QxRwtPIlM0VkPh8arhCxJ2L92k+FwiLAV87NjZqeHSC3Bh+2eEAIlZcjC9vA8SeCnMw3rGYrQOiRPdkLahbBbrNkLmC0WLPIVN0cjdl68TT4549vf/jaH5+d84Qufo5+8wK0XbjAejljNF8zPZxwfHnH44CF2seIzX/gcX/utfwCjMayWgIBeipvNmMxm/Oi736dYliATPvHKp3jxhRfRL9xg9eM3ePOHr5N4wf/7L36Ht19/ncIUzFdztve2GfQzMBUv37zJr339a+STOa//4PtUyyWph0xqZsspmdQI4YLGV62evKbM/fQ7AbXmWFf0NZGK4WBAScnJ0THFcsULN24yHo8p8xylFKOtLX7y7t2gNac1V/b2+eQnP8mWHmMxWFeRyoQERWFylJQcHh5SlmUIQ2cZKtGoRDc7+8IUnM+mrFareI5xgwz0+/0myzTLMsa9Ed+78z3OTk5RSqGEYDmfY8qK3fEuWq/vObpI77NhITOq3ok2YqFChGuvF2clSfs9+v0+u/v7ZFkWF1E4PHyANR6lYGd7j5duvczw8mVAQJkHrYYkof/wkDwvsNU0IHYeBApjDIvFKvLKLNvbu+zu7vLCC7cZjbYYj7cRQjGZzJhMZuzt7bG3d4l+fwhVhZCaK5evce36dRCG1fSM+weKw4eG1WKCzmImoBdR9LKVxXwm2U2iLp0Trm6xmNEfjKMMQ8l8OaMsDb1Bn/29LbxfIKmw1rJarcjznNAvEpTscfnq7bbjy7BYVvmSqTjHuwV5nrPKp5SFIcsydnYus7OzjbWW8/NT5vOwSPf7wdkDgTEmVIHRGi9ELNwdUXgvQz8UoeZy47xRF+0W8dnTP292Zkwu1p/b7J3r1+wEKKFwUW/O+1DfGCdIkGglYDDAnZ9x5+AOSiXc+uSLDHp9bt98gcOHl5C+pCxmuMkp1WpBf3ubmy9/kuTaC5BmYfz2eiHcMznHvnWH2bLAqbDBSkYj+v0+lReslouQadDP2BuP2bMGqhJSCfMZD956nXtvnDObTdgbDxnuX+P2K5+B3WtQFly7plEvp6AFPHiXo/t3ePMvv48XoJUGEZLIcALvqvcIgT+3TdNELkSQkwi52HXWYrfvNYr7HpTb4IJEJM3JkE0y2Bqz8pZZHgj7D49OWOYFn/nUZ3nlFz6F95b/6h//44BWGcvhT97if/tf/ldWZUnS6/Ojv/wxN/74T1iWBb3xECcFs3wJQvCj117j9gsvUi1Kvv+tPyYd9KlwDO7eZW9vj8/9xt+GskT0FP/zP/kn3J+doEcpi3LB1vaQo7NTfvVv/QqDwYjXvvenvPHaD1HOMer1MMUS4asgqyF8QGilD9cq2+Lv2KeXSyE8OOuwVUU/yzBlhSkDumWqinFvhDElqVAMen1MWfLLn/2bWAx9Et4+fpdhklImKdZaitmch+/cZZIGaQTZIa4rpVguF6yKVVhspGdpClZVicpSTiZn7E7O2d+7zFd+5au889bb+MiDu3XrFlqn3H9wwGKxYHd3l/F4zMrk2MrgrWM03iKzGcenJ8znc67sX6Xf7zNfLmK9VdckM9S/yTiLeMp3cM7KqGUH3glKa4K+vxSQpBwcHVIZQ288ZGdnj+sv3GJ3by/wyLzDWsfJ0THSw2K24uDefbaXK1xlSFU4Yr4AACAASURBVHoZvSSlNI7zk3NW8xwsDLIhpH1WiyVaa0pbkiQJ9x/e58atGyRbQ/a2xuzs7yCThNn5OSgYbY+wWIQWbO9tQ5oiXcXRyTFVmbO3t8tge4/r3pMvV+SLFfgUvCEUXfdI72K9Tv/UI9cAjehrN/Ooc11VVa1V4bAmoKTDwRb7e1dRWQV4qmLGvXv3WBZlCDfbhKLUzKcOU/nAFZOgkxCGrGxQj5fKk2aC7e0d9qPzPp9Pmc0WGGOoTEWaaYwt8d4izJLBsM/JCaxWK5ASYz2oBJX0Q7apcYzSHiIqzwfrutNRWuKZcK+jTIpnI3HF8YhAr3/0e4Ur8UKjVILyCkGQyRBSIJ0FZZgXUypVYlPP+IUtbly9BuMxVy4nICT58QNmd3KWD6bMJzPytx9yPd9md2dEZQzWzRFqyXI14ejskEUxZU9eCf1MKfI8p3SO3atXuf/DH3Dt9m1k1mOVl5yeHTPq9xilKdc+/XmU8Ry9e5eqyOkNL4Efg9/GLs9ZLDV+smScpci921wWfWanMybH96lMRX/Yw5ZzyiInkSFEbp+FLvAzsgZuaPpRZ6LYJOS2xcjrog/xc7QbNi/gweFDrICdnR3oZQwGgWt0fn7O9OycnUv7fO9P/hTpPJ//xb9J1h9QGcdqVVBpy+npKa+++irvPjhAZSlOhizO3Uv7nBwdk5SCb33jW3zzm98ErRhuj6gw3HrxRf7b/+6/IV/MufWpV/ilX/kKf/yNb3B9f4/VbE5ZKrSEX/7C52Gx4MG9e5SLFcKGBb8WYG3IjNE588JjY0HngNCKpzpRIFFR/oJWQFBrHfSvCLyyqqpwcdd8ePqQhw8f8omXX2FrFOQ2hPNUecFyviDv9bFFSVEUVFUV0DkpSJKE0/MzZosFKtFBmylJYsUYQV6WHJ+ecP36dXaHOww+/3kSFKUrGcqMSblgtlggVBDeRAoGetCEdYwxGBtCPdZacps30h9dFlqtZ3dxid+nz2pB0Vr9XcqoQB9Lc/QHGcsix1aWyhrOJxOWZcVwOGRnPMJVnmK5oqpC1mSmM9I0Jc9L5GwWQ5SCoqhwpqSqKsp8CTHhQClBqlKuXLnC1atXuXTpEsVsxmKxwFpLv99nMBhw+fJlzs/PqaqQgauUwixn/OXrP2EyDULD5+d7vHj7Br00ZdDfwjuFCPtGJBLvK2K59zj2noUQSV1BoM1U7fLqQiWT9hpr7qutgqhsOT9jvJWFxJA0DVzPyDtLkozlosDZWmBWYIyjrHJm8ymL5Tmp9mS9QBGoszAXiwVFUbSEfymDTItz+Mo2lWGk1DgTnHxvLda7NZ6bdT7+9uCchWfugudPs9WcvPo6BOvl0zoOal1ho2NCxRCgB+E83hoECdJZhAubyvF4zM6lfearJWfTCUIr9pxBGEfWz1BZQtLPMDiKsmCZG05OlpyfHVBVBk9Of1QhZI4plnhThQQD4aHM0amiKCxnZ2ccHJ/x43fewiFRvZTdrV2ObMXeaMTt4afoDYZYEZz70XgbZyXndx/w1ptvsJico3Hsb/V5+YVrpAqGg20W6hRblJjKBXFyHaJSIfP0Kaco/AztQwnVPmoB0u5lKfMypyxz5g8O2Blv8bnPfY4/+/Pv8KPXfsjR+Sn//P/5Z3zi9kv8T//D/4iwQZJhd2eLfr/P3/rVr/G3//P/DAYDWg0dh5lO+Gf/9P/i9//V7/HS7Vts7Wzz2ut/yWI2Z2Vyjo6O+ObvfQMp4Tf/0T/i0u5eo4uVJSl5vgyE8r/xOe6/+Rav//A1rCnpxdqAjuCE1TXlHC3ZNlSmCWEX+ZR3MKk1zhhoilaLSAwWzOdztoYjtna2KcuS09NTvve97zGbzbhy5QqX9i9TVGXIJEw0O3u7vPjyy1we7QNQUZGgKQgL+1vvvIN99x6rsqC0BqqcpBfCbXlVcu/BAUoprl25GhIOPAyHQ3rjLDhWKtSWPD0/4/D4iNtXXmBrZ5vz83NmizkiTmaj0QhoOTld+6kqZDxNJmJ/jA6atRaKnO3tbSazBeeTGXlecHwSkyxu3GBr8DL9QUa/3yNNHf1+j1u3brJ3/RoUQeAUqcBUnJ6eIYTj9PQM8JBqdna3ODw+AiXZ3g73vT/s8/abb3Lv3j2UUgyHQz796U8zHg9RSrBcFgjhcc4wny85OjpisViQ5yusLbm0v81osEeSKowpgSRy69pLfRbcsve24Ni00inBIUrTFCGWzBdTHjwwaF2SpIIsSxok1XoLokJpw5Wr24SpPWTwISzlckqSWtJMUK6W7Iy3GY22KMuS2XTOalXinQxSHrYMToVQeFsL6Yq4MQ9zX/h9YX5USiGkRwtJ1anF++y31wcw4ZBSBJTRuijgGmprCiewFjidIpI+w2yLw8Mpb5zepd8/5uaVa/SylE++fBNXOlxVIpxlZ2vEp3/hRXZf+Dwk21A5qKagZmCnKFFSrvKgTF1WeGtJehmJEKh+j57ucbZYcHj4EN3PKMuSxWKGvXyF28ln6G8NcALyqsQLh9SO2dEpD9+9w2J2TqYFohxzZbdPujWg38/QicTkFuscUsQ+Ao3UznN7f/aROWjd2mK7u7ssDu5zePCA77/6Kl/7e3+f3/oH/5DT01O+/9qr7F6+xGQOn3jlFa7cfpGHP34jcNGmM84Ojzk5PCK/d5+klzGdz3Dek40GzJdLZqfn7O7s8Bt/9+/wpa9+lX/6f/4f/P4ffZNBL+XK1iW2t0YB3fKehw8P2BqNmZydsTPaoqgqfvEXfxGyjFdffZW33nqLJEnoZT18FYjT1lpUqmM9sk6c1/mAUDe1A59ek1JiXCjjU4f/lFJU1nB0dESqNC+++CK9NOMv/uIvWK1WXL16la2tLRblCqEVOk0wxlBaw3wZETIXxG6TJIkkdMeqyDHeIeN30iTDEuotCiXJixVv3nmH+w8eoCPB/8tf/BJn6YzD4yOm81n4XL7ibDIhx3Ljxg3Ozs44OTkh7WVcuXaN3f09KmfJywJXO2RRl6lJhKANGz3d5pusvFi6HO8c5WrFbHrGpb3dwDNarTifzHCrFVs72zFb11IUOcaWADhvKKsVlCvKKugeyWyAqwyVCZ+rTE5eLKFcYkwV62oGpMXaMOFXVcFqtcJ7izGGPF9GEVMRRZADKV1rydZoBHi0FoxHA7JEhQSQqmzD0Vg64j1NyO9ZIBl3dRU3LdSkhaLMKYsV/X7K1mhAnpfMpktOTo55+eUbgIwSKiVKe4R0IAoqO2exOgWvUDIL/E3hKMollclxlWE02GY03EMrzWS5YDZd4b0ny7JYAk4291lKFSobiPB3m/kd5gylBEJ6vLE0jjW1PAqdx+dWm/c2OGpKBSRNBtqQdQ6bVxSznOzmZW5ee5HV0vHw6BRfgHB9MpnCYAexmGAWq6BVllQUyzM4fQDJPGgZ5mdIOceKHFGtSIRjlCSQpQglcFgqW7K/c5WXPv1Z8rLiu6+9xirPWS5XSCVIeglkGp1opBZYb8iLJaOeZGecsr2V4gpJqjyDvmJr2IN+iqkKRERW67H73D6YfcQIWgiDVnmB8DCbTnj1u9/li1/6Ere+9EX+08kZt27d5OD4kPF4xK9+9atgKl7/0Y/IV0u2xyNypfg3f/AHfO873+H8/ByVJjhCyaedvV0WswW7432OHz5Aj8f8xt/5j1jmC/Iq57Of+xv8+t/9DVCa1YMDjo+O6Pd65EVBsVpx8/p1vvzFL8HJKW++8WMW8zl7420UnsqG7M31BTzWR6knmU1i3lNqze48IocQrrsoSx4cPmQwGATh0SxjuQwp2Tdv3qSfDHj7nddZlQWVd5Tx8+fTSQiPlkEPTcrAUez1esyXgdcyGA4RiUaiKUyQB9BSMhiPMFUFiWJ3b5/93T2uXLrO/eP7vPqDH3Bydsr+/j6j3W2cEpzMThlvb3H7pRfZ3t1Bp0Fby3vP8fFxkHTwvnHOarPePSPOGQ3ZH2rnM8hlLBYLTk5OGL+8y82bNxkMBpycTQDJzu4uo9GYIl+RF4EE7r1nuZwzn0+5d+8Oy+WSNHIJ6+y8kC2b0u9nIDzWFQgBAk++nGPKFXs7O9y6eYN+llGWBUmS0ksTqmIV8rqdYTGbYsqcra0tbt2+zmQywFrLzs4Wg0Gf+SIkifQHGY+KhNH5TeJppX+u2ZO4dEopiiJoyAmRMRiOuKouMxgEgv/+pctU+ZzJ9Jx8OUdLj9QeQU6Rl7zz9hH4FEEoxySlxpiSolxRlZYXbryEkj2U1CR6wGgYskC1DihsWZYtDw4FOgMpUTIJ84bwKAmoEG1wzjXItRCCRkgymniEq/XxNusqlBJE/wXhJF6BsY7SFhzcvcdL+9fY3r/Cp2WPq5fmuMpxef8K/VRA6VmeTakWC8a9hJ6GgztvcO/1exinyHTGspiSpjlJX0Y6A+iai5QqKlcwnZ/Rn41BOHpX9nllcZtlkbNYrMi0YntrBKZgMj3DCwPKsViec2k1ZXunzydfvsnZKAFXsb+zjRplYJZMz4+wVUGqJIkSuKrAOIdWoabrc3v/9pE6aPWusFjljIZDirLkh69+n3/1L/8lv/mf/EM+//Vf5fO/+jXoZZBlkBc8+PPv8m//zZ8wOzvn1rUbjNM+x0dHoSZn1mM0GuG8Z7aYo0pLhmA5nfDvvv2nfOITn+Az/8G/x3/9uc+CdGAtLJcw3uKb//r/4/zohMnpCTcuXWFycsoXvvAF+i/d5q3vfIfzk9PApRKCPF8hnEcKGQuAB+jexoQJIO7qPUIo5EWFgJ8iqx202mGp/7bWMplMOD4+Jk1Ttra2+KUv/jICgXWW4/kpd969x2QxwziLj/VWicLCAiBR2Hh8h0cqRaoUMtGUpiKnIh30KedznBQkSqO8Z7Q15tZLL3Jj9wYPZoccHB+yKHN0loZjGsN0Meed+/f45Isvc+3GDW7euoUXoQ7l0ekJ9x8cEBR32rR/631TsBdqzbef263/SKzraNYOmnOGIl8yPTvjZHDAzt4lLl+9wv7+PlImkGWsphPeffddqqpAqlCvD2GwrmCVG4oyRyoX63oGLuIwHaITRZpJ6ClG/R7W5Hgk8/mEqqq4cuUS4709Xhj2wxgUgtVyycnJIavVgrJccXp6zHg8JE0TLl+/yvb2GI8L1IPlnJOTI6bT81AORvjg2Am/roL9MbE0TSkLw3R6jpIpqc4YjoYMR4OwwKo0ZtLOQ+1DbVHa4/ySqrQgEjwG5yTeaaTXCCnIepI0TUJNzyyD/pBLvR6XrAWtwVrK1YKHDx+GPuAqKlOQGQFK4byhrurgnAFjMKYMf9cE+UYxHtpqEB+zBnwP8040NKwQkfEoLwI3zxnu3bnD7pXrbF+5wWhvj9H+FcgrSPpgS/zDdzh9cMBqMqU/kgw0rEyBd5a+6qOlw+sS4QsoDcp5RsmAFAGzKXhHL03IUs10csLdn/yYW698gstXLsGgH5L3EgWzOdXxQ959502WixmmLDg+OkC+8QNufeIXuHr7MldfvByyPqsS8gUnd95iPjvD2oJBqpDSY1zgKyoZE8h+vrf/qbKPxEHbTH2XOHq9PkoJzmdT/vBbv88qX/Dv//p/yO6VPZQOhbRf+8EP+ObvfYNXv/cXUFnKYhUkLqxhkCZIn5DP5xjvGKUpidaU8yVZPyOfz/gX//z/5vjkAV/66lfoX95jeXrKH/7xH4NzfOv3vkGR5xSrnF6asZAhVfzstdf4zr/7MyanJwx6KXiLrQz9Xi8QNn0UEIQWhfGBhyHr58+AUL33ISPOe4+xNpSXUQrrHCdnp1TWsL29zfWr13DOMZlMmJ6dc3J2SjoaIAnaWrhA3vZSNA66c47SWZSzOBU4UpV3TOdzlvkKrwQiCQKYpbWUpmToHdPFnGXxJj954w2KoqA3HNDr9ShMxXS5CEkGR4ckSnNpd48syzA+6Du9e3Cfk5OTmOBg14JgNRqEFM8ECCq8RSIxsdSLkmClxNqKvFhy9+4dZssF4/EYJQM53yE4PT3l6OF9bLGiLFaowYBEhwLXWmuU9AyHfbz3TQUCU4VQ6YMDTZYqTs+OsLYCJKYqmE2nHNy/x2I+DQXs+33KsuT4+Jjj42PKYkWiJVWZc3T4gMoUXL1yPYRSFUzmE05Ojjg7OaLIl3jvSDrIbm1NmOQZQUHXbf2aggPu8LZisZgjpabfy8myPkmSspxOmC+mVEWJwII3OFfhvUUpj5IR1bIqRgV8EzoWSiGco8pXJLX3KwTYAqwNyV+uQniDtyX5ckaxmqK1pirmaGWpnKMoVsxmE5bLOcJbUh0kb4ytYmjLrdFenls0H3h+AoFzYMswloVyaClRWNJEMJscU5mCnb0r6NEWFBZWC8gXnB0eUC1WSFtiVpZVuaKyDmn7pInEG0dPG6Q0OCxpokjTDGUr3PEhhZ3jyhX74xHL0vDw3jv0eyl7l68jnQkqBSVMDw+Znh8zPT5GK3DCUS2mvPvOj5DCsLe3R39vD/AwPWdyesz9e2+GpAfvImexM3a9DNSF5/3hfdtP76B5eeGOqKnF6aHMC7IsY2s4Yry9xcGDB/zRt/6At974CfN8hXGW/f19To9POD874/qlK+yMxphVwXw2Y39nF5uXVMbS7/UwxrCcLnBZyu54xHyZo/sZ3/2L73D/4C5/+AffYrpcMBgMWBVLlosF3lTsbu+gd3Yp8yVCCP78z77D3bt3OXh4xGwy4cqlywgX0JYsyyhXeeBQqajz0yW8RtLysxAm6wrU1llbaZpG9NAzm8+xNmTTHh0dNdldEkFeFOjRIKBSgpAermSrP+Y8KIkoA4JWWYs3hsoaHhw+5PT8jPPZNJD7B8PoOIVEgOPJGQ/uH6C1ZjKbhsSFVGO9Q/cCP6Y0FW/fCVUEqqrCx1Dq+WTCbDZjtL2Fj+rccqOtnhUuRONwQlM0XclQ2sdbw7KcURQFx0rhZShkb/FY4zG2pNdL8C6PIa0K7wXWFhRFDhisDZIWadojSRR57lksJpyeHnNy/IBUC5yAVIPzJSdHBxw8uEsvSdm9tM9yNud8NsUUJdmgz3g4orSGYjXj4P6Mu++8HSb3QcZ8Pmc5mwOeROlIk2+5dcHc2rU//TP8k2V6nLHRoVJ4WzCbnHJ+foqSGWnaCwXUXQneICUIX2FMjpaB6yl9FeQ0cBhvkE5iXHCg8JbzyTHT6bRBzZ2PpcBk5KfaAo/Fupy8mFGWeZBWqWZhnLuAtooFFEUBeJJEhdwSUzZh8uf2qHkBSgWAwpVBbFZiSJVDSU8a6gJwenSH87eWDIZjtsc72NKinMAUJW6Vo1TJznCITisQFmMczghweZBJUQIhDFVVYI3E2oSz8gHnxyd4uWI2PWZv9zIOz+npCUd3ekxPzpjNZqRpitaaxeQcKRzKGfZ2trCpxgo4K+bcffMH/Pi1gu3xFoMkoyoLEqlwVUGmJFY48DbWDKaJaDgb1ovn9v5MeON9pcKUoTGoYsV//x//JltlhY6QdqWCfktmJMJLjHJrU0ybIu5wgqbUjpXhdQe4+GEraDlIQtJLM5QQ+MqiEaRKk8Q4dYNoWdcsSl5InA4inDrJyKuc2WLOqgrk9KyfMhoMsVXQ9/LOoBzgHCZypPrDQbOwSURMY/chq8Z7lGj91kbotLMmfBiJDScIkggi7Ei0g8y68BtxVAoWOnTmkUlR1lNUjnKcciezfP2//C+Qt2+zUElbXqXboEI0chIX8VxErWd3wW/rImBYF+v5uaY0lIp1UWUvbSUrXC2xKRrlaBcRyE35lfr6RSwt5YIMPQqBEjL+E52yMQ7bIfzX7VWt8liGS9Co6deDXorm3Jv3oP5bfAgxLeE9qS+xQlKIIUaGzFPlLZlbITGApkRSqh5CQlatGNgJV+SMS7oiMSu0/+AwrGigiag/2BXP9LIZJxD6Wjs+A3woMCBsy1bfePSOC1+vb2BVedKsT6oTrHeUeUFlDUpIdJoEnTpBI7eiRCg/IwkIZlEUzUZHSB+182p5hoAQhhqFICRI32bmeu/xNRL6Ae39BNw2nfl6gRHSU5RLBoMeo9GALMvavizaGrcXn+m9ICXZEayNWlvRZfXIqJ8msSb8DqUKUDlSrnCiQGBDJrpTeDTCJ7H9JW3Kk8ZWaTiWqJNm6mzucHal6yxSG6/FNfNlvbmr5wYhBInWMUs3zBlaqrVNfDtfxnnh5+5fb7SDX8cp2iQVABvnmSCc3Ssrpj98k15hQmhX1FQRG4/cTW6p5VQ6pbw6165cLVsVfosTUElJJTyVEFgRSmkJH2RYpAXlNInooXHIZIaQBYgS7wXOJngXEr8QBkQRfotPwffAbgMC4xcI7dG6h9Aa6wVl5cmrisqE364kJFKilY91NC3SeirpqRKNrcev78pvgfLhewIXNN2cjRsuAzHrl+c8tCfa6Lf+d5I0jbWtPyKr14ywSAeSuBCxNmd0RnxM0t7e3qU0BuFDcVVvHZUtEMbhvG37czymigsxhK5fOUuVr0KmIJaeSkiiHINAMDs7D78JhxYSrTRKaXo67OxKExMCYrZndype4/dsOGU//4nlZ2Pee6RWpGkSJmXnMd6FWpu4xumWG2u3863CzaZz1lSniM899UQYjyVaZ74VVum0gWi/J3UI3UhqRXPajM1u+aqPSXu1iEzN//Gd8FKt5l47arEOJLSD9qd8lBKsySlcyLrUCegkTCXeG9oIZaclfTyrh0SDF7VjJqMIbXDPhAgqD+FaYNOZceLpx8+eZG0EPq7ePoYLIXK8NAKJ8Da+3grABlJ/e5wQZqy/3x5HSvCo5ky1kxYcERe8YmzTl5owaKwW4H10rAWAxfsgG+G9iCXInnPOnmg+ON1AyHaMPFIvHMpbrPDomlIjIbZ4qN7iBT4PxcdxDiGiQ+hBofHCx7JKLmzCcISimDY+SlLhgtNsSryzSC/RDnrek0kZ6ysH6StV18S1FmcrpLBoncX+VDtonb8BZ23YaviWlxg2N/WG8rm9X/vIszhFiFiFhqoXVVEjR8FMkYfO5QkipB6EFKADimKrClnvoIVACtk4Tiqu5KWpsGWFTIJopoi7eVNVqJjiKwmwvreu0TjTQob4uBDBuxct6kCN3jyyAoSOtbkTfNasqQ6jVVPDT0oJziN9LTdZIzNxsdxAEzvL/3ue6yK5gdoJqx25Tb6YF0HHTcKFmqW+87nN63r2LNzpNTS07ss1WhHfd/XkWbvA/gmt9MRQsCRLFcZYrClBKdK42zPGUJZVLA/UhmI3/4WFJyIDTQ3HgKQG9cG4e+ogC54Ph1w/TSYunGdaVE6KgFgJLCKqFougARQ/2kXguseKNZSljw5ecLSa84oaYQ2IkGi2SyAQiCiP45xFSh3mVsA7i8ciUSEzse6XG+31dBe5/4iscc5kO9FFZ1jgkLjAMfUu+DdxI6MQKEdApWQWIxcOHxM0hAjtLYVupaCa+bHrpDkS6fHe4axpkFktFYmQeBU2TKF6B4Fj7Cy4IHQrhUU4jZC2aUwZ+1sdncE5RCQpKOFj1ncb7ajDns/tve0jddBaIFc0O10Xg2FdTbHFfBlOLiUiJgwoIZEqdMQiFFl6xAThEGmSgHCYKnZi5cAJvDG4qqIX9XxEdM6sMVTOoRB4KYOTF803suzxHM8Ax+zDmta6KaTsmoQJGUisSlHFHdvjrLmHne18rTsanC7fvOelaNBJ2Q1jdUrd1JUHLKF4vZIt+VTExyakeaGD/XGw6IrVqIdf31RILCCQ3uM+FMLhSJK0OZ8QdVZfFcNeFZDifY2srD+CC/rI3gUJBxEfoUHJwzU8vhE/Xu27mREpg4NVJxLU85cXNNO5T1gLk9aoqYjJM5KmfzShZtHOzx4TMtbDIIvvx/CdJy69QcfLuaCp5WP2ppSqnTMeYx+naMTFtlFZwAPROfPCk0iBlQJJbC/nwIYx7axBK4+XHud9V2cAKRIEOojgotvxVHuCwgRE1TmgAhfRa0RIVJABAS2KIka+PEKEEKUAlAy8XuNN6/z7AHhA1yEPfUHFNT/8nvrvC3bVz+2x9sEcNF+rS6/zDJrb7oLX7GN4RXhwog07jaKSPNSLcVjwrfdY51C6bnzweJy3bcTDBz0XJQRCh+g21mBNgHwlnqrIo4iialC4RCp0fK2qArG1/sVNIfRH5DM2nj8mQeJpt80rqiK/xNqagxLHeox0fFgdKh/Dyo3/9gQyfwi7bHxXgnXrzlydkQr1ZuBZX8jX86aBZqJ8PAIm277+IcxbG3bGKk66tiKUwhakWuJMSeMwehsDNHXoLEq81AtLzESti7+H66jbcL2juQsQ1WfD5MazJ7WRQ8gE7w0BFXHrzhmCwDmq75/rPBKdcxE3TRExE+s31tcN4TsFp+qXAqsthjfDPB8Q2uDQCXExcvbcuhY3N7U0SR2mjghUpgIZvy5XJ71ASo9yAi+T4I831IG4FntNIJjoOKZCODyEOetzhhCn8UFIVkgV/gkPzQZK4FwoARfEj2PjqVDDWItYBcFBO++0iD3EKBch8lJ3oOC015v95xy092sfjczGZhgq9CDa4sa+FdYUoERAQYBQ/ieGFyUx+y4SbWt0hI3HypQh9BnP51zgQwQkTmGtjVBr6MYK2ekoJiBpwfsLg8DTcJiaeptPvmKe1TAnQFmWTX09KWXj/FhrsaZCpSFBX/qL18tmV05cJ0Ssphh9LdP51lp2rF93zh5nzrUp/JvOWRd5ezbtyejS+uc2Pelw36T4cL23KFZBQV6EGpn15KtUglKaPA8OWv1+oJA2gWuUEh2yVZdwWm/Mnq/oj1rbYiG8FFQa64LyQEQiNXjVhjlxIKrmGDJulj0uTrsC71sKSVMEHHjcTkw2zdQi3TK++KxkSv+VWRO6jyhkdG5qp9wDprRYERJhBArpFdorlAuOeOE9HhtoQQHbCsiZi+2PjY+bCGodFrUBbBcBiQvzdKA9WO/J8zG85QAAIABJREFUsiR+x1CzhL0IaF09+6guRcLXgu5x3peBKiRi1D30kxDG9b5moj+392MfOQcN1sPf63C2Q3pJkedN7Ucf+WBatTXeuiTv2jdvOChRqTpky9SwbOSwRUvStM2sgoZIa4zDe0uqdNyx150sHLM+Rv17G8fzKRemfZw9dpGOHKH6X4N0KYl8zJdqgmj92Sc5ADXfbz28sv7+2nsbDhhx8uqW3RLNhPbxE0Jsik9vwB0XcbZq1tqTevST75+LtAXRhLtC1CJMwh4ZFnAhwMcx5QM0IPDrv7GTCdY987O79flprUVWujCUiAK+tV6jd3Esido5iwhas4vpoNAikvlrhNIT+Uu0n62PR/0oO+PPInUoGVZziZQKI987ESsN1Kd6ljdKH8JqVCs6TrKz5xJOYZ3BS0kIEiqcT7BOxoQPap8MoHWMnQQUztXOtqUz2Gg5iBKUCEl7zT7Jx62TxQlQUlHHOAI1wcZP1WhcSMZ7ZKKou1uturDWZ8XanP/c3p/9lA7aOum0Ac9juLPO0RCIyE0RcWIOz31cPrVWaK0QQobwSL2rc2C8RW2k90vqRTp0JyUVztSwqUDq4HBZX4flQicJxYYlSa07I0L4XcgQ0nfQdKSQTebwQsUYfSc8IByPEm5/vlaP6Q/yS2TnseFudcZNkqU450K1gKpqdshKKXSqm3sM6+GL+jdtLv51U7Zcs3BLhaDRKqudiUcKndfIZ+ex8cU3Fvj65e4xnr0wp4x0AdnZQNTvxKd1qNe3Uhvtt9sNz2Mt8okeZ2naw7kgO9BscjxYZ7BlKFUUBmy96nR6hCfupjthtU0tli6a9kxaffc3OmfD6yHe/ycg9V4EZ6zeDvtQNUAItX4/N/u/l+Brun9Udnf1Zqi+53X7tTIfbQJCYCw531YjEcQNr3ChgPozN+Y2bTMVqu6v9Wvd/v4o36yWpKqz1kVnrHkBWdoPclKeIJvhdMAQYjtZYYCYSCdUaEuhcDgsFi3qiJEGkkB98B25HZUEqoOrQYrAKfMypCOUvi7zVSNeNcIX5W+a62rHPo1ETJDZAmLmJu3fUb7q5796Pj2mu9Bka12CKR24vJ1Am4UTR81H83Fi8Z2EgNrrrnkNHpBKYFxQI3cxrbt+HoqyhkwjfCDEupjGXce1vbXBh5cKL0NWSJ0pomXIYlFCNtpY3jlsnTUqoPImLPjduSxeSy1cS30V3rU6ac0FfDQ3/4OaI87PnkcdkM669zjuR7fMU41GIWNihxBBAkUIhBQoqRseX60VJ2posz0VvnM86/z6Wtt5lEC6lsHUcaaaY9GQX92mwwaNBk99jbIDFjSRtO53xAZjSzz+3vx1t7CpUHGRrR1bHx4jQKVcjQR3XXFabbSOBtuaxEITZtmcE7p3TxE21CrKZHSPEwuar3n9mrXMtUhW7x6zaQrRPvraudx8U2z+nqfQ1jivovP3RQt7vYC2m1ZnJUF8IX5bsOaMNcTx+j5v6OYpYhJBZxyHL8bNkus0RPNXcLi9kFgTjiLjdYTnddIIPDFD+JmwyB1rZEjq+yS7HbZ97UKTzdoZJemaY3tfgJNxvDqcsCA1tukSJR6LrRMHIoXHKYvXniqGUCVJVPN3SCdDJr6XGKlxOKT04IIDViPhQYA8CUu/V0hhwsj1FQqBdI7KuyhvFBw64tobgJiI9DVOpycstBHBg2Zj/dze23QYWO8/JrzuENQ3PBJQa0i+nksfWQTrBSCcr80max8bwVtEnAAEXsRMUO+CzpVSbeizgd7bSUHL4O/XjpWMjzWcG+Q/woTSRgLic+mjkOkGihbDs66dJ38u1t0UXyRD8V5WO1sBhGnDgTbimy4KgdafcwTxwbCTil7hewyw97o3auM3X4TiAY9kenV/K9A4JbWfV9M7amTpke8/xY5Za7JZKMPwCSTxRoDYB+SsRSw7C7/vLCS1iXrHsYkC1HbRYishUgyejLZ1HUTZOiGPINLPrbWuY9axTpJVM/Avas/wKWq+0XrbdB2JC77bZHZ2j9fpO4ImGzu81mqpXfibn0nrOh4XTSbv3a9FZ+IOEQUZE+o6yKpwzToT1thW2UAQPhs2xSo2pwARZFcaB90DXiG8an+uCK6bjw6ixMRNbQhN207b+/hZFTd0Ki6qISIuGt5wcCplZDXEkzROWhcpl2vX9dze2z4YB60rdkl30Vuf4ENjyQiPBjJqWDRDJ+jy07oLZ0Cu4nRSbwYRje6VxVM90sDtC202X/ivVmpuX/RtPJ82FLQZknkkm7C5tqe7d0kZ4G63McE4F17RUraNsPE+gFAfDcnz/U7nm9Ng65Sz5qA9CsU8y+bW5r4aPnMC5KbMQe0Qic5nWe/TNWH8iecD3h98XKMKHW6cd6yFOp/bY8yt/y3qTXD9msf7KqImHQfYtxPp2lwlOm1Qf7YJn26cr5kiu/3Ar70ZpoXuZO2aRXrT/AVz+3ODBvGO43ddz7EWF+6EdvAbqGToF4F369rNdNMOvlFVaEZct/3rl1yNZEcE3UfVBeHa0X4BGhp4b/IRsLCmHInnSQAfmf0VJAnIBs0SndfqTqAgxNbjm120Q/onu0DSh1JRxrcZSF0yeR0fr6qQtaSil6/qQsG1tIdrQyzBiVuH9MVjhPTq4z/t3n9Q8PchiFs7s67NhpR1OFOI9l64wGTy3reJSB/k3P5ix6x7T9s2vfgY70ewtBZJ3jz302/B0ekslzR83Tgpu84N8pEs7GWNckOb/1zj0GF81mT/R8OIm38rNjdjj5rvLN7QqNN/ENj342Dde9WEguNGuEbDojnRbTcIcgrdg9W72rXA/gXnk7DmgNXOXOdgzW/qOnLdk3Vf/zggaB/egnO2ed/W27h+XoMUXsgO1zb0FYcHb4m+VdMsYfjLtgQTIH0LcNQyR+FT8XjE7wvPeiHH5kfG+bR2wAIXMcYyGuQsJHh1r2/DmefpXz9/lvbRCtU2Hah+3o0prdcE3FwsJbSZgLWDQAcNi2E5HXUbuhynNfTNQxprq6lm5YrvxY4jmjM277yv63vWp59aNiOEhOOLj1lLxcb7ay7uT7H+bg7Wiwbv5kuyg8Q0fLJOV9vkrT171kGzOgv74yc+17mJcj061pIFwtNHFtmLe32N6qzd6Ti+1qZ/YePuv2YL16HOj7E117+5g2id6EfaoYOwSBlDi00/X/9st5JE4yiv2SaqxlqbONcVCr+grYRao4Y0SFn9fdFGSIBGe+/Z2CB9BCZcq1n4fpzaiJK126rwHekjNaW7O6ONkED3nsvmWPXfAo/wrkPvD8eWPghquA3Eu+a61fzn7saw5XL7da3F587Yh7K/EpmN2qlyQgQnDeLOvN75PzpSux1KI0JqgXUN3wgBQob03lSoDmk/ZhN1kJ66gHG36HZbWNyjepo2DPPob7Adp3Dt/RqBe4oRAC+i1hzroQoZdz8aAa7VoKvvSY2qfZRp0o9zzt4LQaMzWb3fSb+L9zzNC4Wki0DHva7ouGwNILLO73TNRTtCmaVuUe+4GYpK8W0bv58tSReN27R6Eao5a8Stvn7upD3J1igkT7qvcbG9sD9f9OIm6rnh6Ddf7Q68Wq4hIiQRZfkwmVIfZ/WNUMppkxvYxbPY4Mq6WEqpw4WOu9FQ+zjcTEurDbkWYRCB40ashe1pETTfWf+EdyBD4o8VoXZrHd4MZ5SNbIZ3ik7wJXy/kcySF0ywzzq08VdnH6mD1vLJOhlYzWIbNKjD620DtmgbndckEo/3NN59rdsjvcCXLuYw1a/Hep5xcRFleMc3m0zVOGhGOZyX2Di5dVG/VuohLCZ1/c661FDzE5/iBR4CV8DRcYQaJyy0j7M15C3WHCEp5CMZkR/EHof0NON6I/z9yPejEHJ40nn9PY7/zNgFKHCbVd3+Hz4LrO1qawVzOqTeDV7Re7RwW1dXBqdO1MNcNOHz9eN0f8/jtfQ+PrbZQTcQsCf1X1FvELsImV13eB/h+nUdsw1n7ILzN0q0a783OGiB4uHBd5CzDTmXBskWLdLzntf1MbIQouygVqLz2IUj432tBaxk5JEKFdpT02qGrt9aT8tZ69SlqNGvOI97Z0KmqLcNB00KGaQ36rVABEfNC4n1oQe4Woi+4ZrF39eIFT9ugD/flP209lM7aO8HfejukOpssrpxnFhPDFgrEVUfP+4g1pYM0TZvURRBO1mFot6p0igp0UohhGA+n7ecNCEQsei3EAKpBCscLjr6jkd5cBde8zM0udRI2COCsIQSWt2Mze770hOyhXyDh3wge68snvfsY7YLyV90gMcf/FmfIsJ9bRfk7rgJ9kG8o3YHHzhstYVNU1i7W0S7fd4988feK3tf9ui4qFF71d5TXxHJCLQjoHXSRMcZb62TFFBn2F30yKORgzbaUCOtojOI5cbxLzjPc3vENrFMXzPBauc6OmPS10oDAisCeBFKGAaedaClOEQn3O0iYyFqDnc2UyFL04qggiCERmJwHTZZ15wI2Z5WBCkPRajL6WJJRc+j60eXnvTcPrx9oPVKeEdI9XWxW8WsjvhvscwZDMeMt3ZY5SUiy0iGQ+ZlyXyV46RiUZQ4IRFJirEepEbrlNliidYpxjh6gyEgyUtDrz8kzfqorEchYOf6NbYuX6YUApel5ALeefCA48kUrxPS4QiRZgz39lg4y9I7Dhczlt5wOp9SOg86obSO2XLFKi+RQpP1hyiVIKVGofBO4LFRmNNgP5Rr8tfDrA9a8EmShIQKF/ZoxWpFqhO2RmOE87jKgHV4Y5E+hDmrvACiY+188w/rmn/FcoUWknKV00tSeklKlRekSlOWJUopEqVRNfHV+ebRGUsvzTBlRb5csVosWS2WCA+9NEN4GPb69JKUVOkwQRnbJIboNGmu04v1Be9Zcc6kB6zBY8PGQym8UAiVkPYGISShMowD4zxCaZyQGO/QWY9lkZOXZai5SnC6fZRUsd5TVBapU6wXeKEYjLbwQjFf5mid4j0Y67AOpNJIleLRCJmSpAOMFRgLlfEY60J2mVAgFIJQQqyulSs7m6duIs+zbNKv/6ut7qtaa4SMS6ZQSJWg0gylB2iVIUWK1ilapeAlVWmpyjAvpWlKWRq8F5172/7zXlKWhkRngETJoIlWFia2bXC6nCMeQzfIiBCCNE1DPWPrKK1DaEWS9RBSg9dIoXFeoJIUpRKchcp5UBKZqFDn72NuEk+ShKLyqyLHIxA6QSd9BuNdvM7InScb7VCJhMIKRDpkUXpEOmBZlEwWOdN5TlEZnPVUVYUtK7BQFhVJloLSrPIyjNM0RSQZpD229q9ghcbJhP5giNJpOA4CnWahbR3klWOeVxQWZDZCD3cQ2RCd9tBpRpL1UEmK1CpSZwylKYIs1oX/nqOoP6194BDnk7SmVKIpnMGZkgKLz5dolyL7fYb9jPl8TjYcoLSmKEqKsmBZ5GwPRly9fp3VYoGj5oyFY+ZVSVGWODxumHFvcRZKSmDIS4+Wiq2bV7m0t8dsNsMqxXSyZDo/R496yDRBDzR6MEApj5OCwjpUqhkkCYlU4Dx5nq+BZfVOp90/Pv2mtQ5hzijHIKUMgS9jMUWJLaNKtVKtfpxzCK0ZDoeU1jbCtN2FtZ7IrbUkSUKSJE3R9ZoHqBAkSmGcw1tLWVUI71FKhck/TSmXK6TzbA2GccEpQ2WDvMAUBavCYIxBZ6Gk12AwIK9KAJbLJWma/lzu68/GXNhBCx82OEJgracyFiHCHne+Kuj3++i0R6YkSglcucKWhnxVBAcA9YhjVO98rQ3ojHOhLcuywpjAL1E6wUQJtDq7TAmJc4KqNORFiTMOmUiyJMULh60MLmYHO+fA24AMdMM8j0jafHxtuVrhvQj/RKhpqlSCEKGuqUQ2EHZ4L/KKvKCqbNOWdSmmcM/DJhoESqZUlSPPQz8J41ZhrcM5jzFxsxNr8Qqh8N7gvaeyDutB6xQZuYT5ylCWFanOSNMMY5aEggIbgbdOGb+PsxljSHWc75IEkaQU1pGvCqgcadqj9I5F5Sm8ROkBXvdwqqJwEqF79Hu9oIhQlTjvSbTCe0tlDEmSBQcbSdIfINMelRdUzuGkZDFbsTKhak+iBD2VInTGqshZFobB1h6FE3ivUCrMpcvK4gqLco6BBBU1joTshFk7a8Bz+2jsAzloHcpvo2XmaSHVpD8gN5bSVKhen8lqiVks8EIyNH1msxl7O7vkZYUzlq3tbVxlmC1zHCIgK0ka/hkbJnYhKZzDKkGu4Hw1I0tSer2E1WKB8DBIM95685jBYMDu/h7FuMfJ2Rnj/haT8yPysmTLbVEslyRaopxEOktPJQyzHr6yFKsV2+PRYyOa70fi4a+7KaUah6kZVHE3r6RkcnbOYDAAwBqDlJKyrCh8Tn84QCVJSzbdSMKAdbi7LEu8903tVYDFYtE4hVpKbGWoTImtTEBW+P/Ze7MnybL7vu9ztrvkVnvvM4OZwQwwGHAIAqREgpRom1YERYqmHeZmPVkKUeEIPfrFYUf4X/CzwhFW2GGbJETZlEmKogFuAs1FxEqss/b0Mt1dVV1Vud7tbH44N6uqe7CQA4jkdM8vIqOqs7My895z7zm/8/t9F0Gwjqg9QkeidXRtSiwyqbCdo20ahBA0tmM0HiO9wxhD5+y3x7i9y+MBe61Acm6ICqkylCkItNStR9qIiB1CeBARiSZESdZ71cbYCxOHB8dQKZ1cOtZ4E6HQJiOiMCZnsapwIX2473xSGDcahU6VcNPjj4TBR4d1FpVplFTYrkEb8U2Ts/ciJV1Spqpo8KJPvET/PBgpcNj+tQKlewud4PAhonSqIsde/iDEhBUSSKTUlEVB0zS0bUNZ5igtiTgiGm0M1rb9F1EgUiUvRHDOg4upuuojLoZEHkIhlMQHSd04CKq3JfJEIZG9vUeiaK07Lo9vEn46VwqRKo9C4UOkDQIZNCFoumhwbSRETSYzYpAsnWLRNYwyGGmDVALbb4iKPEv4MTxKaaom+XnKssRFybJp8UKQmYzKgjAD2sYyW9aIgUbpnOhSRb0LkdpGahfwIhCESQQybRhmGa5bIvqEHZ+StLONXvwGGLT3krZ3Gu+4gra+vR7Gia1tgzpnGW5M+L6/9f0gFE3Xpsmkx4kRPK989WvcunETMs1oOOS46zg8OWZzsgFA1bXU/WQRY0g7heGAj/zdjxNzzagYIIH50QmDsiS0lv/v03+ItZZGRqwWyHHJh3/w+/H99LAxnrA8nrIz2aSraq6/+hrH+4egFJkxpz5ij3qEkFg7SojTFmOR5+xu77C7scVkMiHGSNu2xBiZLRdMp1O6rkPLM8TCwwlajBEpJd6nnXwIgcFgwHg87sH9kcVizmQy4eLuHuPxmBACVVVhu1QFK7Kc/f19qqqi6tuso7xkZ2eH4XBIjDBfLYnA3f17BO/xnSXPc/I8xz/iVjPOpckxikjAE6PEZAXD8SaTzS0uXnqCtm1T5dJZfOhQIuJtx2q1OCXPnE+qpegtW4Q4bXOBJMsKNje3iTEyn8+JQmJ9ZHNzm8lkghAS79KYa52dTtQnJ0fUdY13AakHbG9tYYzh6HAfKUCeIyc8XDF7rBO2mDBGWTGiLAZIlROjxAVQymCkYD6/j+9anE+bHyF1qpJKh/ep7X12LyYLnhhFX6XO2draYjqdUlUtWudJAc1LjC4ZDoe0bZ1aZsHifbqHnQPvBVIohDB45wDJYDRiMt5CCMFqvmI+n6KVStZ+4qzCDmfzw+ObmqUwSqek2zk6HCJIHApdFAzGW2zs7GEdCJUqlEoovPfo4RLXVNjVEbX3WBeRIgftcd4nHHY2QEiFbVcIlSFVRtWmyttwY5ON3UvsDncSnOjwDrN7N6hdSy4FKisps4x8vMUoG+BViY2SqAza5OnLtxWr269CdNCTVZKKju/b6O9h0L6b8c5IArFv/T1EBlgz/EIMtMHxxKVL/PQv/Fews5NelGeshTapal759B/yG7/2/3D7zRtY7SlGY6TOzszPhcQhyPMcXeSgDRuXLvDUs8/y0t/6GFsXL6drpLMwHLH6+iu8/vobeO+Zz+eczOZcuHSRH//Jn+TKBz4AuQGTwd17sLNHvHWbX/vVX+VPTv6QurHIzIAUpzovj+pE4oI/XRhTiyyZn48GQ564cpWre1fRSDwBiyMSmS/m3HzrNvuHByxXFVGeYVz0Q84CMUZiSLtrISU729s88cQTLBYLbNfhu46dzS2eevJJLo8vJvwbnoBHo7GxRUa4ffMWIQQmG5tcuXKFq5cvUxQFWuZ0WOquJc9zjuYpcZRNw9pJ/VtIdL7rYz0JpupIBCHJswFbW3vsXbhEsbkDrgOVKiD4FmzL9P4h1998jbqaQw/wlf2kmnCX6feqanAu4H1kOCjZ3bmAEALbeRarJSC5eOky1559nuQWF8D3fc8QQSnia6/RtPeIEcoy5/KVpymKAmsDq5P7p1pOj2WI+BBRZk3jS0mxdwGjMzYme+TDCWmaFqAKQGBURlMtWS7nWNcR/LqtqfrMWxJ8kseQyiAkhJAqo1plDEdbdC0sswaBwVmHswKjCzY3dlhVC1arFVUVsM71rHaB0TlaZ7QW8mLEaDRma2uLfLgFwCCfkWUFi8UMHzqIvVerEAQSZjKKmKyHHuNYtwEDkdh7bvqokaYkG21w4cWPgs56TWiTSFGt5YoL0Cx5640vMz+6S9fUjAZDlA+sllNk9IwnwwRfkQatC6LMsUAxGXPt6efYuvwETC5BlnHh+BJ3c83926/RtCtyk3Bpe5euIi8/CZsX00VqivQ4OWF663VW995EeEsMZ5qHa//kZEF1PkE7nyT0x/9XcpYfjXjnFbQ+SfPfAINmBgXdSYWNAbY2YD7j1lu38CFgrUUrxVNXr/L8j/4dfkop/o9/8b9y99Zt9ja3UUazahqMMUQXWTU1UUlUG2lsx5jIpb0LbF25ht8/5Mabb1Iow9Z4wltvvEk1nafW2rIiNh3KR65//VXq5QqdZ2xubbHx7DMgJcfLOfenU04Wc5SPaIY9/fl8E/fcMb/Tk/U3LGKM+J4mn8ytk9hpURTs7OzQ+ob96RTvPVmWURQFk/GEq5cus6xW1E17aqwOnOLZ1pW0U/IBqdqjlGJzvEnXdeBT4ma7jvl0ltrZIrU0B4MBo2yCRyBDJPR/uzWecHnvAoOiZLVaEWLF9mSHMsu5du0ai5eXqb3ZdejiUcafpViD632E4BLwO0qFyQqKwRhft5wcz5AKsiwRKQajks3Ni2xvzdjvGsCdjpf3ka5b455iwih68C4ihKQsB/1nGqqqxvtAXbcsj44TCNx6hsMRxWAMKtn7di3YLuJsJGSKIh8zHI1QMk/XxEPsvvNVtEcdg/atWu0JJiJRKkcZA2i61tG0HoElM4bR1mUydYx3Arc8wbteC7KHmqxxiXCmmBE8eBGJRoDM0MoghcE7sF1qO2bZAFUOYVUTPDgb8SFhD7XWZFmGzgqOT464dHmHC3tXkHkOrcU5j9EFexcGdF1H2wa8P2vDriERZ/6Nj2+sK0yJDJLjTU7sAp2PNLZff4Kkm1dEYVFIfBTkkw0oCq4+9Qxts2S1qilQSKWwDrzrUE2exj8qpNS0NtD6yPbuBbauPQXjHab7R4xGE/RowoXL15ge3KGqK3JhaFzkaLZkks3InSGqHDGUMCrwQdFYiGhAIs7LGwhBciN5eHAf88H+DuMdJWgi0lvHyAeSlrUmcRQKH6FxDlYrPvV7v8Nv/Na/Yb5Y4XxHmRe88Nzz/LN/+t/w3Ec+wqUrn+T2jVtIrWm6ms55lMl6FpPEC0HdNEwXc8qTDUwH86++zv/2v/wL/uBTv8tkMGSYFQyLknmPnyqkROkhamn59f/9XxK15NoTT/CxH/kh/vbGJl975WX+9NOf5muvvoLMMiZ5QS4NqASOlueStDPP0IBAvesvOa31KfBeiVNBrIRBE5J7d+/wyiuv0DQNeVkyGAx49rn3MxwOKbJU6v5GNlvn339d4UmTdUvk7HdvHbOTKd2q5pZSfdtUceXKFcSTT3J0dMTsZIptO1RRkJsMLRUnR8e89tprdN7zwodfZDgeMR6NTokC89VZovbN4lEx6k0adQmTZHvGXQwSouaVl7/OvYP91O4ieas+88yTXL18hc3NXe7eudXPq2cyDTFGgk+VlkGZKjVCtKdsPiFUX5mBGAQHBwccHh5RV5bRaMxTTz7LjiwJ3vLWW3c52D8ieIFSOc5B1wYGZUrmQJ5qDT7qydhfOmKqSEuh8S7SditOjlfMF1VqQ2aKD7zwQbQqUDJDiuyUWS4EKKlQWuB9OIWUxCBw0eF9TBIMPgKaECTeR5QyDMoxZTECYehaj3MkXKMQPVkgjbtzCcReFCOkzGjmFUeHx3jv2d7eZrS9TWYKnOtwvj07rN7d4EEj9sczzrTLVPI1FooueBwRGwXdomJeTXn51TfoHJRZyWA84Zmn3kepI2qwgTYlnQ0sq4bNsiQfjgld07N+FVmuwGS0bUeIgsF4C4oBq+MjPvvFrzEeb/DRF55BjyYIkxOkQuU5q6blzdt3EAcz8sku493LbOx4mFYcT2esjmdE51DeIXrj9IePTQjxgGzLe/HOQ5/ZPvQRoW9Unmm19HYyiTWW/r1OUuTp6yWqF7RbLWa4EJhMJrB3ERfh8HjGqq7JjSGGlj/97Of44T//Eh996SNYF5AmY2NnF50tufrUBsPxCJRksVxSDEqmywXyYJ+tS5cAGOQF29vbfN/HPsqV3Qu88drrdFXN008/fYpJqqqKUhnu373D3qWLfM8HXuDjP/WfYedTvvzVr/OHf/wnNCdzrmxtU5qCbrGkWy6ZjMaJFtxLOj1gk/PXHN8NoLvuQcXpZpJoqQje4a3DdR0X99L5dE2H6yz1YsmT164x3tpjlJe0VX3KusyyDGMMSusHGDxrckC7rBAuJPdmyyHsAAAgAElEQVRGn1o7WZYlinmXcFK+swyKEmMMG+UG1+fXE0tTKoosT5+hFMerFffu3EErg6savDaUoyHRB/IsIyzCQ1uGsxET8dEhCVjXJnCxVKklj8CHgIsBFzx122C7hEVy0dG2HU3TJWc/qVksKrQW/fgVZGWBPG1xqjMv2xpiUNguMTChx5npxO51zmKMYm9vj0tXrkBWsLp/zI0b12mahs3NTZSWWNvivT1HSllvgB4klKx/rtnFD8cjw6R+m0nsmafh+hGI2BDpbEfTtdRtakcqpaDraJ3HE4lSgtQgPcroVJURAuV7uzudJXYmqULqenaej4IYUqWlyDRZoSiKAgQ4b3EhICUIrdAKXAh4Z/G2Y/fCHmVp6LqKk+kJ09kxSinGbgjBniZ0Dzge9AP3gOD34xpS4GPAhohH4oIieMBodGbINiZQH3E0nbFc1YyHE3aVTlIlmQQriUrjY6SzDjHJ2NrYxHronEVKjQlJAkX5GUbAeDCBqLh3b8rxSU1VR5pnIqPJ8BTeoI0iLFuULnC+ZTTIeN+zT8HOZdp797m1eIvZbEZhPSomNrmOa2bxWlutH90o+/zhvQ3YdxIPVNB6vs45fbMzy5FEAEhtMd+TcFRIp1+HZJ+seiagQ7C3tU3XOVjVXLr8BC988MPUrWW5XGIUvPihD/KhD7/El7/8Vaz1FPmAV1+/zs/+/M/xYz//c71eToCyAK05ePUVPvk7n+JLX/xz5t6iL1/kH/73/11qSWrD/c99gX/1K5/g+suvEluLr1u2NzY5OTnh0qUrfOBDL/DS934fLCtMXvAzP/PzlFFz82sv88oXvkgowS1rticbKJHwAd57YogP4NHi25U//1pijQV8eLYTvP258xFFMpM3xiARuM6itUlMvBDJhaJarriyewHjUlt5d3eXcV6ymJ4QW8tYGoq84Nq1azz33HOMdUlLoAsdWmq6YLlx4wadc4SmJbYddBYdIq5p+usnYQtd0+BEZPfyRfYuXuBwccTdu3cJzjMajRAxcnDvHpujMbvbO7zw/ueREUZSs5EVvPra64SmpYmOQmu8TSKe54fo7cnZu3vSCDJheuqqYTTZoRA51nuESqKWm1tbIBJTV8mEeZlsbdJ5R9O07O5cous6Nje3uXL1GuPJDgyGgIamgbLk8M03advXaZoG6wTDQZ6qLUIjdZopNjcneB+ZTIbMZ4dMtrYpSsXHf/gHeOXVr+O9Z7lc4L1FGYcLK6Ry/TyyXrH7Y4r9hjDEtyXZ6zjPGH/3xnlx1z6iZO1RGoQgIqnbjr1LQ4yLWAejzS3axqEQWO+pm4bWdn0+F0EKRuNN9vYuJvzSmuihDISO+/fusFicMBiOEeWI7v4JyhR0LlW5Ll/dRhrJ/Xt3mC6m+NhhtCKIwLJuUEaiFNRVw4YYM9gsaBYrprN9QnR4K5jODtm6sMnWzojj6V0QAdlLgCgtelKCQYv/IA6D75pI5A3gHKlKm0iUPWbPdZQDwzPvu8qyatFCUo5ylLAIU9Auak4WS4oyYzwYsHf1CsNnXoB8A1QOJk8Y1MUxd7/2Zd544w1uX3+LJ8wme9tP8Nz7R+zt7TEc5DSHtxARci1oVkdo0SEVlLlGU4OroVmQa8HzT17jjq+YdccQfGrBR4dtK3KjyJShqZZ9ASCsvX/6o5anjgjviVb/xUMjznam62nxzP4oPPQ/4QEnAAWnbgAQICQLJddZamcp53Mocj7y8R/hhQ99D/neReg6GBiYz8EFvvbVl/naV19mWJSMNwYcHB5xdOMmk71tyDTNaknnLDfv3ePe/SPu3T/irf17PHdyTNk1zGYzhsMhuy+9yD/a/EX+9b/8V0yykt/8v36N6WLO5s42znv+9DN/xue/+mXuLxc8+30v8Y//yS/y0z/7C3zqlz/BK3/2BbJCsrW7x+zkEJPnfQUt9krs6YAliekW3uVLxMNxmuz1ukkXt1Ol7MXnP4gxGT56EJJbb93i9ZdfQWuNbzuqkxlH+wfYyYSu107KioLDw0Omxyenla9BljPKBmyMx2xsbDCtlgQBnXd03pHnOaPJGCEE08UM5xyESNs2eGsp84KyLLk02WbjxRG+7ZgMR1giW+MJ43LA7OgAoVNSIniwSHFqZUWvafcubnMGASbLsN7hsbRd1x9vjpQSk2U88/7309aJQIGW+KZGiMh8NuP2nbdwnaOpWuqso208JvMY3xLxWOugWlDVHikzskKQZ0PQWTpvMVIUBSezY9q2ReuM1157jbZt2d7eTdW0q1fZ2trkzp3bNE1FOciTPIQReP/N28/fLB6Wtnk3j99ZyLNM84E+kUw6WTEilSLXhvGGIs+HhCgxykCwhHmgaiucb5EyOYA0tmM6XzIYjPFOYK3tGdWW2WJJ21mMs8SmQUqNUJpoO6TSlOUQTIa1DpNlqCjJc4NUEZsllmiMKVls2xbfVjjfYYzCKNNj4ASuadDynOhw7DXngzhl+T3uIaVMOXnsK8bRJ4hCL4hOmTEcjfnQYITUBcSI6xy6LKFruX33LsumYVIMKIqCLkSGVUNgjCwLsArallAn/UKFIjM5g9E2DHf5yLUPg3fQnSBIc2bbtgjjyHKZHH6j5WD/DrNlRz7YYnvnEjtX38czzzzDV49v4Ov6lDmKSKzdIEjXVYTznbn4Xlv7Hcd3sJV52KzijMm5d/ECc2cZjZKWFtbSWku+XNI0FdXBCg1Mnnqal156ia9/8UscHhywPFry+uuv8z//839OMRmxahsWTcV4MkFrza2bN7l/5x6/+6nf4d//6R+zf3CQ6Mda85/+2I/xX/7sz/N3fuTjxNby+7/921SrFdOpxwZPNiwZjEqak0M+85nPcOHCJf7Jf/2PuHb1MpsbY06Ojgm99pe1FnptF1QCYCdLqjXb6tFI0NaSKMkAuR+/GDEIXPCYPjmt2pasKJhMJow3JlRVRecs89WSewf7HJ0cs6oTNV9nhqIomM5n5HnOyWyGEIJ5s2RZVVRt0i9DgrMJqL6xvcHOzg4xRg4ODnDOMShKgkts0/HGhKzI6ei/rxR4oGpqtna2uVhd4s7JfbI8x0lBCI+2VEqSKlCnXngxnkkarPdTSdIk4b2UkKAFZZYzKEoWdYW1LcvlnOnsmNmiomk62s7hXODChQtMp8esVgukijRNRWYi1rZY2yLr1PKMITIsBzRNh3eOw/0DbNuxs7XN9uYW9+6+hSDJCnjrEFKes6R53CM8VMg956u6rn4JBSTAf5IrUYCC0J6C9n3T4JwlBNlLbkSOj+8Tg+rxZWnhb9uGtqvpuiJJdpgcqTOsX5FLRUDRNY7pvGI+X7C7u83O3kWc6/pEu0nY3nILrUqIOYKIkgXeJw/HXA1Q0UCMCDSKDKJLOmwyIkjEhEdsf/uXDhcCEpl0CDlj04dTTcp0E0upwRhQGp0DgwG0HUHkdE5x0i5ZLpcczVYURysWcUgwgySAGxylWzI9uEvVNui8gOEwvV+WEWcVwlry4ZDJ5gbV3OCCxagMgsC6QNW0VN0Me1SxWFqGoy2KQcZoUDJvpjhrMZkCKQnBniOOPeYD/F2Md5igvT05Oy+5MZ0eU0nYkQJ3/4BP/8mf8W8/+UmOjxIzcGNrwmQ84p/941/kuQ88z9Pvf5Y3r19nNBjy/R/7GD/+X/znSZLDdXgBKs+5d+sWn/y3v41bLFExcPP6m9zZv8eLL77IYrHgD3739/jB7/0oV596Csohzz//PG/dvk1VVQiSqGLdNuxduMAqBL7051/grddf59KFi1y+cJHbqyXWtly6sMf+/X1EfPtu70xg8J2dtb8pcV5QNp77Ccnq5+7siC9+7vPUdY3QCuccH/rwizz55JM8+b738ZWvfIWiLNna2+WJJ59kY2szVRuJaKlZVkuikilhm56AVsj+gRT45P1DCIEsy9jZ3WVjvMHx8RH7+/tYn/A0eVkw1oa9ixcJIfCVV7/K/t176CjY29sjKMHzH3iBCxcukL+eIzOD7St5j2rIKGnrDmU0mdbkpiBETUARfcC2Na+9dp3jkxOctadEkKfe9wRXLl7g2rVrXK8XdGXGxuaIS5cuMBxsYENEyKRY33Ud2gS8r+m6Bq0iKlfkhSHLE8Fke3sXa5NjxGpVs7W1xWy64P79+xwdHXHx4kUyU2BMhVKKpun6/uTjvptOMJJvhZPIdMIEhc5SNxWHB1N8TID+LNNcubBLlms2NzcQc8d0doTrk7GNjTFFHtA6O9VU86FF6cByKSiKrMepqf7+KxgONtCqwPmO4WATZyPDwRbD4S7BOQZlTfBzBDnegSkGSFGglSR4xXKRMKnjchORDXB1kmKRwhAIBJ/cLKRMFnrRP94LuPdp7XT0O2MkUgqiTOPFquF4fp9XX3uTedWQmYLt7V2ef/558tGY577vBwjWUR3cYGgkTzzxBOWzz4McQtBE5xDRweqIe0PDarXi0rWr4CPX33yVO3f/PTJ43n91k72rm1y4cIHZ4Q1W8xVN65hsbmNrBzJg8gxbR2azGdPplEtmg6IoWBHxwQPqFDcaRBI65xHfIP9VxjtzEvg2GKfOWqyAyWSCvrCXrHiahpOTE0bjAbffuoUk8sb11/jB7//bXLlyicGgYDwecvXyJSjzxA8vhqjRKH3ma6/TzRdoF/mHP/NzrNqa3/yt32K+XNBWNQZJvaogy+DoiJs3b3J4cMD3vPQSP/DxH+SzX/wCv/Pvfp9iPCEaw0e/53u5euUKi3t3uXX7BhujMaGuqaq0oLC2v1kfV4wEn9qeaSf77g1PPDOsX7cihDhtG4UQWDU1y54VmZRFJRmG0WSMjR4jIlEJohJJaV4oBCItO1rhJTgRQUlMkZPrEml0L+vgk+Clkox7LSWBYDqfMVsuKLOc1lqCd5RlSTEoCcDh0RGvvfE6pc7onCUfDbA4hErv5ZyjaZrkQ/cIR/CgTWLYrYWCkWcA3a5rsV1H17S0bYsSYJsWkxeYYYl/2SKER0gPwiOkI9MG8hy0JltZTCaRMoCwRBwIh3MNdb1iZ/cCe3t7dF0633Vdo6RBCMl4PKEsBwiZxsM5d+ZW8S0IAI9ffPMkbQ309z7QNB3L5YrWetrWYqTgyct7ICRBS3QqjvbW6RFvW/JilIgDPkLwRO9SSyt4nOsQWtC5ltZ2lMMB27s7yHxIxoAnn9kA7xLJJxhkNuSpp1/E25ajoxPu3L5FriK+E+R6SJlPmMea4DVZVkA2oDs5ITrSPBlkKhZGmVjHyEfCz/g7CalVqib7tL4EAT6E5MzhPUwmqFXNbLHi4P59lMzxUXGlasiLMdEH5suW2ckCmwkubC8pbQtZDjEgdreS9mGco1Ugzw1mkFO3K16//gavvnKDzdGQS5vPsSc3kDpHSI0PEFzg4qVrjLpAPJgyXXRYCxcuXuTi3h4MDJLAO6F6yPewZ3/p+I7RmvFcRXO96G9tbTE/PODo5Ijq7lvMF9PUjAlJAf3JJ59kb2eb3d1dVvM50+NjZidT7t68za/+yif4xCc+cWroPRwOGQwG1IsVXd1wZW+XndGEj/zHP0q1XPHLn/glJoMhP/WTP8H7P/BB6rt3KMsxk40Rs+kUkyk++kM/xAdf+hDzpuLGndt8+CMf4yd//O/DeMSNP36Tm2/e4MPvf5aI5+Rkzmg0SEDsNT5vLb3ex6OAgTnfFjt/qwUiLngGoyHKaIqi6E20A/fm97lz7y4yMzTO8tb+PY5mU6JMeJf1YjzZ3ODOnTsURcGiWjHZ2sQRaJ2lbhpCQoOjtWayuUE5GjJdzrh/dARSUAwHOO/puo7cdlRNzXg85omnngQg05qNjQ2k1ljvWFarfkFzb6t6fiPm5rt97IwxGJXRtTWu67AuyS8YpTC5wdmWLDNsjMcA2LZGSpgdHdFUC7ztsK5jdnLM6/7rOB/pfCCGBEDf2tqiriuWixlaQIgd/SqL9y59ljFcvHgZpRR5XjI9mVOWA65du8Z4d5dmNqWua5qmwfshg0EBJF28xz2i+OaMYtnjkmRMWKWyLNna2CSSTM6FiOiypFsuWCxPqOslSgu0NrRtzd27d07lTbrW4rxFSmi7FeATLrFnWCZmbbL96uolIQSK4Qii7FvoGlAQIYYMoiEGTV1Z6rplvDNib/ciUqSEcjLehOip6zqxsM2Dy8t7+LMUWmUJGwhEVL/59wTn8M7hj+/jOsvGeIjJc7QqGIwmWOuZHh+zuXuRzfEm2fYOfnnE7ZtvcDI9Yuk1ntT6FqEjNjOmx/cxwwl7TzxFubfJlasXMSpjXBbs7GyBtdTLJTFGsnKA1pJyY5tyZ4/hzow33rhD3Xre/8zTiL09uHuDtqkR0aMliBiI0Z+Kljvvk7blI+7m8lcV32GCtga6rgcj7Qpd7984Gg4ZXLnK3/uJC/wn/9GP4awn3xhzeO8t9i7tQTHkxh/9KSdH97l8cY+ws01ZZFy/8WZKDAQspicYJNF5cm0olOS3fuPX+adPP8Hf+4Wf50f/7g+TbWzC7g4cz/h3f/D7qCA4OrpPWea88srLfO1LX+CFn/4H/Lf/4//A/P4h49EWwmTc+Ozn+Oqff5GLe7vpZGjNeDxMSUtPhwxEBD3oVapzx/nujXWLM/Y779jj0Hz//JWdS5Q/MEyipVnyt9RZhrWWcjxCFRnOe5rg6JrqtCoGaVGZzma0XcdgOERlSVvOk6ppMjdE7/ExopVKTE0l2b97mCqsoxE6M7R1g1CSpuu4u7/PaDTi6uVrbG5voUQ/GQTPfLlk//4hiERdz7Isjdk3WADf3aN2FiL05vQ9Dizik5QBCXf24Q9/iBCgHE+SFEdbg9bQdVSrE4SELEttp66rsd6DTP6bvq05PKjQWpNrgckUWaYgUwxLw8ZkRL1asVrMuLCzC0XJMx/4IPXJCXlWIodDqGv279xFIci1wbVdqrpb956Zch/fdJMgwul4Kq0YmBwlMkxWYjuf/g+Hsy1tXdP1ybdA0LUrqtWKGJIcirNJPDovDJnWZHnGaFxAaDAZCOlYrk44Ok5aaW3bMhiMqKqG8WiD3d09grXcv39MtWqIMZLnJTE6lss5RZFhspyLezsInaj99uSIpqlwvoFYJB9OsW7rhh5f9xhHlMS41ko4m5GESB7UCoHamLCzfYHt3T1EOYasTKfP5LBqmO3fo6kXFBKCjvhmRW0bVg5QObEw2K5iqAKTgcSLjtV0n/zCFT74gWd4/unE2JdUuJN7HN7fx7lAnpUEPIvZnPHWHuXFK7w43sNWFjPagPkxN6+/SrtcQPAYJdNRhIBZJ2jO9Xjm9+7z70a8gwTtG+PP1gQBCFjborUk0wqqFXQeVZYoHSBE9i5fAiO58/kv8Ov/+v/mq5//EgYoTUG9mDPKS0ajAZ0LtPWKTJu08LaexdER948P+NVf+mX+/k/+BMPnn4euZfq5L/Anf/RH/NGn/5BSag73D/jQhz7Ea2+8zq/80v/JP2grPvyR72Xy7DNwOOX217/G//tvfpNXv/RlxsMB9WqJUb19kdGnFOhIqp4JIU9tcdYYgndzvE3v+dwYrkgYp1zlSCQ2Bo6nJxweHnLz7ltUXUsg0cOT0G26IWNMdP9sWFK4jnxQsmgqVnXFrJmzqquEL1MK+iRe95po0/mMZV2xt71D27ZY7zBGY2Pg7v49BqMhxSjtKCU90yjAwckR+/cPaZ3FWkuu9SND4vhm0bYtxhgypREqRziPkoIYHKFrycdjQlNBTLgv39UIK1jO5ty78xZd1yCiJwSBcw7rAsWgRChBxKK0Ii8UCvDWsZhPIVpOTo5YrqaU5Saz2Yybt96kax3ve98zlJubYDLqwwMOD464e+8tBsMBUgXatqZpK7SR5IWhqR7t8XknIXpnD1AoRL/BiCAleaFB5+Q6QOiwixOc6zAqIlXEdy0hKjKVoZQkxpAwX1HiYkCJgPUtofIIGTB5iZABJR2rakFdGYTU1FWDdS1tnSqmRW6ISNq6wnmHRKRqCY754pgQOyaTCcOiRJiSsFpyb/8W3ltCtCA0YAGXNrchgki2UY9rBAHOdkinU6NXRxSCTEkwmkGWGJjoiHCpLY2zUDV4P2U6nXO0f8TRvTsM2iOKsKKQjqIskEoSpCN6i2vmDMaJsHX35ITrr/w5PivZe/IF5MYeNB3MGo4O73F0eEB0NUYLmq7l9u3b7HSRC1ffB08+jWkD3D1gOZ/TrhbYZomKHq0NIvj06LXUEtziveTsuxXfwZn85n/aNA2ZMQzyAuYLktKhTRpLkP7tA8J7JkXJwBiMEORK4pqGQZ7hrUXFwLAoyAA6i3QOYR1llqO8xzZ1wlbkGYPMoAUMy5zFfMrVK5c42L+LkjAsC7ztyDMN1oGWNKslRkAmJbZuMEqhhOwrQWkX+wCYvsf6PAotGnWKcfFIrXDBo41hsrXJ8XQKCLQyRMCRMHeeSBsSBT8KEEohtSYK0bdAk7uiC4HpfE4xGLCsVrgQyIqCxWpFFEkcVUqJUDIxM51l//AQ5xyjybgX3xSJkRkD1juysiBKQdU2SAwBgSOybOvkCWp03xJP196jHkqeWWiF4JAiMiwzQuiIWIgdMlO9/QqoLMO1LXW1YjQeIEREKZkWaR3JC0WIHdY25LmmLDOsbbCuZrIxIGJZLKcURY4xGpMpnLPM5zMGwyJZ+rgOqgVZpmnaCgiJBSphsjGi61qapibPzQOtrvOG7fC4tcF6nckHbK8iQkTyPMM1K4gOVEh6VL4Dku5UcC1SRHKtyIxCCU8MHSIGtBJE3yFIVY5U7RBoFemaJVpZquoYKVqGQ0UMFTHWDAeSzARyE9Da4bol3lcUuUBJT3A1UrTkhcSoQPQNEossFNBSt1MiDSFUDAYS51eE2JCZSPQNSto0Xz/mLD+jkxtLCAHbddiuIVOK0kjaepnG2VsYZOna6GoIHaGpKWXk5O5NtnLFzsCwNZAMjUe2SzLfoFyNcjU7A0XmK+x8n6FsGWtPaKb46gRcBaEiNguCqymMhOhxXYfsq95qLai5XKbPFw63mpEJh4oeRSTYjuAdWkliSJAUrTXhAc2ztPk4/3gv/uLxH0QxUEvFsqn54mc/w/90dJRsYhDoqMgHJdPVFIVgeTzl/p17SBfYmWwipaRrmqQTI87ICDJEZEzVLS3gaHrCFz/7OW7evEleplZo13UcH97neP+Q3ckmwgdUhEwojvYP+L1PforPf/7z5GWBt4HZ4RFHd/ex9YqBUuRGo5TCEHHRJQW4b7BWyEcAfxZ61fkYSbs05+msR4SI7yz7+8kmKISEAwwCWttR1TWrriGqlGAlWy/6zvY5RfjQU8d7z8jVasW9e/ew1lLXdWJyes9qteLo6AgRYbFandpPWWsxShOlILjIbLmgffM6t+68lbS+jAHABk/bJpV128utKPXut+L6dpHnOUJA8I7gAyEK6mrJ4f4dFssZy0XVq/an8y9jko6pliuaesF4pJOIaJQEkaoaIgqkSEws2+/cQ4SqXkBM2L66XvYblQ7vHda1dF3HfD5HKYXt/OkYxujx3uN8Q9NCxJFlWVqA3ou3R5+kCaBuVoQQ8NYi1DExKJwPgEYKT7QrfEwaaDF0COmTU4cQCBGIwZ/WqAQRxJnwuCCwmB/T1ktiaJNmGTbJYQRFFBIhAt5W1HgiEtd5vPO9fE3qakQcPmiYtrTtDICqWtK0K7SK/fGEVDGL/c/1cT7qN+i3iTVpRveSFNFHQu+qgmq4/pk/wSEJUeGCIESRnB+iRISIcS061EhfY0KDjq4nfimkiAgpEMKS4YkqEr2lqmcc3Hydk+kSwldQQoFd0a2O8c2SXAm0zpFacXT/gNmi5mD/iDwvk6B529FWK1y7ZKgdqid6hG9V44nyoc3He/GXje8oQQsiuQesQ8SIAMoiozBDWh/4yue/SJYVuM6hQkoORKYYjkoG0jDKMqTwuKYGQAaf1Po5p+MYBUoKdC+KNy4GtHXFzTdeZ1VX+BjJ8zxVwYi4psZHMFozLgva4Lh76ybXr79OEBIZJYXQlMowKgbkAohpNxPwCPONTkv6u/gIMJCUUsmqIybvvojA2gS2d84Rncc5l5wU+gqVNDoZOUNKzmSiiIe1nYHgFChq2w4fk26Tzgx1XbO/vw/Qs/gS5q1t25Sg9dW8GOMpPs1IgZLqFNdQtQ2L/vspo0/Zp0lTLSVt68rcusr5qFg7PRxaJ8mFBPIWCCmwtubouCbcT9IJMSZxUKWSkCiAkoGiNJz57pybPIVMY0g/Rv3Ja5qKtq56XHlESyjyjM46rHU09YqurSFKrE3sv6IoyPMMAbRdh5SS5XyGEBGTJZXxxznS9HZ+YVszOtdJWsS6Br/0hNCbliOQQqO0ANcghEXKgJABLSVCrolM8RTbJETsdfESm1PIQCQyO7lP5xyCiJQ6sXx9RARBFAqjJN6vaFyFj6J/PkkoCBEJsUMKEFiapqVp5sToERGUWmPOYmLtxbMK4aNArvpuxNryTKuEOXMx4IPFBkvoGpbBEqLEBUmIfTVKKqQwSAHae1RoMaFGhQ4lHAiBlgEnJSF4onN4GjIlGWhNiI5ZPaPuPMu5pSgGlCqgQoPCYgRoESAKyjzHB0u9mFHNZ8gIWggyKShyhXS+T/jTvnydpMXzrWsR38ZTTqvFe+3Pv0x8V1ic4oEkDbq6SS3HPGMZIxe3tmgWNTJACB4vAyZKciRK5zjXYq1FKZWEL12XcG29gXfS7RNJ0V9EjE6Gwlon77koUtUuTQCOaD1aKnQUaKHQWqFUMqSNAryLFCZjqDOU94Smoeuavn8uMOcStFQheviiejsO790Sce2EkO4slFJIodJtY31KrJRESYMWGcro1JKWAh8jInic6IVKAXoF6XWytMYhrO2ktNZJn6sf37wsUpKuJNGHU+an1hppTEoCtO5lPwRRSbQ0p8bPQogkwUE8nejWz4c1Tf0RjqNFdBwAABg2SURBVIS5jojoUSJZxgilUovZeUJ0KJWnKpZI90vsSS5SpXETpCpGXCdkEeK5ZC1BSATRB6KPxBDwpHtMKwUEhEyvi9GfvrfShixXSdRU5/iwbtcZnOuwzvYSKX895+5vRvQitG+LcGrpkuafmORNYjKkNkKhVEQpcN6n86/6+06uq1MxVc9OxULXE3OSSYl4iGA7SySme3wtHuwTw14qg9EZeE/wafJV0qDVGvkZMVKnhDBEnEuVUkTo52OF7e2jzidnpwfHu3n2/O7E2nVBRkGUYKREy4iOPYu+qxBSYVSeBjkKAp7Qj5EGJC0Cm5KeGBNJir7SRpqDW+dAgdDpvi81ZBpUqShyyGUEJxA+EYyi81gfEDJHRknygBBoIipGdAjokEgqpyMYH0zSTqOXdwiAOj/iIiCifC9R/wvGO0rQTq2eHqpQSMADudL4psNhidahOg+2o1AFxWBAkIHZ7IST6piByZkMhpRFgfWJnaSkQBDxyVtmzf/Bx4AIghAD+ASqFYS0aCGSF6gUZHlGrg3BearFHC9ADwtyJalbi4gC33bUtUUGjwo+kcqzDKl7xuEjHKn15IgBWlIbWErZq32DVImteqpd1ev0uJASOKHP2ohroVvO/Txl8/S/G2MS3q3/3VqLVIoo5altltTpO3ibEjYfAsH3CVeIp39rjMFG37fRYv+902Tnfar8GfUoe/2FU5KKUslVIZIStVwrcs4WSNEzxnzo8ZQeQnDkmXnwLcWDqvanYN/eS1HrLCUCfVK3Wq3wsV8YkCjZGyfrDGMUTRNwrsHalohDaQgxEq1/JDCc35X4Zu0fEYjYHiqQmLpC94LSsl8wTb+4xwB4RJ8kC0SqIIeH2oinDN/UwjYqMZ2VSLpksbdHEwi0EkgRky+z8EgpMDol5PQV7hgkoa94h9hX4kT6Pj6EczqZieX/YCX7vQoKkM5lcAlm0jOytUib3WjTGhWDI7lJaEQQyH4tNFmGjgEZAlEkiIONki4qHP1crgNCeEKwuM7RhYDNMiQZuQDjIyIk7KgMtr+2JDJEnAsIlfWJuULFiPAO6TpisGgNUcb3jND/CuK7spKdz4ZlBJ1ldNGjEexOJqgYyKJEWo+QHeUwh3JIUFnaGUaB7WzyfFSy76EnY6UoQYZeKBYgRrQALwSqr9gknbIeq+Zj2tVLjfABYT1CCbQHLwBnT3eI0cdkV6IERmqiTAsJfeXhUU3z11UnROwn2ZB06pQ8xY/5EHDWJtC+SAbdQklQktBXrtbvBWdg7xhjwoGtBVRJa/+aaGHbDkdA+Qe/j/f+FPcm4tkuU2udsHB9gpisJVI7Lvbq1QkrR9ISCgHe3TrC3zZijGkTI0XCnvgOL0FJjdSql4ZRfbVMnXnj+bSfjeHtSZJI5g6p7hJT1YwQEX3bWspU8Qx9VSTl7pIYBDE6fIhEF1BSU5Y5sa+yZWvjZJkMs53vkqfte/FQrLOY0JOQBay9K4MgBovzom8zK2L0qcKGQ8RE+pBqzTQPfTXtfAKYiE8iQmYKrO8xvlEmP2UUqpd6CNYRY0DGxCKVMRBjILqQ2mfInuHuz1WwOZXbUQ+M7zdIyKJ4nImcDwhMx5gmQkFA9uvexiA/JaT54NL9qhRGKpCaLvgebN8ndFHghMJi6IQh+EAhM5QaksuUWFnbs+4lRN+mqml0RNemaqqWRKHQCExu8EIihUKJiA4RJUBJASis7wgRpFj7dpIuV749/jd13b+1k8Z7cRbvKEGLfcnyGw2GiLBczNMFZXLGwyHdomGgFbHxrE4qjo8STmXUAxBt09I5i8ozisGAWVMljNMa10SfoIXU3ulsR/AiKTIrhSBVhaL1CB/QymCrBhmhzAtEphFK0REZFSVKZ6kqE1LZVsWUAFhnk7xDWXwn5/RdEUoppEp6OPgztqpI2dSpXlUQkdBXqqRSoGQy6O5fs068gAeSMqX6lnPo2yR9C9J5jzCKzjsUZ5+zxqDJvqoWBUiVzL8hgdyFECijiX17M4SQWkC9yfvjorGlpECIeI5pnM65D47gAt45hHAEIYG0ACsUkvWG5kFrtrPojeZDPL0O1ovuOnEWBDIlEX3FM4TEKA0+tbwinqIoqKoKo+Qp45PgyY0+rcw91pZP3+TY10D+tT7hWi5GyB78HXt8mRC9knsqT62To5Q82YQn7CszCTO7boP1Hx8kOAghplaW6LsPIuHNgg8JYyYgxkDo29zRJ3xc7LFrUuq+ZcVZNRt5Np+cr6Sd/uzJA+/FqVl6ki5JOEFEJLT9fe16Dc4oSFU0SVQZMUh8DKnTEwVeSrzMcTonCEMXUgWulJ4gBdLI3vklRxqDth1GrrtQCSuoSJ0pFyJ4S4weF2yCTgSPEQEpPELG/tp7jO/fv8LQxLV6df9M6HXNSA8ZRT/BA8hzmDN59gfx3O8CCpOsmkIEHMynM65evNRr9ERynXYIbduipEQZTZmZ/7+9s2tuHNnN8AM0JXtmNzlJnatcJP//jyU3J0mlzs6ObbEbyAXQJEXJHluenY+z/VapXpGiKKo/0Gg0GqC68enTp5jJu6BFF+tLLLE4Dtzff+TUTtTZczt5oSjc333keCjcceDzp79Tq3N/POBS+O3Tb5zMme6OnJ4+oyIRAFfCVNtnrVqmYJd4/q88kKivCS+UmJ2qKcXDgXLxMdoLNY8F5Jh86hpkdv8DcuXcDvPjiXI8xAYBC0HtvR3AEmhYp2ldbvZYWrP0S6J0wRHP6G6L9QUH1fALa3PNTZ7hwC8S8XPaHDkzSy5Hms1pMYvlt1rD/F9rKAendDY3hNMm36Y4lO7/JsqhKwGsRtA9L+jLTG/hL2wSWT1toub6IPW1DAaeipNheAsnMp0OOOlQ3k6Rh5EY3701zCU22ZaCKswCe8f0s/+wbMCIpc6W5T3pgWkqPJ4eUAqH6bhYTZtVIginMs/C4+NnPny8QzUi3AN8+HiPz54+pc+Vr2WQy/BVAUtFc31e3x2/lRXFll2s17ntjl0MjeACWUqrT000ru15WT/v5oWtU8DZ0qZdnOuTlV4XKp6TIUU1FO2weU2YKOKNRlg8m1cmOcZzR+mhW5uFa7oCNEA5OHgGfo42JJATgBTENK8bK4lizSglfFXdhVYrZo1SJkpRmvj13e5ZBDE52JbLt+Yd9kvN0oWo7T6/xfJz3v50WR3IOtXoZ2ERC4va6SljRE4T0xRhjdyiXbQ601Wk5o5LQaTgKkwpG4739/jpd57mis0zmFHNqKVQGhSv4NE+vD9DKWguo/bA7B4LFbmZIZSykPGX5dBNNrmuspTzUOPehwlCAIEvkxsTpaoyeSgOx6bZzaO4ddmVo9sIC+EomMqce1TO6eHEX/7yr3x+SMfRQ5pBi+IlhrtGDuwIUg5MsIZv2CCiUAveYJKJaToXvFadx3ri5GESFlUeWgsLzuGOD6nYLKOlRwqjFIWgoRy0ClAyFozmfwUTWzRZeYfipllOJhHiKKx4uhwXi6UFyd/tPh3RpZSmhAM91xS0l7OkGXB3uA+XlBYKePg5nFtVDMJ73DwFbRSckj5KsOgqsZC2WdZQqC2eTohebl1R0YlWnUlCMWs1O/LuWPJ+kXdXOR7SqtlCUVh+avNnnVzF24gFf4bzYd7M4qFIKNHue/0obxBGsu60uwXzsgwfFWbmaVWRKJs+rgCifYdVho+pNf+PZX2vz3HmK7QsYYEcdDlXbc5AzmHV7Ii+GNfVduLDxzvAeHj4PTZ9APOyO2CrtdrC58/T3Y53CtGV697C6ivH0t7rWPrARVgsXbYvWRS3eL/tmc8rwiu2n2kknN4h5GN0uJbPYIScFWL3pQFI5Lr0VMtiU1AojU4BUdwb5Q5isWnO7z3zTDnob56EogXwsIzGI0eyb6J9IPusi11QtCyjfbl8Sz4r1fP/urTLXoe9DHx57m470jUy+1nRLZOPfTluynPZhEOOacuEPF56jDhpFah1e69Qng/L/5jWcrbKZJ/QlFXqRhEQL6CFg8KERtxEQq46CnoEjJZydhF1GBKOh5jDSQT1lMm6yvquhomvesHWv3JrRV3Fi/7D7rD/2tCz1pXlawJNw93HyUGI9bMtXEJ5a7mc4rI2tK0S03S975Zr/k4/3s66FuvDdhBePu+VvPLyPAJNNO6bx9vUE+f3W5/fNs/vsj7/1vLyNXixOz3bSPuAGAqlyVru15emXo8QLhEypNhaT76rv8tyOGf16+f3vL/fl65/DRe7fP5r/NxrvY4b+JXlvLn24ntLY9Cb2CQsiZ1B854bjqe4YNu1p+euu8br9567Ds4HpC/d92Vsn/X6c78d2+/f2ofPcDFR21/0mv/6cnu9fMV3PI+dCXyi7+/rE+nluTfXObrJGuJnGUTOXnmfa6/n/8PKz95Xrl//7Rj6ZHN9RSmdY6MY+fk9LPsR9PYk58ebVZJrcnsth76bMSyhzoTJlKxXeRk/xM7OA0zuHHzmaI1C28jfKeQ4oNhyfv3+cfndVV5vn1UxUZpMVN0/z3r9Ml72Ul52a67/8/z+g6/ziikqKnaRxG4uXRSzrhwoaVzLhmU5S1A2nw9+HaPLcV8ZaVnALhaKcTqLuhiWeUG3wq0YqMRsbZ/VSOTy3AU2S34w+C18bXjaxwPs516Cut6soG3uMviNbJK2uRxIn2MXPzsWCStH978RX1/hBxmDZES42FhfFuwVhIHvh6u9eHknyFlfk75wF0s/QFdWSTtbWFAtZW83CJj3z3Xh86eQHA8GD155i6n2JTty5UNWxawrBeEl0c35ZJO8nB0Mfg3n0kSWbdNwvl2VM1IxKzQ1igtNPc/15RlyB1YoywKLhwXEQT++xmDYxjo4+PXcYXI+BKd3wNX9iZeWF+1rITkQvJX5ooIx+DorYVXf+nJeY8vl+fW8oyirOV03r61JHtg45J+3kGuKwcA3xXOuKbI/8PNjV3BSIY9677EDF+tHSgTPky7ONetI9909t74NHhy8xdRdngWYREFWE7iJYbnLw9ib3273oflzQxdF1yTkvakhGTIilnvD38VEF5Helbpe7kKOFYSyZsLimCub42scYmPU3y3Yj7tLn7hitdwqbMtsW7rl5T2+NMT7/bLm4C9yLNH1vvX6mW33QOtKWXcTUO9hfvrkaQ37c9Fw3uG3OvA1caUeNvUliw9aHiPkEscz9/HN8TXr6cDAbZjg5Sa15MP0bkUjxNaVAWngywgr2EZAZM66c/+Mfn7lWIj+eh3/S0twA9ehXBl8Wetu/9EfWs7f25z4j8y+Py/r8YXtVHbH29Herr8HbtpFPPh9fIEr8njZxXmtfuOabeJvQTZ16yv7vq0EdCjqA6/EBCzzwj7NF8tdGc7CJqvVpjzT8Aa+jOLh4xcDwMbvwUF2SyO9/IvF+2KpIOTXXVh9HliVAd8cX+M2lLObsVoy33OH1SuFW3lMkG5Ct1rrlxg/O44wPxl+Qnpd9FdaWMi3Z5XzgpzsFvHB35Dz/eIqYDtZ3Otzo5z374lHWCS3XIGI/hg+a3HJmqv5+Xof4nfgtZgis14uxWx2YagrahGnK47jcxeWreqLnjH4TdyVJWVVgDu6UrYowxZ+ZsVCMS7Z77uytR+nzyZ/V7BV3gbejuLAlThAi7GFtfx1c75Dl8nNOyY40r9/6xLpn5glt+lkHcozrN525x2RkqsHkdsyXhFy4tw65pcVf1bfve20wd+D++6sjrP3XSHbxjvsCriBNISK0CLDghBptyT9sj1igXkP4CuOpD/aGjcyfu+lOHyD/7y8xVQ2ykCM3MrkBaVSKJTU9x1FiFg7slHQBt/GCngqwPTj7MAPD5/5+PEjd4cDXk94MyaEYtDmFjnvllyInAW1ZIno/QyE8K8YCtpt8LCkFCLVWM9HtwR3RZjnSiXiUWkPEphbbt0jrYqYvfAjL0D6DF8H38Dl1deX5P7qJhKnFTCr1HpimiKgqBah1spcG4fDgctpkj/zfuCb4yyuW8dqQfPtNnhZA3A7Hhk8WoWM/h/jITiGItFUMkJ/tJoMa0EPvLz9SV+Szg8evPAGk/hm51kqabVW2tyozTLTfUw6Ws4qwh8qZpjffUb8k3Hsim2xWzPLvLXIh9lUac24//ALIDw+PqKnzNlmUGTiOB2YVSMvZg74fRv40u9fGADMWXbmDrwd2mObuOesOJVj8r3HVGYSjRQ9KhGhG1nSYz1+fqT4KQS32NuZy5n54NcxeAQZvdEGbtKg+GKBblgkrdZMbzYJVi1nxOxmyORmHUv+MWbsfy7O8qeHO9rXjyHmuEoc57aS5tG/I0uJgGu0Bci2oFhaTZddeThLTLTOkO0vXSVcBg8+4y2mzdxwwfF4x0GVqTYOOdN3InlqqBlh5v0RFJ6fjT0nWSppafdIHC5E5GYrxnQozPPMyZxjKRRXZhdqnWnO+QyPnQWNy8/Prs3XxQrMwOuQ2RXAkeaQMx7JnKPiDgYaeVfi42Z4jRm3HoX7X35Fmd8x0OwHlsGvZdKSoTf2X5PGp6ff0HJApgNSCs0Fs8akBS0HmrWIwu5E4nLXYHbW9H5+8DdkwDPnsJP1JGf1JZoWcUClZ5RIC8cka/Dz3WAqi4LWVbHr0+Dng/0ODJxjTZa+seY/1hmtM9IarYG40ARMUtBRQRriEZ9r8Fs4uq3LZjbdQlFr4swY9Zg59u4mjhyop0ZFOJnTzDKBfCynmXRrDiiyKICh/F3nnVwZeAMmnINHsEqTgmgkhS8KkxeKR65JRzEtkSpJMyG1CEWUx4eKeEMyac/b2RflfvDbGKLPRRfYD6RfZhdjbsLBIvJ6axPWGrU5RSs6lexnkr+bOYRFrvRH330++I/nGM/Czt3rZ19fWT8YPfJ3zMkcrQLTLzQqkQZvtWwrAupLXMuQw1sLOKSql+3w+09YBv94fDbemEay8AIRqLaATYoxUYWYPBJpHZpEPjdTIfISfv8li5+PV5HfNEq21BAGTZRajM84OhWqFJ6aUEVohwnu7pg+fKA+tUhYbh4m+K54ObheGwjO+dJmOvBauBuWicFrmakpeJ1GsRnxijehFjA/IQLlNONzpdrMkzr3+gH6916op+fZb/ze4PdCxFAXtPzC8fhPTHdHvDZOrUZC6aKIxRKoYnv7eU7K5Aex5/9J2ftSJ+ec9SUevmUlJ9HSLebWUIzfZji1kgqapAKWeSakBx7fTpR11/7CgrY+x+DBK//zRt5MjViPB2FSA4ETFqZdWLzODKdKiZmCEK2tt7jBr2ePzukSZSvhso8CsxizwINXFEXqzO8Pj7FZ7MMBmwpzcz7e3yMaA0FLBW0raJYBYi+AFgExFLRbIRiTZS47PTJLuJ0Xb9xZQ125Ox6YRZn1iBbhoMbH6YkPWrmbjPnUUDt88beuP8D1ZZOB12EJRQM3eKABGA9PIMU4TI27mq4JNtHEkCbpamC0HIjXPYSeLLvzg78t7+ulc/QtM0PkfB9nbBIQqA3u/gLNcc/k7/2arHdyJyfSLbVsLLYR3LhDBw++wh1TS0HSBVBRaEVoCDOCt8w7JsosJWYMPRbEwJshaeaGSBSv3XqJURXmAoePHzjogbuHhsmJg0xMf/0XrH3i/377O8eHJyyT37o7zTPutcjVvWJ7Hgrae2A0alg7ZaapxcYLb6jPqFe0KKc6cxKPTQLMWKvM9sTjbBynX+ClnbavfI6Bt0OEZYPOrQrar7/+lcOxIHqP+UQuKOT95bxqh5z8seDC5TB43pdEbfHn7Z95bshSbzy2QjXHXTf+v57fKZjX/K6e3aMfh4L23v4/8GeAPPjJI8tcYcLQ+YScTtBqtCsDmFjWP8VAwwfthwgq9rMxkse6WkN6Vt3st95OyPEOnhx+f4TpDv75V/7rv/+Tv/77f/BAYfWi8YufmJAXBpiB90KoGMoJXfYyC3AkFG1B+UzjCeWAcA984Hc+8hvQwAtb98+3YyhnN+PdncCgzSwR56/d051RRz8yrilH20XQxKJcJ7uDtTCt2eYcZFvoPmuVS/T7s6yiDAxcw99+/zcOx2PsCq/efNHsiQGGlgLGybapOcqnUiH+/RWdn5W36ILdN9fI5rxtviMKJWRDZEddxclbeODroFfNVvHtc/Mu4n1zvlApIdkZNfGz4zXK11DQfly8UkF7Fn7DIsTo9wOvw9/+57QoaFO5aDSKazfnXINuzL8DfyjKq04N/BSYeJ/VbGBg4IfBGAIH/jD87/JuqPQDAwMDAwMDAz8Yrk7ph4VsYGBgYGBgYOD7YVjQBgYGBgYGBgZ+MPw/+hHPPwyZoA8AAAAASUVORK5CYII=;" vertex="1" parent="1">
          <mxGeometry x="1023" y="-345.9999755859375" width="616" height="194" as="geometry" />
        </mxCell>
        <mxCell id="PZcMeMh3Sl7zUGsd2KVH-13" value="低空无线网" style="rounded=0;whiteSpace=wrap;html=1;strokeColor=#B3B3B3;fontFamily=Helvetica;fontSize=16;fillColor=#89beb2;fontColor=#FFFFFF;glass=0;shadow=0;" vertex="1" parent="1">
          <mxGeometry x="-30" y="417" width="280" height="60" as="geometry" />
        </mxCell>
        <mxCell id="PZcMeMh3Sl7zUGsd2KVH-14" value="核心网" style="rounded=0;whiteSpace=wrap;html=1;strokeColor=#B3B3B3;fontFamily=Helvetica;fontSize=16;fillColor=#89beb2;fontColor=#FFFFFF;glass=0;shadow=0;" vertex="1" parent="1">
          <mxGeometry x="579" y="416.5" width="280" height="60" as="geometry" />
        </mxCell>
        <mxCell id="PZcMeMh3Sl7zUGsd2KVH-15" value="专网" style="rounded=0;whiteSpace=wrap;html=1;strokeColor=#B3B3B3;fontFamily=Helvetica;fontSize=16;fillColor=#89beb2;fontColor=#FFFFFF;glass=0;shadow=0;" vertex="1" parent="1">
          <mxGeometry x="275" y="417" width="280" height="60" as="geometry" />
        </mxCell>
        <mxCell id="PZcMeMh3Sl7zUGsd2KVH-16" value="数&lt;br&gt;据&lt;br&gt;层" style="rounded=0;whiteSpace=wrap;html=1;strokeColor=#B3B3B3;fontFamily=Helvetica;fontSize=16;fillColor=#ded38c;align=left;fillStyle=auto;spacingLeft=4;fontColor=#FFFFFF;" vertex="1" parent="1">
          <mxGeometry x="-63" y="310" width="929" height="89" as="geometry" />
        </mxCell>
        <mxCell id="PZcMeMh3Sl7zUGsd2KVH-17" value="低空物联感知各类数据接入和传输" style="rounded=0;whiteSpace=wrap;html=1;strokeColor=#B3B3B3;fontFamily=Helvetica;fontSize=16;fillColor=#89beb2;fontColor=#FFFFFF;glass=0;shadow=0;" vertex="1" parent="1">
          <mxGeometry x="-30" y="324.5" width="882" height="60" as="geometry" />
        </mxCell>
        <mxCell id="PZcMeMh3Sl7zUGsd2KVH-18" value="支&lt;br&gt;撑&lt;br&gt;层" style="rounded=0;whiteSpace=wrap;html=1;strokeColor=#B3B3B3;fontFamily=Helvetica;fontSize=16;fillColor=#ded38c;align=left;fillStyle=auto;spacingLeft=4;fontColor=#FFFFFF;" vertex="1" parent="1">
          <mxGeometry x="-63" y="149" width="929" height="159" as="geometry" />
        </mxCell>
        <mxCell id="PZcMeMh3Sl7zUGsd2KVH-25" value="应&lt;br&gt;用&lt;br&gt;层" style="rounded=0;whiteSpace=wrap;html=1;strokeColor=#B3B3B3;fontFamily=Helvetica;fontSize=16;fillColor=#ded38c;align=left;fillStyle=auto;spacingLeft=4;fontColor=#FFFFFF;" vertex="1" parent="1">
          <mxGeometry x="-63" y="-14" width="929" height="159" as="geometry" />
        </mxCell>
        <mxCell id="PZcMeMh3Sl7zUGsd2KVH-39" value="空域管理平台" style="rounded=0;whiteSpace=wrap;html=1;strokeColor=#B3B3B3;fontFamily=Helvetica;fontSize=16;fillColor=#89beb2;fontColor=#FFFFFF;glass=0;shadow=0;" vertex="1" parent="1">
          <mxGeometry x="717" y="1" width="31" height="140" as="geometry" />
        </mxCell>
        <mxCell id="PZcMeMh3Sl7zUGsd2KVH-40" value="低空服务门户" style="rounded=0;whiteSpace=wrap;html=1;strokeColor=#B3B3B3;fontFamily=Helvetica;fontSize=16;fillColor=#89beb2;fontColor=#FFFFFF;glass=0;shadow=0;" vertex="1" parent="1">
          <mxGeometry x="828" y="1" width="31" height="140" as="geometry" />
        </mxCell>
        <mxCell id="PZcMeMh3Sl7zUGsd2KVH-41" value="低空感知应用场景" style="rounded=0;whiteSpace=wrap;html=1;strokeColor=#B3B3B3;fontFamily=Helvetica;fontSize=16;fillColor=#89beb2;fontColor=#FFFFFF;glass=0;shadow=0;" vertex="1" parent="1">
          <mxGeometry x="756" y="1" width="63" height="140" as="geometry" />
        </mxCell>
        <mxCell id="PZcMeMh3Sl7zUGsd2KVH-42" value="" style="group" vertex="1" connectable="0" parent="1">
          <mxGeometry x="489" y="158" width="250" height="140" as="geometry" />
        </mxCell>
        <mxCell id="PZcMeMh3Sl7zUGsd2KVH-21" value="低空业务中台" style="rounded=0;whiteSpace=wrap;html=1;strokeColor=#B3B3B3;fontFamily=Helvetica;fontSize=16;fillColor=#89beb2;fontColor=#FFFFFF;glass=0;shadow=0;verticalAlign=bottom;" vertex="1" parent="PZcMeMh3Sl7zUGsd2KVH-42">
          <mxGeometry width="250" height="140" as="geometry" />
        </mxCell>
        <mxCell id="PZcMeMh3Sl7zUGsd2KVH-24" value="上层应用可以复用的业务单元，包括审计日志、用户/组织/权限管理、统一认证、无人机飞行管理、航线管理、IoT平台等" style="rounded=0;whiteSpace=wrap;html=1;strokeColor=#B3B3B3;fontFamily=Helvetica;fontSize=16;fillColor=#c9ba83;fontColor=#FFFFFF;glass=0;shadow=0;" vertex="1" parent="PZcMeMh3Sl7zUGsd2KVH-42">
          <mxGeometry y="15" width="250" height="96" as="geometry" />
        </mxCell>
        <mxCell id="PZcMeMh3Sl7zUGsd2KVH-43" value="" style="group" vertex="1" connectable="0" parent="1">
          <mxGeometry x="230" y="158.5" width="250" height="140" as="geometry" />
        </mxCell>
        <mxCell id="PZcMeMh3Sl7zUGsd2KVH-20" value="低空数据中台" style="rounded=0;whiteSpace=wrap;html=1;strokeColor=#B3B3B3;fontFamily=Helvetica;fontSize=16;fillColor=#89beb2;fontColor=#FFFFFF;glass=0;shadow=0;verticalAlign=bottom;" vertex="1" parent="PZcMeMh3Sl7zUGsd2KVH-43">
          <mxGeometry width="250" height="140" as="geometry" />
        </mxCell>
        <mxCell id="PZcMeMh3Sl7zUGsd2KVH-23" value="数据的处理、存储、分类建仓，&lt;br&gt;并提供数据服务" style="rounded=0;whiteSpace=wrap;html=1;strokeColor=#B3B3B3;fontFamily=Helvetica;fontSize=16;fillColor=#c9ba83;fontColor=#FFFFFF;glass=0;shadow=0;" vertex="1" parent="PZcMeMh3Sl7zUGsd2KVH-43">
          <mxGeometry y="14.5" width="250" height="96" as="geometry" />
        </mxCell>
        <mxCell id="PZcMeMh3Sl7zUGsd2KVH-44" value="" style="group" vertex="1" connectable="0" parent="1">
          <mxGeometry x="-29" y="159" width="250" height="140" as="geometry" />
        </mxCell>
        <mxCell id="PZcMeMh3Sl7zUGsd2KVH-19" value="低空AI中台" style="rounded=0;whiteSpace=wrap;html=1;strokeColor=#B3B3B3;fontFamily=Helvetica;fontSize=16;fillColor=#89beb2;fontColor=#FFFFFF;glass=0;shadow=0;verticalAlign=bottom;" vertex="1" parent="PZcMeMh3Sl7zUGsd2KVH-44">
          <mxGeometry width="250" height="140" as="geometry" />
        </mxCell>
        <mxCell id="PZcMeMh3Sl7zUGsd2KVH-22" value="人工智能算法能力、&lt;br&gt;分布式计算能力、&lt;br&gt;算法智能调度能力" style="rounded=0;whiteSpace=wrap;html=1;strokeColor=#B3B3B3;fontFamily=Helvetica;fontSize=16;fillColor=#c9ba83;fontColor=#FFFFFF;glass=0;shadow=0;" vertex="1" parent="PZcMeMh3Sl7zUGsd2KVH-44">
          <mxGeometry y="13" width="250" height="96" as="geometry" />
        </mxCell>
        <mxCell id="PZcMeMh3Sl7zUGsd2KVH-49" value="" style="group" vertex="1" connectable="0" parent="1">
          <mxGeometry x="753" y="158" width="104" height="140" as="geometry" />
        </mxCell>
        <mxCell id="PZcMeMh3Sl7zUGsd2KVH-47" value="通用能力" style="rounded=0;whiteSpace=wrap;html=1;strokeColor=#B3B3B3;fontFamily=Helvetica;fontSize=16;fillColor=#89beb2;fontColor=#FFFFFF;glass=0;shadow=0;verticalAlign=bottom;" vertex="1" parent="PZcMeMh3Sl7zUGsd2KVH-49">
          <mxGeometry width="104" height="140" as="geometry" />
        </mxCell>
        <mxCell id="PZcMeMh3Sl7zUGsd2KVH-48" value="CIM、GIS、工作流引擎" style="rounded=0;whiteSpace=wrap;html=1;strokeColor=#B3B3B3;fontFamily=Helvetica;fontSize=16;fillColor=#c9ba83;fontColor=#FFFFFF;glass=0;shadow=0;" vertex="1" parent="PZcMeMh3Sl7zUGsd2KVH-49">
          <mxGeometry x="1" y="15" width="103" height="96" as="geometry" />
        </mxCell>
        <mxCell id="PZcMeMh3Sl7zUGsd2KVH-32" value="低空检测预警中心" style="rounded=0;whiteSpace=wrap;html=1;strokeColor=#B3B3B3;fontFamily=Helvetica;fontSize=16;fillColor=#89beb2;fontColor=#FFFFFF;glass=0;shadow=0;verticalAlign=middle;" vertex="1" parent="1">
          <mxGeometry x="346" y="1" width="180" height="140" as="geometry" />
        </mxCell>
        <mxCell id="PZcMeMh3Sl7zUGsd2KVH-28" value="低空资源管理中心" style="rounded=0;whiteSpace=wrap;html=1;strokeColor=#B3B3B3;fontFamily=Helvetica;fontSize=16;fillColor=#89beb2;fontColor=#FFFFFF;glass=0;shadow=0;verticalAlign=middle;" vertex="1" parent="1">
          <mxGeometry x="160" y="1" width="180" height="140" as="geometry" />
        </mxCell>
        <mxCell id="PZcMeMh3Sl7zUGsd2KVH-26" value="低空态势感知中心" style="rounded=0;whiteSpace=wrap;html=1;strokeColor=#B3B3B3;fontFamily=Helvetica;fontSize=16;fillColor=#89beb2;fontColor=#FFFFFF;glass=0;shadow=0;verticalAlign=middle;" vertex="1" parent="1">
          <mxGeometry x="-27" y="1" width="180" height="140" as="geometry" />
        </mxCell>
        <mxCell id="PZcMeMh3Sl7zUGsd2KVH-34" value="低空运行管理中心" style="rounded=0;whiteSpace=wrap;html=1;strokeColor=#B3B3B3;fontFamily=Helvetica;fontSize=16;fillColor=#89beb2;fontColor=#FFFFFF;glass=0;shadow=0;verticalAlign=middle;" vertex="1" parent="1">
          <mxGeometry x="531" y="1" width="180" height="140" as="geometry" />
        </mxCell>
        <mxCell id="PZcMeMh3Sl7zUGsd2KVH-50" value="用&lt;br&gt;户&lt;br&gt;层" style="rounded=0;whiteSpace=wrap;html=1;strokeColor=#B3B3B3;fontFamily=Helvetica;fontSize=16;fillColor=#ded38c;align=left;fillStyle=auto;spacingLeft=4;fontColor=#FFFFFF;" vertex="1" parent="1">
          <mxGeometry x="-63" y="-177" width="929" height="159" as="geometry" />
        </mxCell>
        <mxCell id="PZcMeMh3Sl7zUGsd2KVH-52" value="服务对象" style="rounded=0;whiteSpace=wrap;html=1;strokeColor=#B3B3B3;fontFamily=Helvetica;fontSize=16;fillColor=#89beb2;fontColor=#FFFFFF;glass=0;shadow=0;verticalAlign=bottom;" vertex="1" parent="1">
          <mxGeometry x="-16" y="-167" width="420" height="140" as="geometry" />
        </mxCell>
        <mxCell id="PZcMeMh3Sl7zUGsd2KVH-53" value="决策者" style="rounded=0;whiteSpace=wrap;html=1;strokeColor=#B3B3B3;fontFamily=Helvetica;fontSize=16;fillColor=#c9ba83;fontColor=#FFFFFF;glass=0;shadow=0;" vertex="1" parent="1">
          <mxGeometry x="-9" y="-152" width="130" height="96" as="geometry" />
        </mxCell>
        <mxCell id="PZcMeMh3Sl7zUGsd2KVH-57" value="智能部门" style="rounded=0;whiteSpace=wrap;html=1;strokeColor=#B3B3B3;fontFamily=Helvetica;fontSize=16;fillColor=#c9ba83;fontColor=#FFFFFF;glass=0;shadow=0;" vertex="1" parent="1">
          <mxGeometry x="127" y="-152" width="130" height="96" as="geometry" />
        </mxCell>
        <mxCell id="PZcMeMh3Sl7zUGsd2KVH-58" value="运营人员" style="rounded=0;whiteSpace=wrap;html=1;strokeColor=#B3B3B3;fontFamily=Helvetica;fontSize=16;fillColor=#c9ba83;fontColor=#FFFFFF;glass=0;shadow=0;" vertex="1" parent="1">
          <mxGeometry x="266" y="-152" width="130" height="96" as="geometry" />
        </mxCell>
        <mxCell id="PZcMeMh3Sl7zUGsd2KVH-55" value="访问方式" style="rounded=0;whiteSpace=wrap;html=1;strokeColor=#B3B3B3;fontFamily=Helvetica;fontSize=16;fillColor=#89beb2;fontColor=#FFFFFF;glass=0;shadow=0;verticalAlign=bottom;" vertex="1" parent="1">
          <mxGeometry x="438" y="-165" width="420" height="140" as="geometry" />
        </mxCell>
        <mxCell id="PZcMeMh3Sl7zUGsd2KVH-60" value="大屏" style="rounded=0;whiteSpace=wrap;html=1;strokeColor=#B3B3B3;fontFamily=Helvetica;fontSize=16;fillColor=#c9ba83;fontColor=#FFFFFF;glass=0;shadow=0;" vertex="1" parent="1">
          <mxGeometry x="447" y="-152" width="130" height="96" as="geometry" />
        </mxCell>
        <mxCell id="PZcMeMh3Sl7zUGsd2KVH-61" value="WEB" style="rounded=0;whiteSpace=wrap;html=1;strokeColor=#B3B3B3;fontFamily=Helvetica;fontSize=16;fillColor=#c9ba83;fontColor=#FFFFFF;glass=0;shadow=0;" vertex="1" parent="1">
          <mxGeometry x="583" y="-152" width="130" height="96" as="geometry" />
        </mxCell>
        <mxCell id="PZcMeMh3Sl7zUGsd2KVH-62" value="移动端" style="rounded=0;whiteSpace=wrap;html=1;strokeColor=#B3B3B3;fontFamily=Helvetica;fontSize=16;fillColor=#c9ba83;fontColor=#FFFFFF;glass=0;shadow=0;" vertex="1" parent="1">
          <mxGeometry x="722" y="-152" width="130" height="96" as="geometry" />
        </mxCell>
      </root>
    </mxGraphModel>
  </diagram>
  <diagram id="-822AaaL5B67_Z9tuY06" name="应用架构">
    <mxGraphModel dx="1426" dy="780" grid="0" gridSize="10" guides="1" tooltips="1" connect="1" arrows="1" fold="1" page="0" pageScale="1" pageWidth="827" pageHeight="1169" math="0" shadow="0">
      <root>
        <mxCell id="0" />
        <mxCell id="1" parent="0" />
      </root>
    </mxGraphModel>
  </diagram>
  <diagram id="NJNL2cJP6WUwVLBHKOIs" name="业务流">
    <mxGraphModel dx="1426" dy="780" grid="0" gridSize="10" guides="1" tooltips="1" connect="1" arrows="1" fold="1" page="0" pageScale="1" pageWidth="827" pageHeight="1169" math="0" shadow="0">
      <root>
        <mxCell id="0" />
        <mxCell id="1" parent="0" />
      </root>
    </mxGraphModel>
  </diagram>
</mxfile>
